%TF.GenerationSoftware,KiCad,Pcbnew,9.0.5*%
%TF.CreationDate,2025-11-24T13:01:13-08:00*%
%TF.ProjectId,project2_breadboard_power_supply,70726f6a-6563-4743-925f-627265616462,rev?*%
%TF.SameCoordinates,Original*%
%TF.FileFunction,Plated,1,2,PTH,Mixed*%
%TF.FilePolarity,Positive*%
%FSLAX46Y46*%
G04 Gerber Fmt 4.6, Leading zero omitted, Abs format (unit mm)*
G04 Created by KiCad (PCBNEW 9.0.5) date 2025-11-24 13:01:13*
%MOMM*%
%LPD*%
G01*
G04 APERTURE LIST*
%TA.AperFunction,ViaDrill*%
%ADD10C,0.500000*%
%TD*%
%TA.AperFunction,ComponentDrill*%
%ADD11C,0.700000*%
%TD*%
%TA.AperFunction,ComponentDrill*%
%ADD12C,0.800000*%
%TD*%
%TA.AperFunction,ComponentDrill*%
%ADD13C,0.900000*%
%TD*%
%TA.AperFunction,ComponentDrill*%
%ADD14C,1.000000*%
%TD*%
G04 aperture for slot hole*
%TA.AperFunction,ComponentDrill*%
%ADD15C,1.000000*%
%TD*%
%TA.AperFunction,ComponentDrill*%
%ADD16C,1.100000*%
%TD*%
%TA.AperFunction,ComponentDrill*%
%ADD17C,1.300000*%
%TD*%
G04 APERTURE END LIST*
D10*
X157327600Y-126746000D03*
D11*
%TO.C,R1*%
X157226000Y-104648000D03*
%TO.C,R3*%
X158945000Y-121602500D03*
%TO.C,R2*%
X158945000Y-125412500D03*
%TO.C,R1*%
X164846000Y-104648000D03*
%TO.C,R3*%
X166565000Y-121602500D03*
%TO.C,R2*%
X166565000Y-125412500D03*
D12*
%TO.C,C2*%
X144140000Y-128587500D03*
%TO.C,C3*%
X144815000Y-96202500D03*
%TO.C,C2*%
X146640000Y-128587500D03*
%TO.C,C3*%
X147315000Y-96202500D03*
%TO.C,C1*%
X150490000Y-96202500D03*
X152990000Y-96202500D03*
D13*
%TO.C,S1*%
X158845000Y-99695000D03*
X161345000Y-99695000D03*
X163845000Y-99695000D03*
%TO.C,D1*%
X164305000Y-111760000D03*
X164305000Y-114300000D03*
D14*
%TO.C,J3*%
X149220000Y-88260000D03*
%TO.C,J7*%
X149225000Y-136535000D03*
D15*
%TO.C,J1*%
X151460000Y-113077500D02*
X151460000Y-111077500D01*
D14*
%TO.C,J3*%
X151760000Y-88260000D03*
%TO.C,J7*%
X151765000Y-136535000D03*
%TO.C,J3*%
X154300000Y-88260000D03*
%TO.C,J7*%
X154305000Y-136535000D03*
D15*
%TO.C,J1*%
X155460000Y-116777500D02*
X153460000Y-116777500D01*
X157460000Y-113077500D02*
X157460000Y-111077500D01*
D14*
%TO.C,J4*%
X170180000Y-88260000D03*
X170180000Y-90800000D03*
%TO.C,J6*%
X170180000Y-133980000D03*
X170180000Y-136520000D03*
D16*
%TO.C,U2*%
X146045000Y-101917500D03*
%TO.C,U1*%
X146045000Y-124142500D03*
%TO.C,U2*%
X148585000Y-101917500D03*
%TO.C,U1*%
X148585000Y-124142500D03*
%TO.C,U2*%
X151125000Y-101917500D03*
%TO.C,U1*%
X151125000Y-124142500D03*
D17*
%TO.C,J2*%
X159385000Y-90805000D03*
%TO.C,J5*%
X159385000Y-133540000D03*
%TO.C,J2*%
X164465000Y-90805000D03*
%TO.C,J5*%
X164465000Y-133540000D03*
M02*
