%TF.GenerationSoftware,KiCad,Pcbnew,9.0.5*%
%TF.CreationDate,2025-11-24T13:01:10-08:00*%
%TF.ProjectId,project2_breadboard_power_supply,70726f6a-6563-4743-925f-627265616462,rev?*%
%TF.SameCoordinates,Original*%
%TF.FileFunction,Legend,Top*%
%TF.FilePolarity,Positive*%
%FSLAX46Y46*%
G04 Gerber Fmt 4.6, Leading zero omitted, Abs format (unit mm)*
G04 Created by KiCad (PCBNEW 9.0.5) date 2025-11-24 13:01:10*
%MOMM*%
%LPD*%
G01*
G04 APERTURE LIST*
%ADD10C,0.150000*%
%ADD11C,0.120000*%
%ADD12C,0.100000*%
G04 APERTURE END LIST*
D10*
X162627255Y-102169819D02*
X162817731Y-102169819D01*
X162817731Y-102169819D02*
X162912969Y-102217438D01*
X162912969Y-102217438D02*
X163008207Y-102312676D01*
X163008207Y-102312676D02*
X163055826Y-102503152D01*
X163055826Y-102503152D02*
X163055826Y-102836485D01*
X163055826Y-102836485D02*
X163008207Y-103026961D01*
X163008207Y-103026961D02*
X162912969Y-103122200D01*
X162912969Y-103122200D02*
X162817731Y-103169819D01*
X162817731Y-103169819D02*
X162627255Y-103169819D01*
X162627255Y-103169819D02*
X162532017Y-103122200D01*
X162532017Y-103122200D02*
X162436779Y-103026961D01*
X162436779Y-103026961D02*
X162389160Y-102836485D01*
X162389160Y-102836485D02*
X162389160Y-102503152D01*
X162389160Y-102503152D02*
X162436779Y-102312676D01*
X162436779Y-102312676D02*
X162532017Y-102217438D01*
X162532017Y-102217438D02*
X162627255Y-102169819D01*
X163484398Y-103169819D02*
X163484398Y-102169819D01*
X163484398Y-102169819D02*
X164055826Y-103169819D01*
X164055826Y-103169819D02*
X164055826Y-102169819D01*
X154112969Y-90169819D02*
X153636779Y-90169819D01*
X153636779Y-90169819D02*
X153589160Y-90646009D01*
X153589160Y-90646009D02*
X153636779Y-90598390D01*
X153636779Y-90598390D02*
X153732017Y-90550771D01*
X153732017Y-90550771D02*
X153970112Y-90550771D01*
X153970112Y-90550771D02*
X154065350Y-90598390D01*
X154065350Y-90598390D02*
X154112969Y-90646009D01*
X154112969Y-90646009D02*
X154160588Y-90741247D01*
X154160588Y-90741247D02*
X154160588Y-90979342D01*
X154160588Y-90979342D02*
X154112969Y-91074580D01*
X154112969Y-91074580D02*
X154065350Y-91122200D01*
X154065350Y-91122200D02*
X153970112Y-91169819D01*
X153970112Y-91169819D02*
X153732017Y-91169819D01*
X153732017Y-91169819D02*
X153636779Y-91122200D01*
X153636779Y-91122200D02*
X153589160Y-91074580D01*
X154446303Y-90169819D02*
X154779636Y-91169819D01*
X154779636Y-91169819D02*
X155112969Y-90169819D01*
X167517438Y-88839411D02*
X167469819Y-88934649D01*
X167469819Y-88934649D02*
X167469819Y-89077506D01*
X167469819Y-89077506D02*
X167517438Y-89220363D01*
X167517438Y-89220363D02*
X167612676Y-89315601D01*
X167612676Y-89315601D02*
X167707914Y-89363220D01*
X167707914Y-89363220D02*
X167898390Y-89410839D01*
X167898390Y-89410839D02*
X168041247Y-89410839D01*
X168041247Y-89410839D02*
X168231723Y-89363220D01*
X168231723Y-89363220D02*
X168326961Y-89315601D01*
X168326961Y-89315601D02*
X168422200Y-89220363D01*
X168422200Y-89220363D02*
X168469819Y-89077506D01*
X168469819Y-89077506D02*
X168469819Y-88982268D01*
X168469819Y-88982268D02*
X168422200Y-88839411D01*
X168422200Y-88839411D02*
X168374580Y-88791792D01*
X168374580Y-88791792D02*
X168041247Y-88791792D01*
X168041247Y-88791792D02*
X168041247Y-88982268D01*
X168469819Y-88363220D02*
X167469819Y-88363220D01*
X167469819Y-88363220D02*
X168469819Y-87791792D01*
X168469819Y-87791792D02*
X167469819Y-87791792D01*
X168469819Y-87315601D02*
X167469819Y-87315601D01*
X167469819Y-87315601D02*
X167469819Y-87077506D01*
X167469819Y-87077506D02*
X167517438Y-86934649D01*
X167517438Y-86934649D02*
X167612676Y-86839411D01*
X167612676Y-86839411D02*
X167707914Y-86791792D01*
X167707914Y-86791792D02*
X167898390Y-86744173D01*
X167898390Y-86744173D02*
X168041247Y-86744173D01*
X168041247Y-86744173D02*
X168231723Y-86791792D01*
X168231723Y-86791792D02*
X168326961Y-86839411D01*
X168326961Y-86839411D02*
X168422200Y-86934649D01*
X168422200Y-86934649D02*
X168469819Y-87077506D01*
X168469819Y-87077506D02*
X168469819Y-87315601D01*
X159160588Y-128017438D02*
X159065350Y-127969819D01*
X159065350Y-127969819D02*
X158922493Y-127969819D01*
X158922493Y-127969819D02*
X158779636Y-128017438D01*
X158779636Y-128017438D02*
X158684398Y-128112676D01*
X158684398Y-128112676D02*
X158636779Y-128207914D01*
X158636779Y-128207914D02*
X158589160Y-128398390D01*
X158589160Y-128398390D02*
X158589160Y-128541247D01*
X158589160Y-128541247D02*
X158636779Y-128731723D01*
X158636779Y-128731723D02*
X158684398Y-128826961D01*
X158684398Y-128826961D02*
X158779636Y-128922200D01*
X158779636Y-128922200D02*
X158922493Y-128969819D01*
X158922493Y-128969819D02*
X159017731Y-128969819D01*
X159017731Y-128969819D02*
X159160588Y-128922200D01*
X159160588Y-128922200D02*
X159208207Y-128874580D01*
X159208207Y-128874580D02*
X159208207Y-128541247D01*
X159208207Y-128541247D02*
X159017731Y-128541247D01*
X159636779Y-128969819D02*
X159636779Y-127969819D01*
X159636779Y-127969819D02*
X160208207Y-128969819D01*
X160208207Y-128969819D02*
X160208207Y-127969819D01*
X160684398Y-128969819D02*
X160684398Y-127969819D01*
X160684398Y-127969819D02*
X160922493Y-127969819D01*
X160922493Y-127969819D02*
X161065350Y-128017438D01*
X161065350Y-128017438D02*
X161160588Y-128112676D01*
X161160588Y-128112676D02*
X161208207Y-128207914D01*
X161208207Y-128207914D02*
X161255826Y-128398390D01*
X161255826Y-128398390D02*
X161255826Y-128541247D01*
X161255826Y-128541247D02*
X161208207Y-128731723D01*
X161208207Y-128731723D02*
X161160588Y-128826961D01*
X161160588Y-128826961D02*
X161065350Y-128922200D01*
X161065350Y-128922200D02*
X160922493Y-128969819D01*
X160922493Y-128969819D02*
X160684398Y-128969819D01*
X166136779Y-116288866D02*
X166898684Y-116288866D01*
X147741541Y-133469819D02*
X148360588Y-133469819D01*
X148360588Y-133469819D02*
X148027255Y-133850771D01*
X148027255Y-133850771D02*
X148170112Y-133850771D01*
X148170112Y-133850771D02*
X148265350Y-133898390D01*
X148265350Y-133898390D02*
X148312969Y-133946009D01*
X148312969Y-133946009D02*
X148360588Y-134041247D01*
X148360588Y-134041247D02*
X148360588Y-134279342D01*
X148360588Y-134279342D02*
X148312969Y-134374580D01*
X148312969Y-134374580D02*
X148265350Y-134422200D01*
X148265350Y-134422200D02*
X148170112Y-134469819D01*
X148170112Y-134469819D02*
X147884398Y-134469819D01*
X147884398Y-134469819D02*
X147789160Y-134422200D01*
X147789160Y-134422200D02*
X147741541Y-134374580D01*
X148789160Y-134374580D02*
X148836779Y-134422200D01*
X148836779Y-134422200D02*
X148789160Y-134469819D01*
X148789160Y-134469819D02*
X148741541Y-134422200D01*
X148741541Y-134422200D02*
X148789160Y-134374580D01*
X148789160Y-134374580D02*
X148789160Y-134469819D01*
X149170112Y-133469819D02*
X149789159Y-133469819D01*
X149789159Y-133469819D02*
X149455826Y-133850771D01*
X149455826Y-133850771D02*
X149598683Y-133850771D01*
X149598683Y-133850771D02*
X149693921Y-133898390D01*
X149693921Y-133898390D02*
X149741540Y-133946009D01*
X149741540Y-133946009D02*
X149789159Y-134041247D01*
X149789159Y-134041247D02*
X149789159Y-134279342D01*
X149789159Y-134279342D02*
X149741540Y-134374580D01*
X149741540Y-134374580D02*
X149693921Y-134422200D01*
X149693921Y-134422200D02*
X149598683Y-134469819D01*
X149598683Y-134469819D02*
X149312969Y-134469819D01*
X149312969Y-134469819D02*
X149217731Y-134422200D01*
X149217731Y-134422200D02*
X149170112Y-134374580D01*
X150074874Y-133469819D02*
X150408207Y-134469819D01*
X150408207Y-134469819D02*
X150741540Y-133469819D01*
X147841541Y-90169819D02*
X148460588Y-90169819D01*
X148460588Y-90169819D02*
X148127255Y-90550771D01*
X148127255Y-90550771D02*
X148270112Y-90550771D01*
X148270112Y-90550771D02*
X148365350Y-90598390D01*
X148365350Y-90598390D02*
X148412969Y-90646009D01*
X148412969Y-90646009D02*
X148460588Y-90741247D01*
X148460588Y-90741247D02*
X148460588Y-90979342D01*
X148460588Y-90979342D02*
X148412969Y-91074580D01*
X148412969Y-91074580D02*
X148365350Y-91122200D01*
X148365350Y-91122200D02*
X148270112Y-91169819D01*
X148270112Y-91169819D02*
X147984398Y-91169819D01*
X147984398Y-91169819D02*
X147889160Y-91122200D01*
X147889160Y-91122200D02*
X147841541Y-91074580D01*
X148889160Y-91074580D02*
X148936779Y-91122200D01*
X148936779Y-91122200D02*
X148889160Y-91169819D01*
X148889160Y-91169819D02*
X148841541Y-91122200D01*
X148841541Y-91122200D02*
X148889160Y-91074580D01*
X148889160Y-91074580D02*
X148889160Y-91169819D01*
X149270112Y-90169819D02*
X149889159Y-90169819D01*
X149889159Y-90169819D02*
X149555826Y-90550771D01*
X149555826Y-90550771D02*
X149698683Y-90550771D01*
X149698683Y-90550771D02*
X149793921Y-90598390D01*
X149793921Y-90598390D02*
X149841540Y-90646009D01*
X149841540Y-90646009D02*
X149889159Y-90741247D01*
X149889159Y-90741247D02*
X149889159Y-90979342D01*
X149889159Y-90979342D02*
X149841540Y-91074580D01*
X149841540Y-91074580D02*
X149793921Y-91122200D01*
X149793921Y-91122200D02*
X149698683Y-91169819D01*
X149698683Y-91169819D02*
X149412969Y-91169819D01*
X149412969Y-91169819D02*
X149317731Y-91122200D01*
X149317731Y-91122200D02*
X149270112Y-91074580D01*
X150174874Y-90169819D02*
X150508207Y-91169819D01*
X150508207Y-91169819D02*
X150841540Y-90169819D01*
X158960588Y-96017438D02*
X158865350Y-95969819D01*
X158865350Y-95969819D02*
X158722493Y-95969819D01*
X158722493Y-95969819D02*
X158579636Y-96017438D01*
X158579636Y-96017438D02*
X158484398Y-96112676D01*
X158484398Y-96112676D02*
X158436779Y-96207914D01*
X158436779Y-96207914D02*
X158389160Y-96398390D01*
X158389160Y-96398390D02*
X158389160Y-96541247D01*
X158389160Y-96541247D02*
X158436779Y-96731723D01*
X158436779Y-96731723D02*
X158484398Y-96826961D01*
X158484398Y-96826961D02*
X158579636Y-96922200D01*
X158579636Y-96922200D02*
X158722493Y-96969819D01*
X158722493Y-96969819D02*
X158817731Y-96969819D01*
X158817731Y-96969819D02*
X158960588Y-96922200D01*
X158960588Y-96922200D02*
X159008207Y-96874580D01*
X159008207Y-96874580D02*
X159008207Y-96541247D01*
X159008207Y-96541247D02*
X158817731Y-96541247D01*
X159436779Y-96969819D02*
X159436779Y-95969819D01*
X159436779Y-95969819D02*
X160008207Y-96969819D01*
X160008207Y-96969819D02*
X160008207Y-95969819D01*
X160484398Y-96969819D02*
X160484398Y-95969819D01*
X160484398Y-95969819D02*
X160722493Y-95969819D01*
X160722493Y-95969819D02*
X160865350Y-96017438D01*
X160865350Y-96017438D02*
X160960588Y-96112676D01*
X160960588Y-96112676D02*
X161008207Y-96207914D01*
X161008207Y-96207914D02*
X161055826Y-96398390D01*
X161055826Y-96398390D02*
X161055826Y-96541247D01*
X161055826Y-96541247D02*
X161008207Y-96731723D01*
X161008207Y-96731723D02*
X160960588Y-96826961D01*
X160960588Y-96826961D02*
X160865350Y-96922200D01*
X160865350Y-96922200D02*
X160722493Y-96969819D01*
X160722493Y-96969819D02*
X160484398Y-96969819D01*
X167517438Y-134394411D02*
X167469819Y-134489649D01*
X167469819Y-134489649D02*
X167469819Y-134632506D01*
X167469819Y-134632506D02*
X167517438Y-134775363D01*
X167517438Y-134775363D02*
X167612676Y-134870601D01*
X167612676Y-134870601D02*
X167707914Y-134918220D01*
X167707914Y-134918220D02*
X167898390Y-134965839D01*
X167898390Y-134965839D02*
X168041247Y-134965839D01*
X168041247Y-134965839D02*
X168231723Y-134918220D01*
X168231723Y-134918220D02*
X168326961Y-134870601D01*
X168326961Y-134870601D02*
X168422200Y-134775363D01*
X168422200Y-134775363D02*
X168469819Y-134632506D01*
X168469819Y-134632506D02*
X168469819Y-134537268D01*
X168469819Y-134537268D02*
X168422200Y-134394411D01*
X168422200Y-134394411D02*
X168374580Y-134346792D01*
X168374580Y-134346792D02*
X168041247Y-134346792D01*
X168041247Y-134346792D02*
X168041247Y-134537268D01*
X168469819Y-133918220D02*
X167469819Y-133918220D01*
X167469819Y-133918220D02*
X168469819Y-133346792D01*
X168469819Y-133346792D02*
X167469819Y-133346792D01*
X168469819Y-132870601D02*
X167469819Y-132870601D01*
X167469819Y-132870601D02*
X167469819Y-132632506D01*
X167469819Y-132632506D02*
X167517438Y-132489649D01*
X167517438Y-132489649D02*
X167612676Y-132394411D01*
X167612676Y-132394411D02*
X167707914Y-132346792D01*
X167707914Y-132346792D02*
X167898390Y-132299173D01*
X167898390Y-132299173D02*
X168041247Y-132299173D01*
X168041247Y-132299173D02*
X168231723Y-132346792D01*
X168231723Y-132346792D02*
X168326961Y-132394411D01*
X168326961Y-132394411D02*
X168422200Y-132489649D01*
X168422200Y-132489649D02*
X168469819Y-132632506D01*
X168469819Y-132632506D02*
X168469819Y-132870601D01*
X157927255Y-102169819D02*
X158117731Y-102169819D01*
X158117731Y-102169819D02*
X158212969Y-102217438D01*
X158212969Y-102217438D02*
X158308207Y-102312676D01*
X158308207Y-102312676D02*
X158355826Y-102503152D01*
X158355826Y-102503152D02*
X158355826Y-102836485D01*
X158355826Y-102836485D02*
X158308207Y-103026961D01*
X158308207Y-103026961D02*
X158212969Y-103122200D01*
X158212969Y-103122200D02*
X158117731Y-103169819D01*
X158117731Y-103169819D02*
X157927255Y-103169819D01*
X157927255Y-103169819D02*
X157832017Y-103122200D01*
X157832017Y-103122200D02*
X157736779Y-103026961D01*
X157736779Y-103026961D02*
X157689160Y-102836485D01*
X157689160Y-102836485D02*
X157689160Y-102503152D01*
X157689160Y-102503152D02*
X157736779Y-102312676D01*
X157736779Y-102312676D02*
X157832017Y-102217438D01*
X157832017Y-102217438D02*
X157927255Y-102169819D01*
X159117731Y-102646009D02*
X158784398Y-102646009D01*
X158784398Y-103169819D02*
X158784398Y-102169819D01*
X158784398Y-102169819D02*
X159260588Y-102169819D01*
X159974874Y-102646009D02*
X159641541Y-102646009D01*
X159641541Y-103169819D02*
X159641541Y-102169819D01*
X159641541Y-102169819D02*
X160117731Y-102169819D01*
X154312969Y-133569819D02*
X153836779Y-133569819D01*
X153836779Y-133569819D02*
X153789160Y-134046009D01*
X153789160Y-134046009D02*
X153836779Y-133998390D01*
X153836779Y-133998390D02*
X153932017Y-133950771D01*
X153932017Y-133950771D02*
X154170112Y-133950771D01*
X154170112Y-133950771D02*
X154265350Y-133998390D01*
X154265350Y-133998390D02*
X154312969Y-134046009D01*
X154312969Y-134046009D02*
X154360588Y-134141247D01*
X154360588Y-134141247D02*
X154360588Y-134379342D01*
X154360588Y-134379342D02*
X154312969Y-134474580D01*
X154312969Y-134474580D02*
X154265350Y-134522200D01*
X154265350Y-134522200D02*
X154170112Y-134569819D01*
X154170112Y-134569819D02*
X153932017Y-134569819D01*
X153932017Y-134569819D02*
X153836779Y-134522200D01*
X153836779Y-134522200D02*
X153789160Y-134474580D01*
X154646303Y-133569819D02*
X154979636Y-134569819D01*
X154979636Y-134569819D02*
X155312969Y-133569819D01*
X166136779Y-109788866D02*
X166898684Y-109788866D01*
X166517731Y-110169819D02*
X166517731Y-109407914D01*
X163783333Y-109316033D02*
X163783333Y-108616033D01*
X163783333Y-108616033D02*
X163950000Y-108616033D01*
X163950000Y-108616033D02*
X164050000Y-108649366D01*
X164050000Y-108649366D02*
X164116667Y-108716033D01*
X164116667Y-108716033D02*
X164150000Y-108782700D01*
X164150000Y-108782700D02*
X164183333Y-108916033D01*
X164183333Y-108916033D02*
X164183333Y-109016033D01*
X164183333Y-109016033D02*
X164150000Y-109149366D01*
X164150000Y-109149366D02*
X164116667Y-109216033D01*
X164116667Y-109216033D02*
X164050000Y-109282700D01*
X164050000Y-109282700D02*
X163950000Y-109316033D01*
X163950000Y-109316033D02*
X163783333Y-109316033D01*
X164850000Y-109316033D02*
X164450000Y-109316033D01*
X164650000Y-109316033D02*
X164650000Y-108616033D01*
X164650000Y-108616033D02*
X164583333Y-108716033D01*
X164583333Y-108716033D02*
X164516667Y-108782700D01*
X164516667Y-108782700D02*
X164450000Y-108816033D01*
X163850000Y-117116033D02*
X163516666Y-117116033D01*
X163516666Y-117116033D02*
X163516666Y-116416033D01*
X164083333Y-116749366D02*
X164316667Y-116749366D01*
X164416667Y-117116033D02*
X164083333Y-117116033D01*
X164083333Y-117116033D02*
X164083333Y-116416033D01*
X164083333Y-116416033D02*
X164416667Y-116416033D01*
X164716666Y-117116033D02*
X164716666Y-116416033D01*
X164716666Y-116416033D02*
X164883333Y-116416033D01*
X164883333Y-116416033D02*
X164983333Y-116449366D01*
X164983333Y-116449366D02*
X165050000Y-116516033D01*
X165050000Y-116516033D02*
X165083333Y-116582700D01*
X165083333Y-116582700D02*
X165116666Y-116716033D01*
X165116666Y-116716033D02*
X165116666Y-116816033D01*
X165116666Y-116816033D02*
X165083333Y-116949366D01*
X165083333Y-116949366D02*
X165050000Y-117016033D01*
X165050000Y-117016033D02*
X164983333Y-117082700D01*
X164983333Y-117082700D02*
X164883333Y-117116033D01*
X164883333Y-117116033D02*
X164716666Y-117116033D01*
X143483333Y-130649366D02*
X143450000Y-130682700D01*
X143450000Y-130682700D02*
X143350000Y-130716033D01*
X143350000Y-130716033D02*
X143283333Y-130716033D01*
X143283333Y-130716033D02*
X143183333Y-130682700D01*
X143183333Y-130682700D02*
X143116667Y-130616033D01*
X143116667Y-130616033D02*
X143083333Y-130549366D01*
X143083333Y-130549366D02*
X143050000Y-130416033D01*
X143050000Y-130416033D02*
X143050000Y-130316033D01*
X143050000Y-130316033D02*
X143083333Y-130182700D01*
X143083333Y-130182700D02*
X143116667Y-130116033D01*
X143116667Y-130116033D02*
X143183333Y-130049366D01*
X143183333Y-130049366D02*
X143283333Y-130016033D01*
X143283333Y-130016033D02*
X143350000Y-130016033D01*
X143350000Y-130016033D02*
X143450000Y-130049366D01*
X143450000Y-130049366D02*
X143483333Y-130082700D01*
X143750000Y-130082700D02*
X143783333Y-130049366D01*
X143783333Y-130049366D02*
X143850000Y-130016033D01*
X143850000Y-130016033D02*
X144016667Y-130016033D01*
X144016667Y-130016033D02*
X144083333Y-130049366D01*
X144083333Y-130049366D02*
X144116667Y-130082700D01*
X144116667Y-130082700D02*
X144150000Y-130149366D01*
X144150000Y-130149366D02*
X144150000Y-130216033D01*
X144150000Y-130216033D02*
X144116667Y-130316033D01*
X144116667Y-130316033D02*
X143716667Y-130716033D01*
X143716667Y-130716033D02*
X144150000Y-130716033D01*
X147183333Y-130716033D02*
X146783333Y-130716033D01*
X146983333Y-130716033D02*
X146983333Y-130016033D01*
X146983333Y-130016033D02*
X146916666Y-130116033D01*
X146916666Y-130116033D02*
X146850000Y-130182700D01*
X146850000Y-130182700D02*
X146783333Y-130216033D01*
X147783333Y-130249366D02*
X147783333Y-130716033D01*
X147483333Y-130249366D02*
X147483333Y-130616033D01*
X147483333Y-130616033D02*
X147516667Y-130682700D01*
X147516667Y-130682700D02*
X147583333Y-130716033D01*
X147583333Y-130716033D02*
X147683333Y-130716033D01*
X147683333Y-130716033D02*
X147750000Y-130682700D01*
X147750000Y-130682700D02*
X147783333Y-130649366D01*
X146366666Y-87916033D02*
X146366666Y-88416033D01*
X146366666Y-88416033D02*
X146333333Y-88516033D01*
X146333333Y-88516033D02*
X146266666Y-88582700D01*
X146266666Y-88582700D02*
X146166666Y-88616033D01*
X146166666Y-88616033D02*
X146100000Y-88616033D01*
X146633333Y-87916033D02*
X147066666Y-87916033D01*
X147066666Y-87916033D02*
X146833333Y-88182700D01*
X146833333Y-88182700D02*
X146933333Y-88182700D01*
X146933333Y-88182700D02*
X146999999Y-88216033D01*
X146999999Y-88216033D02*
X147033333Y-88249366D01*
X147033333Y-88249366D02*
X147066666Y-88316033D01*
X147066666Y-88316033D02*
X147066666Y-88482700D01*
X147066666Y-88482700D02*
X147033333Y-88549366D01*
X147033333Y-88549366D02*
X146999999Y-88582700D01*
X146999999Y-88582700D02*
X146933333Y-88616033D01*
X146933333Y-88616033D02*
X146733333Y-88616033D01*
X146733333Y-88616033D02*
X146666666Y-88582700D01*
X146666666Y-88582700D02*
X146633333Y-88549366D01*
X162683333Y-127516033D02*
X162450000Y-127182700D01*
X162283333Y-127516033D02*
X162283333Y-126816033D01*
X162283333Y-126816033D02*
X162550000Y-126816033D01*
X162550000Y-126816033D02*
X162616667Y-126849366D01*
X162616667Y-126849366D02*
X162650000Y-126882700D01*
X162650000Y-126882700D02*
X162683333Y-126949366D01*
X162683333Y-126949366D02*
X162683333Y-127049366D01*
X162683333Y-127049366D02*
X162650000Y-127116033D01*
X162650000Y-127116033D02*
X162616667Y-127149366D01*
X162616667Y-127149366D02*
X162550000Y-127182700D01*
X162550000Y-127182700D02*
X162283333Y-127182700D01*
X162950000Y-126882700D02*
X162983333Y-126849366D01*
X162983333Y-126849366D02*
X163050000Y-126816033D01*
X163050000Y-126816033D02*
X163216667Y-126816033D01*
X163216667Y-126816033D02*
X163283333Y-126849366D01*
X163283333Y-126849366D02*
X163316667Y-126882700D01*
X163316667Y-126882700D02*
X163350000Y-126949366D01*
X163350000Y-126949366D02*
X163350000Y-127016033D01*
X163350000Y-127016033D02*
X163316667Y-127116033D01*
X163316667Y-127116033D02*
X162916667Y-127516033D01*
X162916667Y-127516033D02*
X163350000Y-127516033D01*
X159200000Y-119416033D02*
X159633333Y-119416033D01*
X159633333Y-119416033D02*
X159400000Y-119682700D01*
X159400000Y-119682700D02*
X159500000Y-119682700D01*
X159500000Y-119682700D02*
X159566666Y-119716033D01*
X159566666Y-119716033D02*
X159600000Y-119749366D01*
X159600000Y-119749366D02*
X159633333Y-119816033D01*
X159633333Y-119816033D02*
X159633333Y-119982700D01*
X159633333Y-119982700D02*
X159600000Y-120049366D01*
X159600000Y-120049366D02*
X159566666Y-120082700D01*
X159566666Y-120082700D02*
X159500000Y-120116033D01*
X159500000Y-120116033D02*
X159300000Y-120116033D01*
X159300000Y-120116033D02*
X159233333Y-120082700D01*
X159233333Y-120082700D02*
X159200000Y-120049366D01*
X159866667Y-119416033D02*
X160300000Y-119416033D01*
X160300000Y-119416033D02*
X160066667Y-119682700D01*
X160066667Y-119682700D02*
X160166667Y-119682700D01*
X160166667Y-119682700D02*
X160233333Y-119716033D01*
X160233333Y-119716033D02*
X160266667Y-119749366D01*
X160266667Y-119749366D02*
X160300000Y-119816033D01*
X160300000Y-119816033D02*
X160300000Y-119982700D01*
X160300000Y-119982700D02*
X160266667Y-120049366D01*
X160266667Y-120049366D02*
X160233333Y-120082700D01*
X160233333Y-120082700D02*
X160166667Y-120116033D01*
X160166667Y-120116033D02*
X159966667Y-120116033D01*
X159966667Y-120116033D02*
X159900000Y-120082700D01*
X159900000Y-120082700D02*
X159866667Y-120049366D01*
X160733334Y-119416033D02*
X160800000Y-119416033D01*
X160800000Y-119416033D02*
X160866667Y-119449366D01*
X160866667Y-119449366D02*
X160900000Y-119482700D01*
X160900000Y-119482700D02*
X160933334Y-119549366D01*
X160933334Y-119549366D02*
X160966667Y-119682700D01*
X160966667Y-119682700D02*
X160966667Y-119849366D01*
X160966667Y-119849366D02*
X160933334Y-119982700D01*
X160933334Y-119982700D02*
X160900000Y-120049366D01*
X160900000Y-120049366D02*
X160866667Y-120082700D01*
X160866667Y-120082700D02*
X160800000Y-120116033D01*
X160800000Y-120116033D02*
X160733334Y-120116033D01*
X160733334Y-120116033D02*
X160666667Y-120082700D01*
X160666667Y-120082700D02*
X160633334Y-120049366D01*
X160633334Y-120049366D02*
X160600000Y-119982700D01*
X160600000Y-119982700D02*
X160566667Y-119849366D01*
X160566667Y-119849366D02*
X160566667Y-119682700D01*
X160566667Y-119682700D02*
X160600000Y-119549366D01*
X160600000Y-119549366D02*
X160633334Y-119482700D01*
X160633334Y-119482700D02*
X160666667Y-119449366D01*
X160666667Y-119449366D02*
X160733334Y-119416033D01*
X164983333Y-106816033D02*
X164750000Y-106482700D01*
X164583333Y-106816033D02*
X164583333Y-106116033D01*
X164583333Y-106116033D02*
X164850000Y-106116033D01*
X164850000Y-106116033D02*
X164916667Y-106149366D01*
X164916667Y-106149366D02*
X164950000Y-106182700D01*
X164950000Y-106182700D02*
X164983333Y-106249366D01*
X164983333Y-106249366D02*
X164983333Y-106349366D01*
X164983333Y-106349366D02*
X164950000Y-106416033D01*
X164950000Y-106416033D02*
X164916667Y-106449366D01*
X164916667Y-106449366D02*
X164850000Y-106482700D01*
X164850000Y-106482700D02*
X164583333Y-106482700D01*
X165650000Y-106816033D02*
X165250000Y-106816033D01*
X165450000Y-106816033D02*
X165450000Y-106116033D01*
X165450000Y-106116033D02*
X165383333Y-106216033D01*
X165383333Y-106216033D02*
X165316667Y-106282700D01*
X165316667Y-106282700D02*
X165250000Y-106316033D01*
X156700000Y-105916033D02*
X157133333Y-105916033D01*
X157133333Y-105916033D02*
X156900000Y-106182700D01*
X156900000Y-106182700D02*
X157000000Y-106182700D01*
X157000000Y-106182700D02*
X157066666Y-106216033D01*
X157066666Y-106216033D02*
X157100000Y-106249366D01*
X157100000Y-106249366D02*
X157133333Y-106316033D01*
X157133333Y-106316033D02*
X157133333Y-106482700D01*
X157133333Y-106482700D02*
X157100000Y-106549366D01*
X157100000Y-106549366D02*
X157066666Y-106582700D01*
X157066666Y-106582700D02*
X157000000Y-106616033D01*
X157000000Y-106616033D02*
X156800000Y-106616033D01*
X156800000Y-106616033D02*
X156733333Y-106582700D01*
X156733333Y-106582700D02*
X156700000Y-106549366D01*
X157366667Y-105916033D02*
X157800000Y-105916033D01*
X157800000Y-105916033D02*
X157566667Y-106182700D01*
X157566667Y-106182700D02*
X157666667Y-106182700D01*
X157666667Y-106182700D02*
X157733333Y-106216033D01*
X157733333Y-106216033D02*
X157766667Y-106249366D01*
X157766667Y-106249366D02*
X157800000Y-106316033D01*
X157800000Y-106316033D02*
X157800000Y-106482700D01*
X157800000Y-106482700D02*
X157766667Y-106549366D01*
X157766667Y-106549366D02*
X157733333Y-106582700D01*
X157733333Y-106582700D02*
X157666667Y-106616033D01*
X157666667Y-106616033D02*
X157466667Y-106616033D01*
X157466667Y-106616033D02*
X157400000Y-106582700D01*
X157400000Y-106582700D02*
X157366667Y-106549366D01*
X158233334Y-105916033D02*
X158300000Y-105916033D01*
X158300000Y-105916033D02*
X158366667Y-105949366D01*
X158366667Y-105949366D02*
X158400000Y-105982700D01*
X158400000Y-105982700D02*
X158433334Y-106049366D01*
X158433334Y-106049366D02*
X158466667Y-106182700D01*
X158466667Y-106182700D02*
X158466667Y-106349366D01*
X158466667Y-106349366D02*
X158433334Y-106482700D01*
X158433334Y-106482700D02*
X158400000Y-106549366D01*
X158400000Y-106549366D02*
X158366667Y-106582700D01*
X158366667Y-106582700D02*
X158300000Y-106616033D01*
X158300000Y-106616033D02*
X158233334Y-106616033D01*
X158233334Y-106616033D02*
X158166667Y-106582700D01*
X158166667Y-106582700D02*
X158133334Y-106549366D01*
X158133334Y-106549366D02*
X158100000Y-106482700D01*
X158100000Y-106482700D02*
X158066667Y-106349366D01*
X158066667Y-106349366D02*
X158066667Y-106182700D01*
X158066667Y-106182700D02*
X158100000Y-106049366D01*
X158100000Y-106049366D02*
X158133334Y-105982700D01*
X158133334Y-105982700D02*
X158166667Y-105949366D01*
X158166667Y-105949366D02*
X158233334Y-105916033D01*
X153383333Y-94749366D02*
X153350000Y-94782700D01*
X153350000Y-94782700D02*
X153250000Y-94816033D01*
X153250000Y-94816033D02*
X153183333Y-94816033D01*
X153183333Y-94816033D02*
X153083333Y-94782700D01*
X153083333Y-94782700D02*
X153016667Y-94716033D01*
X153016667Y-94716033D02*
X152983333Y-94649366D01*
X152983333Y-94649366D02*
X152950000Y-94516033D01*
X152950000Y-94516033D02*
X152950000Y-94416033D01*
X152950000Y-94416033D02*
X152983333Y-94282700D01*
X152983333Y-94282700D02*
X153016667Y-94216033D01*
X153016667Y-94216033D02*
X153083333Y-94149366D01*
X153083333Y-94149366D02*
X153183333Y-94116033D01*
X153183333Y-94116033D02*
X153250000Y-94116033D01*
X153250000Y-94116033D02*
X153350000Y-94149366D01*
X153350000Y-94149366D02*
X153383333Y-94182700D01*
X154050000Y-94816033D02*
X153650000Y-94816033D01*
X153850000Y-94816033D02*
X153850000Y-94116033D01*
X153850000Y-94116033D02*
X153783333Y-94216033D01*
X153783333Y-94216033D02*
X153716667Y-94282700D01*
X153716667Y-94282700D02*
X153650000Y-94316033D01*
X149850000Y-94816033D02*
X149450000Y-94816033D01*
X149650000Y-94816033D02*
X149650000Y-94116033D01*
X149650000Y-94116033D02*
X149583333Y-94216033D01*
X149583333Y-94216033D02*
X149516667Y-94282700D01*
X149516667Y-94282700D02*
X149450000Y-94316033D01*
X150283334Y-94116033D02*
X150350000Y-94116033D01*
X150350000Y-94116033D02*
X150416667Y-94149366D01*
X150416667Y-94149366D02*
X150450000Y-94182700D01*
X150450000Y-94182700D02*
X150483334Y-94249366D01*
X150483334Y-94249366D02*
X150516667Y-94382700D01*
X150516667Y-94382700D02*
X150516667Y-94549366D01*
X150516667Y-94549366D02*
X150483334Y-94682700D01*
X150483334Y-94682700D02*
X150450000Y-94749366D01*
X150450000Y-94749366D02*
X150416667Y-94782700D01*
X150416667Y-94782700D02*
X150350000Y-94816033D01*
X150350000Y-94816033D02*
X150283334Y-94816033D01*
X150283334Y-94816033D02*
X150216667Y-94782700D01*
X150216667Y-94782700D02*
X150183334Y-94749366D01*
X150183334Y-94749366D02*
X150150000Y-94682700D01*
X150150000Y-94682700D02*
X150116667Y-94549366D01*
X150116667Y-94549366D02*
X150116667Y-94382700D01*
X150116667Y-94382700D02*
X150150000Y-94249366D01*
X150150000Y-94249366D02*
X150183334Y-94182700D01*
X150183334Y-94182700D02*
X150216667Y-94149366D01*
X150216667Y-94149366D02*
X150283334Y-94116033D01*
X151116667Y-94349366D02*
X151116667Y-94816033D01*
X150816667Y-94349366D02*
X150816667Y-94716033D01*
X150816667Y-94716033D02*
X150850001Y-94782700D01*
X150850001Y-94782700D02*
X150916667Y-94816033D01*
X150916667Y-94816033D02*
X151016667Y-94816033D01*
X151016667Y-94816033D02*
X151083334Y-94782700D01*
X151083334Y-94782700D02*
X151116667Y-94749366D01*
X147683333Y-94749366D02*
X147650000Y-94782700D01*
X147650000Y-94782700D02*
X147550000Y-94816033D01*
X147550000Y-94816033D02*
X147483333Y-94816033D01*
X147483333Y-94816033D02*
X147383333Y-94782700D01*
X147383333Y-94782700D02*
X147316667Y-94716033D01*
X147316667Y-94716033D02*
X147283333Y-94649366D01*
X147283333Y-94649366D02*
X147250000Y-94516033D01*
X147250000Y-94516033D02*
X147250000Y-94416033D01*
X147250000Y-94416033D02*
X147283333Y-94282700D01*
X147283333Y-94282700D02*
X147316667Y-94216033D01*
X147316667Y-94216033D02*
X147383333Y-94149366D01*
X147383333Y-94149366D02*
X147483333Y-94116033D01*
X147483333Y-94116033D02*
X147550000Y-94116033D01*
X147550000Y-94116033D02*
X147650000Y-94149366D01*
X147650000Y-94149366D02*
X147683333Y-94182700D01*
X147916667Y-94116033D02*
X148350000Y-94116033D01*
X148350000Y-94116033D02*
X148116667Y-94382700D01*
X148116667Y-94382700D02*
X148216667Y-94382700D01*
X148216667Y-94382700D02*
X148283333Y-94416033D01*
X148283333Y-94416033D02*
X148316667Y-94449366D01*
X148316667Y-94449366D02*
X148350000Y-94516033D01*
X148350000Y-94516033D02*
X148350000Y-94682700D01*
X148350000Y-94682700D02*
X148316667Y-94749366D01*
X148316667Y-94749366D02*
X148283333Y-94782700D01*
X148283333Y-94782700D02*
X148216667Y-94816033D01*
X148216667Y-94816033D02*
X148016667Y-94816033D01*
X148016667Y-94816033D02*
X147950000Y-94782700D01*
X147950000Y-94782700D02*
X147916667Y-94749366D01*
X143850000Y-94116033D02*
X143916666Y-94116033D01*
X143916666Y-94116033D02*
X143983333Y-94149366D01*
X143983333Y-94149366D02*
X144016666Y-94182700D01*
X144016666Y-94182700D02*
X144050000Y-94249366D01*
X144050000Y-94249366D02*
X144083333Y-94382700D01*
X144083333Y-94382700D02*
X144083333Y-94549366D01*
X144083333Y-94549366D02*
X144050000Y-94682700D01*
X144050000Y-94682700D02*
X144016666Y-94749366D01*
X144016666Y-94749366D02*
X143983333Y-94782700D01*
X143983333Y-94782700D02*
X143916666Y-94816033D01*
X143916666Y-94816033D02*
X143850000Y-94816033D01*
X143850000Y-94816033D02*
X143783333Y-94782700D01*
X143783333Y-94782700D02*
X143750000Y-94749366D01*
X143750000Y-94749366D02*
X143716666Y-94682700D01*
X143716666Y-94682700D02*
X143683333Y-94549366D01*
X143683333Y-94549366D02*
X143683333Y-94382700D01*
X143683333Y-94382700D02*
X143716666Y-94249366D01*
X143716666Y-94249366D02*
X143750000Y-94182700D01*
X143750000Y-94182700D02*
X143783333Y-94149366D01*
X143783333Y-94149366D02*
X143850000Y-94116033D01*
X144383333Y-94749366D02*
X144416667Y-94782700D01*
X144416667Y-94782700D02*
X144383333Y-94816033D01*
X144383333Y-94816033D02*
X144350000Y-94782700D01*
X144350000Y-94782700D02*
X144383333Y-94749366D01*
X144383333Y-94749366D02*
X144383333Y-94816033D01*
X145083333Y-94816033D02*
X144683333Y-94816033D01*
X144883333Y-94816033D02*
X144883333Y-94116033D01*
X144883333Y-94116033D02*
X144816666Y-94216033D01*
X144816666Y-94216033D02*
X144750000Y-94282700D01*
X144750000Y-94282700D02*
X144683333Y-94316033D01*
X145683333Y-94349366D02*
X145683333Y-94816033D01*
X145383333Y-94349366D02*
X145383333Y-94716033D01*
X145383333Y-94716033D02*
X145416667Y-94782700D01*
X145416667Y-94782700D02*
X145483333Y-94816033D01*
X145483333Y-94816033D02*
X145583333Y-94816033D01*
X145583333Y-94816033D02*
X145650000Y-94782700D01*
X145650000Y-94782700D02*
X145683333Y-94749366D01*
X167666666Y-136231033D02*
X167666666Y-136731033D01*
X167666666Y-136731033D02*
X167633333Y-136831033D01*
X167633333Y-136831033D02*
X167566666Y-136897700D01*
X167566666Y-136897700D02*
X167466666Y-136931033D01*
X167466666Y-136931033D02*
X167400000Y-136931033D01*
X168299999Y-136231033D02*
X168166666Y-136231033D01*
X168166666Y-136231033D02*
X168099999Y-136264366D01*
X168099999Y-136264366D02*
X168066666Y-136297700D01*
X168066666Y-136297700D02*
X167999999Y-136397700D01*
X167999999Y-136397700D02*
X167966666Y-136531033D01*
X167966666Y-136531033D02*
X167966666Y-136797700D01*
X167966666Y-136797700D02*
X167999999Y-136864366D01*
X167999999Y-136864366D02*
X168033333Y-136897700D01*
X168033333Y-136897700D02*
X168099999Y-136931033D01*
X168099999Y-136931033D02*
X168233333Y-136931033D01*
X168233333Y-136931033D02*
X168299999Y-136897700D01*
X168299999Y-136897700D02*
X168333333Y-136864366D01*
X168333333Y-136864366D02*
X168366666Y-136797700D01*
X168366666Y-136797700D02*
X168366666Y-136631033D01*
X168366666Y-136631033D02*
X168333333Y-136564366D01*
X168333333Y-136564366D02*
X168299999Y-136531033D01*
X168299999Y-136531033D02*
X168233333Y-136497700D01*
X168233333Y-136497700D02*
X168099999Y-136497700D01*
X168099999Y-136497700D02*
X168033333Y-136531033D01*
X168033333Y-136531033D02*
X167999999Y-136564366D01*
X167999999Y-136564366D02*
X167966666Y-136631033D01*
X155266666Y-93316033D02*
X155266666Y-93816033D01*
X155266666Y-93816033D02*
X155233333Y-93916033D01*
X155233333Y-93916033D02*
X155166666Y-93982700D01*
X155166666Y-93982700D02*
X155066666Y-94016033D01*
X155066666Y-94016033D02*
X155000000Y-94016033D01*
X155566666Y-93382700D02*
X155599999Y-93349366D01*
X155599999Y-93349366D02*
X155666666Y-93316033D01*
X155666666Y-93316033D02*
X155833333Y-93316033D01*
X155833333Y-93316033D02*
X155899999Y-93349366D01*
X155899999Y-93349366D02*
X155933333Y-93382700D01*
X155933333Y-93382700D02*
X155966666Y-93449366D01*
X155966666Y-93449366D02*
X155966666Y-93516033D01*
X155966666Y-93516033D02*
X155933333Y-93616033D01*
X155933333Y-93616033D02*
X155533333Y-94016033D01*
X155533333Y-94016033D02*
X155966666Y-94016033D01*
X148776666Y-117443533D02*
X148776666Y-117943533D01*
X148776666Y-117943533D02*
X148743333Y-118043533D01*
X148743333Y-118043533D02*
X148676666Y-118110200D01*
X148676666Y-118110200D02*
X148576666Y-118143533D01*
X148576666Y-118143533D02*
X148510000Y-118143533D01*
X149476666Y-118143533D02*
X149076666Y-118143533D01*
X149276666Y-118143533D02*
X149276666Y-117443533D01*
X149276666Y-117443533D02*
X149209999Y-117543533D01*
X149209999Y-117543533D02*
X149143333Y-117610200D01*
X149143333Y-117610200D02*
X149076666Y-117643533D01*
X143633335Y-106849366D02*
X143733335Y-106882700D01*
X143733335Y-106882700D02*
X143766668Y-106916033D01*
X143766668Y-106916033D02*
X143800001Y-106982700D01*
X143800001Y-106982700D02*
X143800001Y-107082700D01*
X143800001Y-107082700D02*
X143766668Y-107149366D01*
X143766668Y-107149366D02*
X143733335Y-107182700D01*
X143733335Y-107182700D02*
X143666668Y-107216033D01*
X143666668Y-107216033D02*
X143400001Y-107216033D01*
X143400001Y-107216033D02*
X143400001Y-106516033D01*
X143400001Y-106516033D02*
X143633335Y-106516033D01*
X143633335Y-106516033D02*
X143700001Y-106549366D01*
X143700001Y-106549366D02*
X143733335Y-106582700D01*
X143733335Y-106582700D02*
X143766668Y-106649366D01*
X143766668Y-106649366D02*
X143766668Y-106716033D01*
X143766668Y-106716033D02*
X143733335Y-106782700D01*
X143733335Y-106782700D02*
X143700001Y-106816033D01*
X143700001Y-106816033D02*
X143633335Y-106849366D01*
X143633335Y-106849366D02*
X143400001Y-106849366D01*
X144400001Y-107216033D02*
X144400001Y-106849366D01*
X144400001Y-106849366D02*
X144366668Y-106782700D01*
X144366668Y-106782700D02*
X144300001Y-106749366D01*
X144300001Y-106749366D02*
X144166668Y-106749366D01*
X144166668Y-106749366D02*
X144100001Y-106782700D01*
X144400001Y-107182700D02*
X144333335Y-107216033D01*
X144333335Y-107216033D02*
X144166668Y-107216033D01*
X144166668Y-107216033D02*
X144100001Y-107182700D01*
X144100001Y-107182700D02*
X144066668Y-107116033D01*
X144066668Y-107116033D02*
X144066668Y-107049366D01*
X144066668Y-107049366D02*
X144100001Y-106982700D01*
X144100001Y-106982700D02*
X144166668Y-106949366D01*
X144166668Y-106949366D02*
X144333335Y-106949366D01*
X144333335Y-106949366D02*
X144400001Y-106916033D01*
X144733334Y-107216033D02*
X144733334Y-106749366D01*
X144733334Y-106882700D02*
X144766668Y-106816033D01*
X144766668Y-106816033D02*
X144800001Y-106782700D01*
X144800001Y-106782700D02*
X144866668Y-106749366D01*
X144866668Y-106749366D02*
X144933334Y-106749366D01*
X145166667Y-107216033D02*
X145166667Y-106749366D01*
X145166667Y-106882700D02*
X145200001Y-106816033D01*
X145200001Y-106816033D02*
X145233334Y-106782700D01*
X145233334Y-106782700D02*
X145300001Y-106749366D01*
X145300001Y-106749366D02*
X145366667Y-106749366D01*
X145866667Y-107182700D02*
X145800000Y-107216033D01*
X145800000Y-107216033D02*
X145666667Y-107216033D01*
X145666667Y-107216033D02*
X145600000Y-107182700D01*
X145600000Y-107182700D02*
X145566667Y-107116033D01*
X145566667Y-107116033D02*
X145566667Y-106849366D01*
X145566667Y-106849366D02*
X145600000Y-106782700D01*
X145600000Y-106782700D02*
X145666667Y-106749366D01*
X145666667Y-106749366D02*
X145800000Y-106749366D01*
X145800000Y-106749366D02*
X145866667Y-106782700D01*
X145866667Y-106782700D02*
X145900000Y-106849366D01*
X145900000Y-106849366D02*
X145900000Y-106916033D01*
X145900000Y-106916033D02*
X145566667Y-106982700D01*
X146300000Y-107216033D02*
X146233334Y-107182700D01*
X146233334Y-107182700D02*
X146200000Y-107116033D01*
X146200000Y-107116033D02*
X146200000Y-106516033D01*
X146400001Y-107282700D02*
X146933334Y-107282700D01*
X147300000Y-106516033D02*
X147300000Y-107016033D01*
X147300000Y-107016033D02*
X147266667Y-107116033D01*
X147266667Y-107116033D02*
X147200000Y-107182700D01*
X147200000Y-107182700D02*
X147100000Y-107216033D01*
X147100000Y-107216033D02*
X147033334Y-107216033D01*
X147933333Y-107216033D02*
X147933333Y-106849366D01*
X147933333Y-106849366D02*
X147900000Y-106782700D01*
X147900000Y-106782700D02*
X147833333Y-106749366D01*
X147833333Y-106749366D02*
X147700000Y-106749366D01*
X147700000Y-106749366D02*
X147633333Y-106782700D01*
X147933333Y-107182700D02*
X147866667Y-107216033D01*
X147866667Y-107216033D02*
X147700000Y-107216033D01*
X147700000Y-107216033D02*
X147633333Y-107182700D01*
X147633333Y-107182700D02*
X147600000Y-107116033D01*
X147600000Y-107116033D02*
X147600000Y-107049366D01*
X147600000Y-107049366D02*
X147633333Y-106982700D01*
X147633333Y-106982700D02*
X147700000Y-106949366D01*
X147700000Y-106949366D02*
X147866667Y-106949366D01*
X147866667Y-106949366D02*
X147933333Y-106916033D01*
X148566666Y-107182700D02*
X148500000Y-107216033D01*
X148500000Y-107216033D02*
X148366666Y-107216033D01*
X148366666Y-107216033D02*
X148300000Y-107182700D01*
X148300000Y-107182700D02*
X148266666Y-107149366D01*
X148266666Y-107149366D02*
X148233333Y-107082700D01*
X148233333Y-107082700D02*
X148233333Y-106882700D01*
X148233333Y-106882700D02*
X148266666Y-106816033D01*
X148266666Y-106816033D02*
X148300000Y-106782700D01*
X148300000Y-106782700D02*
X148366666Y-106749366D01*
X148366666Y-106749366D02*
X148500000Y-106749366D01*
X148500000Y-106749366D02*
X148566666Y-106782700D01*
X148866666Y-107216033D02*
X148866666Y-106516033D01*
X148933333Y-106949366D02*
X149133333Y-107216033D01*
X149133333Y-106749366D02*
X148866666Y-107016033D01*
X149266667Y-107282700D02*
X149800000Y-107282700D01*
X149933333Y-107182700D02*
X150033333Y-107216033D01*
X150033333Y-107216033D02*
X150200000Y-107216033D01*
X150200000Y-107216033D02*
X150266666Y-107182700D01*
X150266666Y-107182700D02*
X150300000Y-107149366D01*
X150300000Y-107149366D02*
X150333333Y-107082700D01*
X150333333Y-107082700D02*
X150333333Y-107016033D01*
X150333333Y-107016033D02*
X150300000Y-106949366D01*
X150300000Y-106949366D02*
X150266666Y-106916033D01*
X150266666Y-106916033D02*
X150200000Y-106882700D01*
X150200000Y-106882700D02*
X150066666Y-106849366D01*
X150066666Y-106849366D02*
X150000000Y-106816033D01*
X150000000Y-106816033D02*
X149966666Y-106782700D01*
X149966666Y-106782700D02*
X149933333Y-106716033D01*
X149933333Y-106716033D02*
X149933333Y-106649366D01*
X149933333Y-106649366D02*
X149966666Y-106582700D01*
X149966666Y-106582700D02*
X150000000Y-106549366D01*
X150000000Y-106549366D02*
X150066666Y-106516033D01*
X150066666Y-106516033D02*
X150233333Y-106516033D01*
X150233333Y-106516033D02*
X150333333Y-106549366D01*
X150566667Y-106749366D02*
X150700000Y-107216033D01*
X150700000Y-107216033D02*
X150833333Y-106882700D01*
X150833333Y-106882700D02*
X150966667Y-107216033D01*
X150966667Y-107216033D02*
X151100000Y-106749366D01*
X151366666Y-107216033D02*
X151366666Y-106749366D01*
X151366666Y-106516033D02*
X151333333Y-106549366D01*
X151333333Y-106549366D02*
X151366666Y-106582700D01*
X151366666Y-106582700D02*
X151400000Y-106549366D01*
X151400000Y-106549366D02*
X151366666Y-106516033D01*
X151366666Y-106516033D02*
X151366666Y-106582700D01*
X151599999Y-106749366D02*
X151866666Y-106749366D01*
X151699999Y-106516033D02*
X151699999Y-107116033D01*
X151699999Y-107116033D02*
X151733333Y-107182700D01*
X151733333Y-107182700D02*
X151799999Y-107216033D01*
X151799999Y-107216033D02*
X151866666Y-107216033D01*
X152399999Y-107182700D02*
X152333333Y-107216033D01*
X152333333Y-107216033D02*
X152199999Y-107216033D01*
X152199999Y-107216033D02*
X152133333Y-107182700D01*
X152133333Y-107182700D02*
X152099999Y-107149366D01*
X152099999Y-107149366D02*
X152066666Y-107082700D01*
X152066666Y-107082700D02*
X152066666Y-106882700D01*
X152066666Y-106882700D02*
X152099999Y-106816033D01*
X152099999Y-106816033D02*
X152133333Y-106782700D01*
X152133333Y-106782700D02*
X152199999Y-106749366D01*
X152199999Y-106749366D02*
X152333333Y-106749366D01*
X152333333Y-106749366D02*
X152399999Y-106782700D01*
X152699999Y-107216033D02*
X152699999Y-106516033D01*
X152999999Y-107216033D02*
X152999999Y-106849366D01*
X152999999Y-106849366D02*
X152966666Y-106782700D01*
X152966666Y-106782700D02*
X152899999Y-106749366D01*
X152899999Y-106749366D02*
X152799999Y-106749366D01*
X152799999Y-106749366D02*
X152733333Y-106782700D01*
X152733333Y-106782700D02*
X152699999Y-106816033D01*
X167766666Y-90391033D02*
X167766666Y-90891033D01*
X167766666Y-90891033D02*
X167733333Y-90991033D01*
X167733333Y-90991033D02*
X167666666Y-91057700D01*
X167666666Y-91057700D02*
X167566666Y-91091033D01*
X167566666Y-91091033D02*
X167500000Y-91091033D01*
X168399999Y-90624366D02*
X168399999Y-91091033D01*
X168233333Y-90357700D02*
X168066666Y-90857700D01*
X168066666Y-90857700D02*
X168499999Y-90857700D01*
X162683333Y-120116033D02*
X162450000Y-119782700D01*
X162283333Y-120116033D02*
X162283333Y-119416033D01*
X162283333Y-119416033D02*
X162550000Y-119416033D01*
X162550000Y-119416033D02*
X162616667Y-119449366D01*
X162616667Y-119449366D02*
X162650000Y-119482700D01*
X162650000Y-119482700D02*
X162683333Y-119549366D01*
X162683333Y-119549366D02*
X162683333Y-119649366D01*
X162683333Y-119649366D02*
X162650000Y-119716033D01*
X162650000Y-119716033D02*
X162616667Y-119749366D01*
X162616667Y-119749366D02*
X162550000Y-119782700D01*
X162550000Y-119782700D02*
X162283333Y-119782700D01*
X162916667Y-119416033D02*
X163350000Y-119416033D01*
X163350000Y-119416033D02*
X163116667Y-119682700D01*
X163116667Y-119682700D02*
X163216667Y-119682700D01*
X163216667Y-119682700D02*
X163283333Y-119716033D01*
X163283333Y-119716033D02*
X163316667Y-119749366D01*
X163316667Y-119749366D02*
X163350000Y-119816033D01*
X163350000Y-119816033D02*
X163350000Y-119982700D01*
X163350000Y-119982700D02*
X163316667Y-120049366D01*
X163316667Y-120049366D02*
X163283333Y-120082700D01*
X163283333Y-120082700D02*
X163216667Y-120116033D01*
X163216667Y-120116033D02*
X163016667Y-120116033D01*
X163016667Y-120116033D02*
X162950000Y-120082700D01*
X162950000Y-120082700D02*
X162916667Y-120049366D01*
X159500000Y-126816033D02*
X159166666Y-126816033D01*
X159166666Y-126816033D02*
X159133333Y-127149366D01*
X159133333Y-127149366D02*
X159166666Y-127116033D01*
X159166666Y-127116033D02*
X159233333Y-127082700D01*
X159233333Y-127082700D02*
X159400000Y-127082700D01*
X159400000Y-127082700D02*
X159466666Y-127116033D01*
X159466666Y-127116033D02*
X159500000Y-127149366D01*
X159500000Y-127149366D02*
X159533333Y-127216033D01*
X159533333Y-127216033D02*
X159533333Y-127382700D01*
X159533333Y-127382700D02*
X159500000Y-127449366D01*
X159500000Y-127449366D02*
X159466666Y-127482700D01*
X159466666Y-127482700D02*
X159400000Y-127516033D01*
X159400000Y-127516033D02*
X159233333Y-127516033D01*
X159233333Y-127516033D02*
X159166666Y-127482700D01*
X159166666Y-127482700D02*
X159133333Y-127449366D01*
X160133333Y-126816033D02*
X160000000Y-126816033D01*
X160000000Y-126816033D02*
X159933333Y-126849366D01*
X159933333Y-126849366D02*
X159900000Y-126882700D01*
X159900000Y-126882700D02*
X159833333Y-126982700D01*
X159833333Y-126982700D02*
X159800000Y-127116033D01*
X159800000Y-127116033D02*
X159800000Y-127382700D01*
X159800000Y-127382700D02*
X159833333Y-127449366D01*
X159833333Y-127449366D02*
X159866667Y-127482700D01*
X159866667Y-127482700D02*
X159933333Y-127516033D01*
X159933333Y-127516033D02*
X160066667Y-127516033D01*
X160066667Y-127516033D02*
X160133333Y-127482700D01*
X160133333Y-127482700D02*
X160166667Y-127449366D01*
X160166667Y-127449366D02*
X160200000Y-127382700D01*
X160200000Y-127382700D02*
X160200000Y-127216033D01*
X160200000Y-127216033D02*
X160166667Y-127149366D01*
X160166667Y-127149366D02*
X160133333Y-127116033D01*
X160133333Y-127116033D02*
X160066667Y-127082700D01*
X160066667Y-127082700D02*
X159933333Y-127082700D01*
X159933333Y-127082700D02*
X159866667Y-127116033D01*
X159866667Y-127116033D02*
X159833333Y-127149366D01*
X159833333Y-127149366D02*
X159800000Y-127216033D01*
X160633334Y-126816033D02*
X160700000Y-126816033D01*
X160700000Y-126816033D02*
X160766667Y-126849366D01*
X160766667Y-126849366D02*
X160800000Y-126882700D01*
X160800000Y-126882700D02*
X160833334Y-126949366D01*
X160833334Y-126949366D02*
X160866667Y-127082700D01*
X160866667Y-127082700D02*
X160866667Y-127249366D01*
X160866667Y-127249366D02*
X160833334Y-127382700D01*
X160833334Y-127382700D02*
X160800000Y-127449366D01*
X160800000Y-127449366D02*
X160766667Y-127482700D01*
X160766667Y-127482700D02*
X160700000Y-127516033D01*
X160700000Y-127516033D02*
X160633334Y-127516033D01*
X160633334Y-127516033D02*
X160566667Y-127482700D01*
X160566667Y-127482700D02*
X160533334Y-127449366D01*
X160533334Y-127449366D02*
X160500000Y-127382700D01*
X160500000Y-127382700D02*
X160466667Y-127249366D01*
X160466667Y-127249366D02*
X160466667Y-127082700D01*
X160466667Y-127082700D02*
X160500000Y-126949366D01*
X160500000Y-126949366D02*
X160533334Y-126882700D01*
X160533334Y-126882700D02*
X160566667Y-126849366D01*
X160566667Y-126849366D02*
X160633334Y-126816033D01*
X152666666Y-105316033D02*
X152666666Y-105882700D01*
X152666666Y-105882700D02*
X152700000Y-105949366D01*
X152700000Y-105949366D02*
X152733333Y-105982700D01*
X152733333Y-105982700D02*
X152800000Y-106016033D01*
X152800000Y-106016033D02*
X152933333Y-106016033D01*
X152933333Y-106016033D02*
X153000000Y-105982700D01*
X153000000Y-105982700D02*
X153033333Y-105949366D01*
X153033333Y-105949366D02*
X153066666Y-105882700D01*
X153066666Y-105882700D02*
X153066666Y-105316033D01*
X153366666Y-105382700D02*
X153399999Y-105349366D01*
X153399999Y-105349366D02*
X153466666Y-105316033D01*
X153466666Y-105316033D02*
X153633333Y-105316033D01*
X153633333Y-105316033D02*
X153699999Y-105349366D01*
X153699999Y-105349366D02*
X153733333Y-105382700D01*
X153733333Y-105382700D02*
X153766666Y-105449366D01*
X153766666Y-105449366D02*
X153766666Y-105516033D01*
X153766666Y-105516033D02*
X153733333Y-105616033D01*
X153733333Y-105616033D02*
X153333333Y-106016033D01*
X153333333Y-106016033D02*
X153766666Y-106016033D01*
X143783333Y-106016033D02*
X143449999Y-106016033D01*
X143449999Y-106016033D02*
X143449999Y-105316033D01*
X144016666Y-106016033D02*
X144016666Y-105316033D01*
X144016666Y-105316033D02*
X144250000Y-105816033D01*
X144250000Y-105816033D02*
X144483333Y-105316033D01*
X144483333Y-105316033D02*
X144483333Y-106016033D01*
X144750000Y-105316033D02*
X145216666Y-105316033D01*
X145216666Y-105316033D02*
X144916666Y-106016033D01*
X145583333Y-105616033D02*
X145516667Y-105582700D01*
X145516667Y-105582700D02*
X145483333Y-105549366D01*
X145483333Y-105549366D02*
X145450000Y-105482700D01*
X145450000Y-105482700D02*
X145450000Y-105449366D01*
X145450000Y-105449366D02*
X145483333Y-105382700D01*
X145483333Y-105382700D02*
X145516667Y-105349366D01*
X145516667Y-105349366D02*
X145583333Y-105316033D01*
X145583333Y-105316033D02*
X145716667Y-105316033D01*
X145716667Y-105316033D02*
X145783333Y-105349366D01*
X145783333Y-105349366D02*
X145816667Y-105382700D01*
X145816667Y-105382700D02*
X145850000Y-105449366D01*
X145850000Y-105449366D02*
X145850000Y-105482700D01*
X145850000Y-105482700D02*
X145816667Y-105549366D01*
X145816667Y-105549366D02*
X145783333Y-105582700D01*
X145783333Y-105582700D02*
X145716667Y-105616033D01*
X145716667Y-105616033D02*
X145583333Y-105616033D01*
X145583333Y-105616033D02*
X145516667Y-105649366D01*
X145516667Y-105649366D02*
X145483333Y-105682700D01*
X145483333Y-105682700D02*
X145450000Y-105749366D01*
X145450000Y-105749366D02*
X145450000Y-105882700D01*
X145450000Y-105882700D02*
X145483333Y-105949366D01*
X145483333Y-105949366D02*
X145516667Y-105982700D01*
X145516667Y-105982700D02*
X145583333Y-106016033D01*
X145583333Y-106016033D02*
X145716667Y-106016033D01*
X145716667Y-106016033D02*
X145783333Y-105982700D01*
X145783333Y-105982700D02*
X145816667Y-105949366D01*
X145816667Y-105949366D02*
X145850000Y-105882700D01*
X145850000Y-105882700D02*
X145850000Y-105749366D01*
X145850000Y-105749366D02*
X145816667Y-105682700D01*
X145816667Y-105682700D02*
X145783333Y-105649366D01*
X145783333Y-105649366D02*
X145716667Y-105616033D01*
X146283334Y-105316033D02*
X146350000Y-105316033D01*
X146350000Y-105316033D02*
X146416667Y-105349366D01*
X146416667Y-105349366D02*
X146450000Y-105382700D01*
X146450000Y-105382700D02*
X146483334Y-105449366D01*
X146483334Y-105449366D02*
X146516667Y-105582700D01*
X146516667Y-105582700D02*
X146516667Y-105749366D01*
X146516667Y-105749366D02*
X146483334Y-105882700D01*
X146483334Y-105882700D02*
X146450000Y-105949366D01*
X146450000Y-105949366D02*
X146416667Y-105982700D01*
X146416667Y-105982700D02*
X146350000Y-106016033D01*
X146350000Y-106016033D02*
X146283334Y-106016033D01*
X146283334Y-106016033D02*
X146216667Y-105982700D01*
X146216667Y-105982700D02*
X146183334Y-105949366D01*
X146183334Y-105949366D02*
X146150000Y-105882700D01*
X146150000Y-105882700D02*
X146116667Y-105749366D01*
X146116667Y-105749366D02*
X146116667Y-105582700D01*
X146116667Y-105582700D02*
X146150000Y-105449366D01*
X146150000Y-105449366D02*
X146183334Y-105382700D01*
X146183334Y-105382700D02*
X146216667Y-105349366D01*
X146216667Y-105349366D02*
X146283334Y-105316033D01*
X147150001Y-105316033D02*
X146816667Y-105316033D01*
X146816667Y-105316033D02*
X146783334Y-105649366D01*
X146783334Y-105649366D02*
X146816667Y-105616033D01*
X146816667Y-105616033D02*
X146883334Y-105582700D01*
X146883334Y-105582700D02*
X147050001Y-105582700D01*
X147050001Y-105582700D02*
X147116667Y-105616033D01*
X147116667Y-105616033D02*
X147150001Y-105649366D01*
X147150001Y-105649366D02*
X147183334Y-105716033D01*
X147183334Y-105716033D02*
X147183334Y-105882700D01*
X147183334Y-105882700D02*
X147150001Y-105949366D01*
X147150001Y-105949366D02*
X147116667Y-105982700D01*
X147116667Y-105982700D02*
X147050001Y-106016033D01*
X147050001Y-106016033D02*
X146883334Y-106016033D01*
X146883334Y-106016033D02*
X146816667Y-105982700D01*
X146816667Y-105982700D02*
X146783334Y-105949366D01*
X147316668Y-106082700D02*
X147850001Y-106082700D01*
X147916667Y-105316033D02*
X148316667Y-105316033D01*
X148116667Y-106016033D02*
X148116667Y-105316033D01*
X148683334Y-105316033D02*
X148816667Y-105316033D01*
X148816667Y-105316033D02*
X148883334Y-105349366D01*
X148883334Y-105349366D02*
X148950000Y-105416033D01*
X148950000Y-105416033D02*
X148983334Y-105549366D01*
X148983334Y-105549366D02*
X148983334Y-105782700D01*
X148983334Y-105782700D02*
X148950000Y-105916033D01*
X148950000Y-105916033D02*
X148883334Y-105982700D01*
X148883334Y-105982700D02*
X148816667Y-106016033D01*
X148816667Y-106016033D02*
X148683334Y-106016033D01*
X148683334Y-106016033D02*
X148616667Y-105982700D01*
X148616667Y-105982700D02*
X148550000Y-105916033D01*
X148550000Y-105916033D02*
X148516667Y-105782700D01*
X148516667Y-105782700D02*
X148516667Y-105549366D01*
X148516667Y-105549366D02*
X148550000Y-105416033D01*
X148550000Y-105416033D02*
X148616667Y-105349366D01*
X148616667Y-105349366D02*
X148683334Y-105316033D01*
X149250000Y-105382700D02*
X149283333Y-105349366D01*
X149283333Y-105349366D02*
X149350000Y-105316033D01*
X149350000Y-105316033D02*
X149516667Y-105316033D01*
X149516667Y-105316033D02*
X149583333Y-105349366D01*
X149583333Y-105349366D02*
X149616667Y-105382700D01*
X149616667Y-105382700D02*
X149650000Y-105449366D01*
X149650000Y-105449366D02*
X149650000Y-105516033D01*
X149650000Y-105516033D02*
X149616667Y-105616033D01*
X149616667Y-105616033D02*
X149216667Y-106016033D01*
X149216667Y-106016033D02*
X149650000Y-106016033D01*
X149916667Y-105382700D02*
X149950000Y-105349366D01*
X149950000Y-105349366D02*
X150016667Y-105316033D01*
X150016667Y-105316033D02*
X150183334Y-105316033D01*
X150183334Y-105316033D02*
X150250000Y-105349366D01*
X150250000Y-105349366D02*
X150283334Y-105382700D01*
X150283334Y-105382700D02*
X150316667Y-105449366D01*
X150316667Y-105449366D02*
X150316667Y-105516033D01*
X150316667Y-105516033D02*
X150283334Y-105616033D01*
X150283334Y-105616033D02*
X149883334Y-106016033D01*
X149883334Y-106016033D02*
X150316667Y-106016033D01*
X150750001Y-105316033D02*
X150816667Y-105316033D01*
X150816667Y-105316033D02*
X150883334Y-105349366D01*
X150883334Y-105349366D02*
X150916667Y-105382700D01*
X150916667Y-105382700D02*
X150950001Y-105449366D01*
X150950001Y-105449366D02*
X150983334Y-105582700D01*
X150983334Y-105582700D02*
X150983334Y-105749366D01*
X150983334Y-105749366D02*
X150950001Y-105882700D01*
X150950001Y-105882700D02*
X150916667Y-105949366D01*
X150916667Y-105949366D02*
X150883334Y-105982700D01*
X150883334Y-105982700D02*
X150816667Y-106016033D01*
X150816667Y-106016033D02*
X150750001Y-106016033D01*
X150750001Y-106016033D02*
X150683334Y-105982700D01*
X150683334Y-105982700D02*
X150650001Y-105949366D01*
X150650001Y-105949366D02*
X150616667Y-105882700D01*
X150616667Y-105882700D02*
X150583334Y-105749366D01*
X150583334Y-105749366D02*
X150583334Y-105582700D01*
X150583334Y-105582700D02*
X150616667Y-105449366D01*
X150616667Y-105449366D02*
X150650001Y-105382700D01*
X150650001Y-105382700D02*
X150683334Y-105349366D01*
X150683334Y-105349366D02*
X150750001Y-105316033D01*
X166566666Y-128116033D02*
X166566666Y-128616033D01*
X166566666Y-128616033D02*
X166533333Y-128716033D01*
X166533333Y-128716033D02*
X166466666Y-128782700D01*
X166466666Y-128782700D02*
X166366666Y-128816033D01*
X166366666Y-128816033D02*
X166300000Y-128816033D01*
X167233333Y-128116033D02*
X166899999Y-128116033D01*
X166899999Y-128116033D02*
X166866666Y-128449366D01*
X166866666Y-128449366D02*
X166899999Y-128416033D01*
X166899999Y-128416033D02*
X166966666Y-128382700D01*
X166966666Y-128382700D02*
X167133333Y-128382700D01*
X167133333Y-128382700D02*
X167199999Y-128416033D01*
X167199999Y-128416033D02*
X167233333Y-128449366D01*
X167233333Y-128449366D02*
X167266666Y-128516033D01*
X167266666Y-128516033D02*
X167266666Y-128682700D01*
X167266666Y-128682700D02*
X167233333Y-128749366D01*
X167233333Y-128749366D02*
X167199999Y-128782700D01*
X167199999Y-128782700D02*
X167133333Y-128816033D01*
X167133333Y-128816033D02*
X166966666Y-128816033D01*
X166966666Y-128816033D02*
X166899999Y-128782700D01*
X166899999Y-128782700D02*
X166866666Y-128749366D01*
X165966666Y-102882700D02*
X166066666Y-102916033D01*
X166066666Y-102916033D02*
X166233333Y-102916033D01*
X166233333Y-102916033D02*
X166299999Y-102882700D01*
X166299999Y-102882700D02*
X166333333Y-102849366D01*
X166333333Y-102849366D02*
X166366666Y-102782700D01*
X166366666Y-102782700D02*
X166366666Y-102716033D01*
X166366666Y-102716033D02*
X166333333Y-102649366D01*
X166333333Y-102649366D02*
X166299999Y-102616033D01*
X166299999Y-102616033D02*
X166233333Y-102582700D01*
X166233333Y-102582700D02*
X166099999Y-102549366D01*
X166099999Y-102549366D02*
X166033333Y-102516033D01*
X166033333Y-102516033D02*
X165999999Y-102482700D01*
X165999999Y-102482700D02*
X165966666Y-102416033D01*
X165966666Y-102416033D02*
X165966666Y-102349366D01*
X165966666Y-102349366D02*
X165999999Y-102282700D01*
X165999999Y-102282700D02*
X166033333Y-102249366D01*
X166033333Y-102249366D02*
X166099999Y-102216033D01*
X166099999Y-102216033D02*
X166266666Y-102216033D01*
X166266666Y-102216033D02*
X166366666Y-102249366D01*
X167033333Y-102916033D02*
X166633333Y-102916033D01*
X166833333Y-102916033D02*
X166833333Y-102216033D01*
X166833333Y-102216033D02*
X166766666Y-102316033D01*
X166766666Y-102316033D02*
X166700000Y-102382700D01*
X166700000Y-102382700D02*
X166633333Y-102416033D01*
X163866666Y-96749366D02*
X164100000Y-96749366D01*
X164200000Y-97116033D02*
X163866666Y-97116033D01*
X163866666Y-97116033D02*
X163866666Y-96416033D01*
X163866666Y-96416033D02*
X164200000Y-96416033D01*
X164866666Y-96449366D02*
X164799999Y-96416033D01*
X164799999Y-96416033D02*
X164699999Y-96416033D01*
X164699999Y-96416033D02*
X164599999Y-96449366D01*
X164599999Y-96449366D02*
X164533333Y-96516033D01*
X164533333Y-96516033D02*
X164499999Y-96582700D01*
X164499999Y-96582700D02*
X164466666Y-96716033D01*
X164466666Y-96716033D02*
X164466666Y-96816033D01*
X164466666Y-96816033D02*
X164499999Y-96949366D01*
X164499999Y-96949366D02*
X164533333Y-97016033D01*
X164533333Y-97016033D02*
X164599999Y-97082700D01*
X164599999Y-97082700D02*
X164699999Y-97116033D01*
X164699999Y-97116033D02*
X164766666Y-97116033D01*
X164766666Y-97116033D02*
X164866666Y-97082700D01*
X164866666Y-97082700D02*
X164899999Y-97049366D01*
X164899999Y-97049366D02*
X164899999Y-96816033D01*
X164899999Y-96816033D02*
X164766666Y-96816033D01*
X165566666Y-97116033D02*
X165166666Y-97116033D01*
X165366666Y-97116033D02*
X165366666Y-96416033D01*
X165366666Y-96416033D02*
X165299999Y-96516033D01*
X165299999Y-96516033D02*
X165233333Y-96582700D01*
X165233333Y-96582700D02*
X165166666Y-96616033D01*
X165833333Y-96482700D02*
X165866666Y-96449366D01*
X165866666Y-96449366D02*
X165933333Y-96416033D01*
X165933333Y-96416033D02*
X166100000Y-96416033D01*
X166100000Y-96416033D02*
X166166666Y-96449366D01*
X166166666Y-96449366D02*
X166200000Y-96482700D01*
X166200000Y-96482700D02*
X166233333Y-96549366D01*
X166233333Y-96549366D02*
X166233333Y-96616033D01*
X166233333Y-96616033D02*
X166200000Y-96716033D01*
X166200000Y-96716033D02*
X165800000Y-97116033D01*
X165800000Y-97116033D02*
X166233333Y-97116033D01*
X166900000Y-97116033D02*
X166500000Y-97116033D01*
X166700000Y-97116033D02*
X166700000Y-96416033D01*
X166700000Y-96416033D02*
X166633333Y-96516033D01*
X166633333Y-96516033D02*
X166566667Y-96582700D01*
X166566667Y-96582700D02*
X166500000Y-96616033D01*
X167300000Y-96716033D02*
X167233334Y-96682700D01*
X167233334Y-96682700D02*
X167200000Y-96649366D01*
X167200000Y-96649366D02*
X167166667Y-96582700D01*
X167166667Y-96582700D02*
X167166667Y-96549366D01*
X167166667Y-96549366D02*
X167200000Y-96482700D01*
X167200000Y-96482700D02*
X167233334Y-96449366D01*
X167233334Y-96449366D02*
X167300000Y-96416033D01*
X167300000Y-96416033D02*
X167433334Y-96416033D01*
X167433334Y-96416033D02*
X167500000Y-96449366D01*
X167500000Y-96449366D02*
X167533334Y-96482700D01*
X167533334Y-96482700D02*
X167566667Y-96549366D01*
X167566667Y-96549366D02*
X167566667Y-96582700D01*
X167566667Y-96582700D02*
X167533334Y-96649366D01*
X167533334Y-96649366D02*
X167500000Y-96682700D01*
X167500000Y-96682700D02*
X167433334Y-96716033D01*
X167433334Y-96716033D02*
X167300000Y-96716033D01*
X167300000Y-96716033D02*
X167233334Y-96749366D01*
X167233334Y-96749366D02*
X167200000Y-96782700D01*
X167200000Y-96782700D02*
X167166667Y-96849366D01*
X167166667Y-96849366D02*
X167166667Y-96982700D01*
X167166667Y-96982700D02*
X167200000Y-97049366D01*
X167200000Y-97049366D02*
X167233334Y-97082700D01*
X167233334Y-97082700D02*
X167300000Y-97116033D01*
X167300000Y-97116033D02*
X167433334Y-97116033D01*
X167433334Y-97116033D02*
X167500000Y-97082700D01*
X167500000Y-97082700D02*
X167533334Y-97049366D01*
X167533334Y-97049366D02*
X167566667Y-96982700D01*
X167566667Y-96982700D02*
X167566667Y-96849366D01*
X167566667Y-96849366D02*
X167533334Y-96782700D01*
X167533334Y-96782700D02*
X167500000Y-96749366D01*
X167500000Y-96749366D02*
X167433334Y-96716033D01*
X146316033Y-136733333D02*
X146816033Y-136733333D01*
X146816033Y-136733333D02*
X146916033Y-136766666D01*
X146916033Y-136766666D02*
X146982700Y-136833333D01*
X146982700Y-136833333D02*
X147016033Y-136933333D01*
X147016033Y-136933333D02*
X147016033Y-137000000D01*
X146316033Y-136466667D02*
X146316033Y-136000000D01*
X146316033Y-136000000D02*
X147016033Y-136300000D01*
X148466666Y-119816033D02*
X148466666Y-120382700D01*
X148466666Y-120382700D02*
X148500000Y-120449366D01*
X148500000Y-120449366D02*
X148533333Y-120482700D01*
X148533333Y-120482700D02*
X148600000Y-120516033D01*
X148600000Y-120516033D02*
X148733333Y-120516033D01*
X148733333Y-120516033D02*
X148800000Y-120482700D01*
X148800000Y-120482700D02*
X148833333Y-120449366D01*
X148833333Y-120449366D02*
X148866666Y-120382700D01*
X148866666Y-120382700D02*
X148866666Y-119816033D01*
X149566666Y-120516033D02*
X149166666Y-120516033D01*
X149366666Y-120516033D02*
X149366666Y-119816033D01*
X149366666Y-119816033D02*
X149299999Y-119916033D01*
X149299999Y-119916033D02*
X149233333Y-119982700D01*
X149233333Y-119982700D02*
X149166666Y-120016033D01*
X143683333Y-126616033D02*
X143349999Y-126616033D01*
X143349999Y-126616033D02*
X143349999Y-125916033D01*
X143916666Y-126616033D02*
X143916666Y-125916033D01*
X143916666Y-125916033D02*
X144150000Y-126416033D01*
X144150000Y-126416033D02*
X144383333Y-125916033D01*
X144383333Y-125916033D02*
X144383333Y-126616033D01*
X144650000Y-125916033D02*
X145083333Y-125916033D01*
X145083333Y-125916033D02*
X144850000Y-126182700D01*
X144850000Y-126182700D02*
X144950000Y-126182700D01*
X144950000Y-126182700D02*
X145016666Y-126216033D01*
X145016666Y-126216033D02*
X145050000Y-126249366D01*
X145050000Y-126249366D02*
X145083333Y-126316033D01*
X145083333Y-126316033D02*
X145083333Y-126482700D01*
X145083333Y-126482700D02*
X145050000Y-126549366D01*
X145050000Y-126549366D02*
X145016666Y-126582700D01*
X145016666Y-126582700D02*
X144950000Y-126616033D01*
X144950000Y-126616033D02*
X144750000Y-126616033D01*
X144750000Y-126616033D02*
X144683333Y-126582700D01*
X144683333Y-126582700D02*
X144650000Y-126549366D01*
X145750000Y-126616033D02*
X145350000Y-126616033D01*
X145550000Y-126616033D02*
X145550000Y-125916033D01*
X145550000Y-125916033D02*
X145483333Y-126016033D01*
X145483333Y-126016033D02*
X145416667Y-126082700D01*
X145416667Y-126082700D02*
X145350000Y-126116033D01*
X145983334Y-125916033D02*
X146450000Y-125916033D01*
X146450000Y-125916033D02*
X146150000Y-126616033D01*
X146550001Y-126682700D02*
X147083334Y-126682700D01*
X147150000Y-125916033D02*
X147550000Y-125916033D01*
X147350000Y-126616033D02*
X147350000Y-125916033D01*
X147916667Y-125916033D02*
X148050000Y-125916033D01*
X148050000Y-125916033D02*
X148116667Y-125949366D01*
X148116667Y-125949366D02*
X148183333Y-126016033D01*
X148183333Y-126016033D02*
X148216667Y-126149366D01*
X148216667Y-126149366D02*
X148216667Y-126382700D01*
X148216667Y-126382700D02*
X148183333Y-126516033D01*
X148183333Y-126516033D02*
X148116667Y-126582700D01*
X148116667Y-126582700D02*
X148050000Y-126616033D01*
X148050000Y-126616033D02*
X147916667Y-126616033D01*
X147916667Y-126616033D02*
X147850000Y-126582700D01*
X147850000Y-126582700D02*
X147783333Y-126516033D01*
X147783333Y-126516033D02*
X147750000Y-126382700D01*
X147750000Y-126382700D02*
X147750000Y-126149366D01*
X147750000Y-126149366D02*
X147783333Y-126016033D01*
X147783333Y-126016033D02*
X147850000Y-125949366D01*
X147850000Y-125949366D02*
X147916667Y-125916033D01*
X148516666Y-126349366D02*
X149050000Y-126349366D01*
X149350000Y-125982700D02*
X149383333Y-125949366D01*
X149383333Y-125949366D02*
X149450000Y-125916033D01*
X149450000Y-125916033D02*
X149616667Y-125916033D01*
X149616667Y-125916033D02*
X149683333Y-125949366D01*
X149683333Y-125949366D02*
X149716667Y-125982700D01*
X149716667Y-125982700D02*
X149750000Y-126049366D01*
X149750000Y-126049366D02*
X149750000Y-126116033D01*
X149750000Y-126116033D02*
X149716667Y-126216033D01*
X149716667Y-126216033D02*
X149316667Y-126616033D01*
X149316667Y-126616033D02*
X149750000Y-126616033D01*
X150016667Y-125982700D02*
X150050000Y-125949366D01*
X150050000Y-125949366D02*
X150116667Y-125916033D01*
X150116667Y-125916033D02*
X150283334Y-125916033D01*
X150283334Y-125916033D02*
X150350000Y-125949366D01*
X150350000Y-125949366D02*
X150383334Y-125982700D01*
X150383334Y-125982700D02*
X150416667Y-126049366D01*
X150416667Y-126049366D02*
X150416667Y-126116033D01*
X150416667Y-126116033D02*
X150383334Y-126216033D01*
X150383334Y-126216033D02*
X149983334Y-126616033D01*
X149983334Y-126616033D02*
X150416667Y-126616033D01*
X150850001Y-125916033D02*
X150916667Y-125916033D01*
X150916667Y-125916033D02*
X150983334Y-125949366D01*
X150983334Y-125949366D02*
X151016667Y-125982700D01*
X151016667Y-125982700D02*
X151050001Y-126049366D01*
X151050001Y-126049366D02*
X151083334Y-126182700D01*
X151083334Y-126182700D02*
X151083334Y-126349366D01*
X151083334Y-126349366D02*
X151050001Y-126482700D01*
X151050001Y-126482700D02*
X151016667Y-126549366D01*
X151016667Y-126549366D02*
X150983334Y-126582700D01*
X150983334Y-126582700D02*
X150916667Y-126616033D01*
X150916667Y-126616033D02*
X150850001Y-126616033D01*
X150850001Y-126616033D02*
X150783334Y-126582700D01*
X150783334Y-126582700D02*
X150750001Y-126549366D01*
X150750001Y-126549366D02*
X150716667Y-126482700D01*
X150716667Y-126482700D02*
X150683334Y-126349366D01*
X150683334Y-126349366D02*
X150683334Y-126182700D01*
X150683334Y-126182700D02*
X150716667Y-126049366D01*
X150716667Y-126049366D02*
X150750001Y-125982700D01*
X150750001Y-125982700D02*
X150783334Y-125949366D01*
X150783334Y-125949366D02*
X150850001Y-125916033D01*
D11*
%TO.C,D1*%
X162760000Y-115590000D02*
X165850000Y-115590000D01*
X162760170Y-115590000D02*
G75*
G02*
X164305000Y-110040000I1544830J2560000D01*
G01*
X164305000Y-110040000D02*
G75*
G02*
X165849830Y-115590000I0J-2990000D01*
G01*
X166805000Y-113030000D02*
G75*
G02*
X161805000Y-113030000I-2500000J0D01*
G01*
X161805000Y-113030000D02*
G75*
G02*
X166805000Y-113030000I2500000J0D01*
G01*
%TO.C,C2*%
X144625000Y-127667500D02*
X146155000Y-127667500D01*
X146155000Y-129507500D02*
X144625000Y-129507500D01*
%TO.C,J3*%
X147840000Y-89640000D02*
X147840000Y-88260000D01*
X149220000Y-89640000D02*
X147840000Y-89640000D01*
X150490000Y-86880000D02*
X155680000Y-86880000D01*
X150490000Y-89640000D02*
X150490000Y-86880000D01*
X150490000Y-89640000D02*
X155680000Y-89640000D01*
X155680000Y-89640000D02*
X155680000Y-86880000D01*
%TO.C,R2*%
X159885000Y-125412500D02*
X160835000Y-125412500D01*
X165625000Y-125412500D02*
X164675000Y-125412500D01*
X164675000Y-126332500D02*
X160835000Y-126332500D01*
X160835000Y-124492500D01*
X164675000Y-124492500D01*
X164675000Y-126332500D01*
%TO.C,R1*%
X158166000Y-104648000D02*
X159116000Y-104648000D01*
X163906000Y-104648000D02*
X162956000Y-104648000D01*
X159116000Y-103728000D02*
X162956000Y-103728000D01*
X162956000Y-105568000D01*
X159116000Y-105568000D01*
X159116000Y-103728000D01*
%TO.C,C1*%
X150975000Y-95282500D02*
X152505000Y-95282500D01*
X152505000Y-97122500D02*
X150975000Y-97122500D01*
%TO.C,C3*%
X145300000Y-95282500D02*
X146830000Y-95282500D01*
X146830000Y-97122500D02*
X145300000Y-97122500D01*
%TO.C,J6*%
X168800000Y-132600000D02*
X170180000Y-132600000D01*
X168800000Y-133980000D02*
X168800000Y-132600000D01*
X168800000Y-135250000D02*
X168800000Y-137900000D01*
X168800000Y-135250000D02*
X171560000Y-135250000D01*
X168800000Y-137900000D02*
X171560000Y-137900000D01*
X171560000Y-135250000D02*
X171560000Y-137900000D01*
%TO.C,J2*%
X156725000Y-86685000D02*
X167125000Y-86685000D01*
X156725000Y-88805000D02*
X167125000Y-88805000D01*
X156725000Y-92805000D02*
X167125000Y-92805000D01*
X156725000Y-94925000D02*
X156725000Y-86685000D01*
X159085000Y-94925000D02*
X156725000Y-94925000D01*
X167125000Y-86685000D02*
X167125000Y-94925000D01*
X167125000Y-94925000D02*
X159685000Y-94925000D01*
X159825000Y-95535000D02*
X158945000Y-95535000D01*
X159385000Y-94925000D01*
X159825000Y-95535000D01*
G36*
X159825000Y-95535000D02*
G01*
X158945000Y-95535000D01*
X159385000Y-94925000D01*
X159825000Y-95535000D01*
G37*
%TO.C,J1*%
X143660000Y-107477500D02*
X158360000Y-107477500D01*
X143660000Y-116677500D02*
X143660000Y-107477500D01*
X152460000Y-116677500D02*
X143660000Y-116677500D01*
X157510000Y-107277500D02*
X158560000Y-107277500D01*
X158360000Y-107477500D02*
X158360000Y-110077500D01*
X158360000Y-113977500D02*
X158360000Y-116677500D01*
X158360000Y-116677500D02*
X156460000Y-116677500D01*
X158560000Y-108327500D02*
X158560000Y-107277500D01*
%TO.C,J4*%
X168800000Y-86880000D02*
X170180000Y-86880000D01*
X168800000Y-88260000D02*
X168800000Y-86880000D01*
X168800000Y-89530000D02*
X168800000Y-92180000D01*
X168800000Y-89530000D02*
X171560000Y-89530000D01*
X168800000Y-92180000D02*
X171560000Y-92180000D01*
X171560000Y-89530000D02*
X171560000Y-92180000D01*
%TO.C,R3*%
X159885000Y-121602500D02*
X160835000Y-121602500D01*
X165625000Y-121602500D02*
X164675000Y-121602500D01*
X160835000Y-120682500D02*
X164675000Y-120682500D01*
X164675000Y-122522500D01*
X160835000Y-122522500D01*
X160835000Y-120682500D01*
%TO.C,U2*%
X143475000Y-100557500D02*
X153695000Y-100557500D01*
X143475000Y-105177500D02*
X143475000Y-100557500D01*
X146735000Y-105177500D02*
X146735000Y-103797500D01*
X150435000Y-105177500D02*
X150435000Y-103797500D01*
X153695000Y-100557500D02*
X153695000Y-105177500D01*
X153695000Y-103797500D02*
X143475000Y-103797500D01*
X153695000Y-105177500D02*
X143475000Y-105177500D01*
%TO.C,J5*%
X156725000Y-129420000D02*
X167125000Y-129420000D01*
X156725000Y-131540000D02*
X167125000Y-131540000D01*
X156725000Y-135540000D02*
X167125000Y-135540000D01*
X156725000Y-137660000D02*
X156725000Y-129420000D01*
X159085000Y-137660000D02*
X156725000Y-137660000D01*
X167125000Y-129420000D02*
X167125000Y-137660000D01*
X167125000Y-137660000D02*
X159685000Y-137660000D01*
X159825000Y-138270000D02*
X158945000Y-138270000D01*
X159385000Y-137660000D01*
X159825000Y-138270000D01*
G36*
X159825000Y-138270000D02*
G01*
X158945000Y-138270000D01*
X159385000Y-137660000D01*
X159825000Y-138270000D01*
G37*
D12*
%TO.C,S1*%
X155545000Y-97595000D02*
X155545000Y-98095000D01*
X155545000Y-97595000D02*
X156045000Y-97595000D01*
X155545000Y-101795000D02*
X155545000Y-101295000D01*
X155545000Y-101795000D02*
X156045000Y-101795000D01*
X167445000Y-97595000D02*
X166945000Y-97595000D01*
X167445000Y-97595000D02*
X167445000Y-98095000D01*
X167445000Y-101795000D02*
X166945000Y-101795000D01*
X167445000Y-101795000D02*
X167445000Y-101295000D01*
D11*
%TO.C,J7*%
X147845000Y-137915000D02*
X147845000Y-136535000D01*
X149225000Y-137915000D02*
X147845000Y-137915000D01*
X150495000Y-135155000D02*
X155685000Y-135155000D01*
X150495000Y-137915000D02*
X150495000Y-135155000D01*
X150495000Y-137915000D02*
X155685000Y-137915000D01*
X155685000Y-137915000D02*
X155685000Y-135155000D01*
%TO.C,U1*%
X143475000Y-120882500D02*
X153695000Y-120882500D01*
X143475000Y-122262500D02*
X153695000Y-122262500D01*
X143475000Y-125502500D02*
X143475000Y-120882500D01*
X146735000Y-120882500D02*
X146735000Y-122262500D01*
X150435000Y-120882500D02*
X150435000Y-122262500D01*
X153695000Y-120882500D02*
X153695000Y-125502500D01*
X153695000Y-125502500D02*
X143475000Y-125502500D01*
%TD*%
M02*
