%TF.GenerationSoftware,KiCad,Pcbnew,9.0.5*%
%TF.CreationDate,2025-11-24T13:01:10-08:00*%
%TF.ProjectId,project2_breadboard_power_supply,70726f6a-6563-4743-925f-627265616462,rev?*%
%TF.SameCoordinates,Original*%
%TF.FileFunction,Soldermask,Top*%
%TF.FilePolarity,Negative*%
%FSLAX46Y46*%
G04 Gerber Fmt 4.6, Leading zero omitted, Abs format (unit mm)*
G04 Created by KiCad (PCBNEW 9.0.5) date 2025-11-24 13:01:10*
%MOMM*%
%LPD*%
G01*
G04 APERTURE LIST*
G04 Aperture macros list*
%AMRoundRect*
0 Rectangle with rounded corners*
0 $1 Rounding radius*
0 $2 $3 $4 $5 $6 $7 $8 $9 X,Y pos of 4 corners*
0 Add a 4 corners polygon primitive as box body*
4,1,4,$2,$3,$4,$5,$6,$7,$8,$9,$2,$3,0*
0 Add four circle primitives for the rounded corners*
1,1,$1+$1,$2,$3*
1,1,$1+$1,$4,$5*
1,1,$1+$1,$6,$7*
1,1,$1+$1,$8,$9*
0 Add four rect primitives between the rounded corners*
20,1,$1+$1,$2,$3,$4,$5,0*
20,1,$1+$1,$4,$5,$6,$7,0*
20,1,$1+$1,$6,$7,$8,$9,0*
20,1,$1+$1,$8,$9,$2,$3,0*%
G04 Aperture macros list end*
%ADD10R,1.800000X1.800000*%
%ADD11C,1.800000*%
%ADD12C,1.600000*%
%ADD13R,1.700000X1.700000*%
%ADD14C,1.700000*%
%ADD15C,1.400000*%
%ADD16RoundRect,0.250000X-1.000000X-1.000000X1.000000X-1.000000X1.000000X1.000000X-1.000000X1.000000X0*%
%ADD17C,2.500000*%
%ADD18R,3.500000X3.500000*%
%ADD19RoundRect,0.750000X-0.750000X-1.000000X0.750000X-1.000000X0.750000X1.000000X-0.750000X1.000000X0*%
%ADD20RoundRect,0.875000X-0.875000X-0.875000X0.875000X-0.875000X0.875000X0.875000X-0.875000X0.875000X0*%
%ADD21R,1.905000X2.000000*%
%ADD22O,1.905000X2.000000*%
%ADD23R,1.900000X1.900000*%
%ADD24C,1.900000*%
G04 APERTURE END LIST*
D10*
%TO.C,D1*%
X164305000Y-114300000D03*
D11*
X164305000Y-111760000D03*
%TD*%
D12*
%TO.C,C2*%
X146640000Y-128587500D03*
X144140000Y-128587500D03*
%TD*%
D13*
%TO.C,J3*%
X149220000Y-88260000D03*
D14*
X151760000Y-88260000D03*
X154300000Y-88260000D03*
%TD*%
D15*
%TO.C,R2*%
X166565000Y-125412500D03*
X158945000Y-125412500D03*
%TD*%
%TO.C,R1*%
X157226000Y-104648000D03*
X164846000Y-104648000D03*
%TD*%
D12*
%TO.C,C1*%
X152990000Y-96202500D03*
X150490000Y-96202500D03*
%TD*%
%TO.C,C3*%
X147315000Y-96202500D03*
X144815000Y-96202500D03*
%TD*%
D13*
%TO.C,J6*%
X170180000Y-133980000D03*
D14*
X170180000Y-136520000D03*
%TD*%
D16*
%TO.C,J2*%
X159385000Y-90805000D03*
D17*
X164465000Y-90805000D03*
%TD*%
D18*
%TO.C,J1*%
X157460000Y-112077500D03*
D19*
X151460000Y-112077500D03*
D20*
X154460000Y-116777500D03*
%TD*%
D13*
%TO.C,J4*%
X170180000Y-88260000D03*
D14*
X170180000Y-90800000D03*
%TD*%
D15*
%TO.C,R3*%
X158945000Y-121602500D03*
X166565000Y-121602500D03*
%TD*%
D21*
%TO.C,U2*%
X151125000Y-101917500D03*
D22*
X148585000Y-101917500D03*
X146045000Y-101917500D03*
%TD*%
D16*
%TO.C,J5*%
X159385000Y-133540000D03*
D17*
X164465000Y-133540000D03*
%TD*%
D23*
%TO.C,S1*%
X163845000Y-99695000D03*
D24*
X161345000Y-99695000D03*
X158845000Y-99695000D03*
%TD*%
D13*
%TO.C,J7*%
X149225000Y-136535000D03*
D14*
X151765000Y-136535000D03*
X154305000Y-136535000D03*
%TD*%
D21*
%TO.C,U1*%
X146045000Y-124142500D03*
D22*
X148585000Y-124142500D03*
X151125000Y-124142500D03*
%TD*%
M02*
