%TF.GenerationSoftware,KiCad,Pcbnew,9.0.5*%
%TF.CreationDate,2025-11-24T13:01:10-08:00*%
%TF.ProjectId,project2_breadboard_power_supply,70726f6a-6563-4743-925f-627265616462,rev?*%
%TF.SameCoordinates,Original*%
%TF.FileFunction,Legend,Bot*%
%TF.FilePolarity,Positive*%
%FSLAX46Y46*%
G04 Gerber Fmt 4.6, Leading zero omitted, Abs format (unit mm)*
G04 Created by KiCad (PCBNEW 9.0.5) date 2025-11-24 13:01:10*
%MOMM*%
%LPD*%
G01*
G04 APERTURE LIST*
%ADD10C,0.100000*%
%ADD11C,0.150000*%
%ADD12C,0.010000*%
G04 APERTURE END LIST*
D10*
X148769021Y-106900513D02*
G75*
G02*
X145108979Y-106900513I-1830021J0D01*
G01*
X145108979Y-106900513D02*
G75*
G02*
X148769021Y-106900513I1830021J0D01*
G01*
X149677847Y-103547617D02*
X149715942Y-103661903D01*
X149715942Y-103661903D02*
X149754038Y-103699998D01*
X149754038Y-103699998D02*
X149830228Y-103738094D01*
X149830228Y-103738094D02*
X149944514Y-103738094D01*
X149944514Y-103738094D02*
X150020704Y-103699998D01*
X150020704Y-103699998D02*
X150058800Y-103661903D01*
X150058800Y-103661903D02*
X150096895Y-103585713D01*
X150096895Y-103585713D02*
X150096895Y-103280951D01*
X150096895Y-103280951D02*
X149296895Y-103280951D01*
X149296895Y-103280951D02*
X149296895Y-103547617D01*
X149296895Y-103547617D02*
X149334990Y-103623808D01*
X149334990Y-103623808D02*
X149373085Y-103661903D01*
X149373085Y-103661903D02*
X149449276Y-103699998D01*
X149449276Y-103699998D02*
X149525466Y-103699998D01*
X149525466Y-103699998D02*
X149601657Y-103661903D01*
X149601657Y-103661903D02*
X149639752Y-103623808D01*
X149639752Y-103623808D02*
X149677847Y-103547617D01*
X149677847Y-103547617D02*
X149677847Y-103280951D01*
X150096895Y-104080951D02*
X149563561Y-104080951D01*
X149715942Y-104080951D02*
X149639752Y-104119046D01*
X149639752Y-104119046D02*
X149601657Y-104157141D01*
X149601657Y-104157141D02*
X149563561Y-104233332D01*
X149563561Y-104233332D02*
X149563561Y-104309522D01*
X150058800Y-104880951D02*
X150096895Y-104804760D01*
X150096895Y-104804760D02*
X150096895Y-104652379D01*
X150096895Y-104652379D02*
X150058800Y-104576189D01*
X150058800Y-104576189D02*
X149982609Y-104538093D01*
X149982609Y-104538093D02*
X149677847Y-104538093D01*
X149677847Y-104538093D02*
X149601657Y-104576189D01*
X149601657Y-104576189D02*
X149563561Y-104652379D01*
X149563561Y-104652379D02*
X149563561Y-104804760D01*
X149563561Y-104804760D02*
X149601657Y-104880951D01*
X149601657Y-104880951D02*
X149677847Y-104919046D01*
X149677847Y-104919046D02*
X149754038Y-104919046D01*
X149754038Y-104919046D02*
X149830228Y-104538093D01*
X150096895Y-105604760D02*
X149677847Y-105604760D01*
X149677847Y-105604760D02*
X149601657Y-105566665D01*
X149601657Y-105566665D02*
X149563561Y-105490474D01*
X149563561Y-105490474D02*
X149563561Y-105338093D01*
X149563561Y-105338093D02*
X149601657Y-105261903D01*
X150058800Y-105604760D02*
X150096895Y-105528569D01*
X150096895Y-105528569D02*
X150096895Y-105338093D01*
X150096895Y-105338093D02*
X150058800Y-105261903D01*
X150058800Y-105261903D02*
X149982609Y-105223807D01*
X149982609Y-105223807D02*
X149906419Y-105223807D01*
X149906419Y-105223807D02*
X149830228Y-105261903D01*
X149830228Y-105261903D02*
X149792133Y-105338093D01*
X149792133Y-105338093D02*
X149792133Y-105528569D01*
X149792133Y-105528569D02*
X149754038Y-105604760D01*
X150096895Y-106328570D02*
X149296895Y-106328570D01*
X150058800Y-106328570D02*
X150096895Y-106252379D01*
X150096895Y-106252379D02*
X150096895Y-106099998D01*
X150096895Y-106099998D02*
X150058800Y-106023808D01*
X150058800Y-106023808D02*
X150020704Y-105985713D01*
X150020704Y-105985713D02*
X149944514Y-105947617D01*
X149944514Y-105947617D02*
X149715942Y-105947617D01*
X149715942Y-105947617D02*
X149639752Y-105985713D01*
X149639752Y-105985713D02*
X149601657Y-106023808D01*
X149601657Y-106023808D02*
X149563561Y-106099998D01*
X149563561Y-106099998D02*
X149563561Y-106252379D01*
X149563561Y-106252379D02*
X149601657Y-106328570D01*
X150096895Y-106709523D02*
X149296895Y-106709523D01*
X149601657Y-106709523D02*
X149563561Y-106785713D01*
X149563561Y-106785713D02*
X149563561Y-106938094D01*
X149563561Y-106938094D02*
X149601657Y-107014285D01*
X149601657Y-107014285D02*
X149639752Y-107052380D01*
X149639752Y-107052380D02*
X149715942Y-107090475D01*
X149715942Y-107090475D02*
X149944514Y-107090475D01*
X149944514Y-107090475D02*
X150020704Y-107052380D01*
X150020704Y-107052380D02*
X150058800Y-107014285D01*
X150058800Y-107014285D02*
X150096895Y-106938094D01*
X150096895Y-106938094D02*
X150096895Y-106785713D01*
X150096895Y-106785713D02*
X150058800Y-106709523D01*
X150096895Y-107547618D02*
X150058800Y-107471428D01*
X150058800Y-107471428D02*
X150020704Y-107433333D01*
X150020704Y-107433333D02*
X149944514Y-107395237D01*
X149944514Y-107395237D02*
X149715942Y-107395237D01*
X149715942Y-107395237D02*
X149639752Y-107433333D01*
X149639752Y-107433333D02*
X149601657Y-107471428D01*
X149601657Y-107471428D02*
X149563561Y-107547618D01*
X149563561Y-107547618D02*
X149563561Y-107661904D01*
X149563561Y-107661904D02*
X149601657Y-107738095D01*
X149601657Y-107738095D02*
X149639752Y-107776190D01*
X149639752Y-107776190D02*
X149715942Y-107814285D01*
X149715942Y-107814285D02*
X149944514Y-107814285D01*
X149944514Y-107814285D02*
X150020704Y-107776190D01*
X150020704Y-107776190D02*
X150058800Y-107738095D01*
X150058800Y-107738095D02*
X150096895Y-107661904D01*
X150096895Y-107661904D02*
X150096895Y-107547618D01*
X150096895Y-108500000D02*
X149677847Y-108500000D01*
X149677847Y-108500000D02*
X149601657Y-108461905D01*
X149601657Y-108461905D02*
X149563561Y-108385714D01*
X149563561Y-108385714D02*
X149563561Y-108233333D01*
X149563561Y-108233333D02*
X149601657Y-108157143D01*
X150058800Y-108500000D02*
X150096895Y-108423809D01*
X150096895Y-108423809D02*
X150096895Y-108233333D01*
X150096895Y-108233333D02*
X150058800Y-108157143D01*
X150058800Y-108157143D02*
X149982609Y-108119047D01*
X149982609Y-108119047D02*
X149906419Y-108119047D01*
X149906419Y-108119047D02*
X149830228Y-108157143D01*
X149830228Y-108157143D02*
X149792133Y-108233333D01*
X149792133Y-108233333D02*
X149792133Y-108423809D01*
X149792133Y-108423809D02*
X149754038Y-108500000D01*
X150096895Y-108880953D02*
X149563561Y-108880953D01*
X149715942Y-108880953D02*
X149639752Y-108919048D01*
X149639752Y-108919048D02*
X149601657Y-108957143D01*
X149601657Y-108957143D02*
X149563561Y-109033334D01*
X149563561Y-109033334D02*
X149563561Y-109109524D01*
X150096895Y-109719048D02*
X149296895Y-109719048D01*
X150058800Y-109719048D02*
X150096895Y-109642857D01*
X150096895Y-109642857D02*
X150096895Y-109490476D01*
X150096895Y-109490476D02*
X150058800Y-109414286D01*
X150058800Y-109414286D02*
X150020704Y-109376191D01*
X150020704Y-109376191D02*
X149944514Y-109338095D01*
X149944514Y-109338095D02*
X149715942Y-109338095D01*
X149715942Y-109338095D02*
X149639752Y-109376191D01*
X149639752Y-109376191D02*
X149601657Y-109414286D01*
X149601657Y-109414286D02*
X149563561Y-109490476D01*
X149563561Y-109490476D02*
X149563561Y-109642857D01*
X149563561Y-109642857D02*
X149601657Y-109719048D01*
D11*
X146760961Y-105712969D02*
X147294295Y-105903445D01*
X147294295Y-105903445D02*
X146760961Y-106093922D01*
X146494295Y-106551065D02*
X146494295Y-106627255D01*
X146494295Y-106627255D02*
X146532390Y-106703446D01*
X146532390Y-106703446D02*
X146570485Y-106741541D01*
X146570485Y-106741541D02*
X146646676Y-106779636D01*
X146646676Y-106779636D02*
X146799057Y-106817731D01*
X146799057Y-106817731D02*
X146989533Y-106817731D01*
X146989533Y-106817731D02*
X147141914Y-106779636D01*
X147141914Y-106779636D02*
X147218104Y-106741541D01*
X147218104Y-106741541D02*
X147256200Y-106703446D01*
X147256200Y-106703446D02*
X147294295Y-106627255D01*
X147294295Y-106627255D02*
X147294295Y-106551065D01*
X147294295Y-106551065D02*
X147256200Y-106474874D01*
X147256200Y-106474874D02*
X147218104Y-106436779D01*
X147218104Y-106436779D02*
X147141914Y-106398684D01*
X147141914Y-106398684D02*
X146989533Y-106360588D01*
X146989533Y-106360588D02*
X146799057Y-106360588D01*
X146799057Y-106360588D02*
X146646676Y-106398684D01*
X146646676Y-106398684D02*
X146570485Y-106436779D01*
X146570485Y-106436779D02*
X146532390Y-106474874D01*
X146532390Y-106474874D02*
X146494295Y-106551065D01*
X147218104Y-107160589D02*
X147256200Y-107198684D01*
X147256200Y-107198684D02*
X147294295Y-107160589D01*
X147294295Y-107160589D02*
X147256200Y-107122493D01*
X147256200Y-107122493D02*
X147218104Y-107160589D01*
X147218104Y-107160589D02*
X147294295Y-107160589D01*
X146570485Y-107503445D02*
X146532390Y-107541541D01*
X146532390Y-107541541D02*
X146494295Y-107617731D01*
X146494295Y-107617731D02*
X146494295Y-107808207D01*
X146494295Y-107808207D02*
X146532390Y-107884398D01*
X146532390Y-107884398D02*
X146570485Y-107922493D01*
X146570485Y-107922493D02*
X146646676Y-107960588D01*
X146646676Y-107960588D02*
X146722866Y-107960588D01*
X146722866Y-107960588D02*
X146837152Y-107922493D01*
X146837152Y-107922493D02*
X147294295Y-107465350D01*
X147294295Y-107465350D02*
X147294295Y-107960588D01*
D10*
X151408940Y-105319048D02*
X150608940Y-105319048D01*
X150608940Y-105319048D02*
X150608940Y-105623810D01*
X150608940Y-105623810D02*
X150647035Y-105700000D01*
X150647035Y-105700000D02*
X150685130Y-105738095D01*
X150685130Y-105738095D02*
X150761321Y-105776191D01*
X150761321Y-105776191D02*
X150875606Y-105776191D01*
X150875606Y-105776191D02*
X150951797Y-105738095D01*
X150951797Y-105738095D02*
X150989892Y-105700000D01*
X150989892Y-105700000D02*
X151027987Y-105623810D01*
X151027987Y-105623810D02*
X151027987Y-105319048D01*
X151408940Y-106233333D02*
X151370845Y-106157143D01*
X151370845Y-106157143D02*
X151332749Y-106119048D01*
X151332749Y-106119048D02*
X151256559Y-106080952D01*
X151256559Y-106080952D02*
X151027987Y-106080952D01*
X151027987Y-106080952D02*
X150951797Y-106119048D01*
X150951797Y-106119048D02*
X150913702Y-106157143D01*
X150913702Y-106157143D02*
X150875606Y-106233333D01*
X150875606Y-106233333D02*
X150875606Y-106347619D01*
X150875606Y-106347619D02*
X150913702Y-106423810D01*
X150913702Y-106423810D02*
X150951797Y-106461905D01*
X150951797Y-106461905D02*
X151027987Y-106500000D01*
X151027987Y-106500000D02*
X151256559Y-106500000D01*
X151256559Y-106500000D02*
X151332749Y-106461905D01*
X151332749Y-106461905D02*
X151370845Y-106423810D01*
X151370845Y-106423810D02*
X151408940Y-106347619D01*
X151408940Y-106347619D02*
X151408940Y-106233333D01*
X150875606Y-106766667D02*
X151408940Y-106919048D01*
X151408940Y-106919048D02*
X151027987Y-107071429D01*
X151027987Y-107071429D02*
X151408940Y-107223810D01*
X151408940Y-107223810D02*
X150875606Y-107376191D01*
X151370845Y-107985715D02*
X151408940Y-107909524D01*
X151408940Y-107909524D02*
X151408940Y-107757143D01*
X151408940Y-107757143D02*
X151370845Y-107680953D01*
X151370845Y-107680953D02*
X151294654Y-107642857D01*
X151294654Y-107642857D02*
X150989892Y-107642857D01*
X150989892Y-107642857D02*
X150913702Y-107680953D01*
X150913702Y-107680953D02*
X150875606Y-107757143D01*
X150875606Y-107757143D02*
X150875606Y-107909524D01*
X150875606Y-107909524D02*
X150913702Y-107985715D01*
X150913702Y-107985715D02*
X150989892Y-108023810D01*
X150989892Y-108023810D02*
X151066083Y-108023810D01*
X151066083Y-108023810D02*
X151142273Y-107642857D01*
X151408940Y-108366667D02*
X150875606Y-108366667D01*
X151027987Y-108366667D02*
X150951797Y-108404762D01*
X150951797Y-108404762D02*
X150913702Y-108442857D01*
X150913702Y-108442857D02*
X150875606Y-108519048D01*
X150875606Y-108519048D02*
X150875606Y-108595238D01*
X152658800Y-105071427D02*
X152696895Y-105185713D01*
X152696895Y-105185713D02*
X152696895Y-105376189D01*
X152696895Y-105376189D02*
X152658800Y-105452380D01*
X152658800Y-105452380D02*
X152620704Y-105490475D01*
X152620704Y-105490475D02*
X152544514Y-105528570D01*
X152544514Y-105528570D02*
X152468323Y-105528570D01*
X152468323Y-105528570D02*
X152392133Y-105490475D01*
X152392133Y-105490475D02*
X152354038Y-105452380D01*
X152354038Y-105452380D02*
X152315942Y-105376189D01*
X152315942Y-105376189D02*
X152277847Y-105223808D01*
X152277847Y-105223808D02*
X152239752Y-105147618D01*
X152239752Y-105147618D02*
X152201657Y-105109523D01*
X152201657Y-105109523D02*
X152125466Y-105071427D01*
X152125466Y-105071427D02*
X152049276Y-105071427D01*
X152049276Y-105071427D02*
X151973085Y-105109523D01*
X151973085Y-105109523D02*
X151934990Y-105147618D01*
X151934990Y-105147618D02*
X151896895Y-105223808D01*
X151896895Y-105223808D02*
X151896895Y-105414285D01*
X151896895Y-105414285D02*
X151934990Y-105528570D01*
X152163561Y-106214285D02*
X152696895Y-106214285D01*
X152163561Y-105871428D02*
X152582609Y-105871428D01*
X152582609Y-105871428D02*
X152658800Y-105909523D01*
X152658800Y-105909523D02*
X152696895Y-105985713D01*
X152696895Y-105985713D02*
X152696895Y-106099999D01*
X152696895Y-106099999D02*
X152658800Y-106176190D01*
X152658800Y-106176190D02*
X152620704Y-106214285D01*
X152163561Y-106595238D02*
X152963561Y-106595238D01*
X152201657Y-106595238D02*
X152163561Y-106671428D01*
X152163561Y-106671428D02*
X152163561Y-106823809D01*
X152163561Y-106823809D02*
X152201657Y-106900000D01*
X152201657Y-106900000D02*
X152239752Y-106938095D01*
X152239752Y-106938095D02*
X152315942Y-106976190D01*
X152315942Y-106976190D02*
X152544514Y-106976190D01*
X152544514Y-106976190D02*
X152620704Y-106938095D01*
X152620704Y-106938095D02*
X152658800Y-106900000D01*
X152658800Y-106900000D02*
X152696895Y-106823809D01*
X152696895Y-106823809D02*
X152696895Y-106671428D01*
X152696895Y-106671428D02*
X152658800Y-106595238D01*
X152163561Y-107319048D02*
X152963561Y-107319048D01*
X152201657Y-107319048D02*
X152163561Y-107395238D01*
X152163561Y-107395238D02*
X152163561Y-107547619D01*
X152163561Y-107547619D02*
X152201657Y-107623810D01*
X152201657Y-107623810D02*
X152239752Y-107661905D01*
X152239752Y-107661905D02*
X152315942Y-107700000D01*
X152315942Y-107700000D02*
X152544514Y-107700000D01*
X152544514Y-107700000D02*
X152620704Y-107661905D01*
X152620704Y-107661905D02*
X152658800Y-107623810D01*
X152658800Y-107623810D02*
X152696895Y-107547619D01*
X152696895Y-107547619D02*
X152696895Y-107395238D01*
X152696895Y-107395238D02*
X152658800Y-107319048D01*
X152696895Y-108157143D02*
X152658800Y-108080953D01*
X152658800Y-108080953D02*
X152582609Y-108042858D01*
X152582609Y-108042858D02*
X151896895Y-108042858D01*
X152163561Y-108385715D02*
X152696895Y-108576191D01*
X152163561Y-108766668D02*
X152696895Y-108576191D01*
X152696895Y-108576191D02*
X152887371Y-108500001D01*
X152887371Y-108500001D02*
X152925466Y-108461906D01*
X152925466Y-108461906D02*
X152963561Y-108385715D01*
D12*
%TO.C,REF\u002A\u002A*%
X149666264Y-120323873D02*
X149683739Y-120355233D01*
X149684575Y-120391034D01*
X149664082Y-120422472D01*
X149659416Y-120426348D01*
X149649949Y-120431814D01*
X149636267Y-120436021D01*
X149615748Y-120439133D01*
X149585768Y-120441313D01*
X149543704Y-120442724D01*
X149486932Y-120443529D01*
X149412830Y-120443893D01*
X149318773Y-120443978D01*
X148997227Y-120443978D01*
X148975647Y-120417327D01*
X148960877Y-120393614D01*
X148954067Y-120370600D01*
X148959949Y-120349594D01*
X148975647Y-120323873D01*
X148997227Y-120297222D01*
X149644684Y-120297222D01*
X149666264Y-120323873D01*
G36*
X149666264Y-120323873D02*
G01*
X149683739Y-120355233D01*
X149684575Y-120391034D01*
X149664082Y-120422472D01*
X149659416Y-120426348D01*
X149649949Y-120431814D01*
X149636267Y-120436021D01*
X149615748Y-120439133D01*
X149585768Y-120441313D01*
X149543704Y-120442724D01*
X149486932Y-120443529D01*
X149412830Y-120443893D01*
X149318773Y-120443978D01*
X148997227Y-120443978D01*
X148975647Y-120417327D01*
X148960877Y-120393614D01*
X148954067Y-120370600D01*
X148959949Y-120349594D01*
X148975647Y-120323873D01*
X148997227Y-120297222D01*
X149644684Y-120297222D01*
X149666264Y-120323873D01*
G37*
X149406567Y-113157041D02*
X149480789Y-113157299D01*
X149537541Y-113157970D01*
X149579512Y-113159248D01*
X149609389Y-113161327D01*
X149629861Y-113164401D01*
X149643614Y-113168666D01*
X149653337Y-113174316D01*
X149661717Y-113181545D01*
X149683181Y-113213009D01*
X149684947Y-113248174D01*
X149665267Y-113281178D01*
X149659398Y-113286484D01*
X149650314Y-113291934D01*
X149636973Y-113296100D01*
X149616757Y-113299154D01*
X149587049Y-113301268D01*
X149545232Y-113302614D01*
X149488689Y-113303362D01*
X149414802Y-113303686D01*
X149320956Y-113303755D01*
X149245294Y-113303716D01*
X149167385Y-113303461D01*
X149107375Y-113302817D01*
X149062648Y-113301613D01*
X149030585Y-113299676D01*
X149008571Y-113296836D01*
X148993987Y-113292921D01*
X148984218Y-113287758D01*
X148976645Y-113281178D01*
X148957623Y-113251994D01*
X148958463Y-113218863D01*
X148981776Y-113184709D01*
X149009485Y-113157000D01*
X149322537Y-113157000D01*
X149406567Y-113157041D01*
G36*
X149406567Y-113157041D02*
G01*
X149480789Y-113157299D01*
X149537541Y-113157970D01*
X149579512Y-113159248D01*
X149609389Y-113161327D01*
X149629861Y-113164401D01*
X149643614Y-113168666D01*
X149653337Y-113174316D01*
X149661717Y-113181545D01*
X149683181Y-113213009D01*
X149684947Y-113248174D01*
X149665267Y-113281178D01*
X149659398Y-113286484D01*
X149650314Y-113291934D01*
X149636973Y-113296100D01*
X149616757Y-113299154D01*
X149587049Y-113301268D01*
X149545232Y-113302614D01*
X149488689Y-113303362D01*
X149414802Y-113303686D01*
X149320956Y-113303755D01*
X149245294Y-113303716D01*
X149167385Y-113303461D01*
X149107375Y-113302817D01*
X149062648Y-113301613D01*
X149030585Y-113299676D01*
X149008571Y-113296836D01*
X148993987Y-113292921D01*
X148984218Y-113287758D01*
X148976645Y-113281178D01*
X148957623Y-113251994D01*
X148958463Y-113218863D01*
X148981776Y-113184709D01*
X149009485Y-113157000D01*
X149322537Y-113157000D01*
X149406567Y-113157041D01*
G37*
X144219307Y-113400331D02*
X144260450Y-113402540D01*
X144292582Y-113408106D01*
X144323122Y-113418414D01*
X144359489Y-113434852D01*
X144386728Y-113448800D01*
X144472429Y-113507335D01*
X144541617Y-113579381D01*
X144592741Y-113663053D01*
X144624250Y-113756469D01*
X144631225Y-113789566D01*
X144638094Y-113830040D01*
X144639919Y-113863001D01*
X144636947Y-113897302D01*
X144629426Y-113941800D01*
X144617002Y-113993066D01*
X144579112Y-114083566D01*
X144524836Y-114162655D01*
X144456770Y-114228472D01*
X144377511Y-114279160D01*
X144289654Y-114312860D01*
X144195795Y-114327714D01*
X144098530Y-114321864D01*
X144002220Y-114295601D01*
X143913494Y-114250582D01*
X143838419Y-114189627D01*
X143778641Y-114114816D01*
X143735809Y-114028232D01*
X143711571Y-113931957D01*
X143707576Y-113828072D01*
X143717850Y-113750438D01*
X143745053Y-113667687D01*
X143790484Y-113592594D01*
X143856302Y-113520702D01*
X143900567Y-113482154D01*
X143958961Y-113442744D01*
X144019586Y-113417554D01*
X144088865Y-113404139D01*
X144173222Y-113400052D01*
X144219307Y-113400331D01*
G36*
X144219307Y-113400331D02*
G01*
X144260450Y-113402540D01*
X144292582Y-113408106D01*
X144323122Y-113418414D01*
X144359489Y-113434852D01*
X144386728Y-113448800D01*
X144472429Y-113507335D01*
X144541617Y-113579381D01*
X144592741Y-113663053D01*
X144624250Y-113756469D01*
X144631225Y-113789566D01*
X144638094Y-113830040D01*
X144639919Y-113863001D01*
X144636947Y-113897302D01*
X144629426Y-113941800D01*
X144617002Y-113993066D01*
X144579112Y-114083566D01*
X144524836Y-114162655D01*
X144456770Y-114228472D01*
X144377511Y-114279160D01*
X144289654Y-114312860D01*
X144195795Y-114327714D01*
X144098530Y-114321864D01*
X144002220Y-114295601D01*
X143913494Y-114250582D01*
X143838419Y-114189627D01*
X143778641Y-114114816D01*
X143735809Y-114028232D01*
X143711571Y-113931957D01*
X143707576Y-113828072D01*
X143717850Y-113750438D01*
X143745053Y-113667687D01*
X143790484Y-113592594D01*
X143856302Y-113520702D01*
X143900567Y-113482154D01*
X143958961Y-113442744D01*
X144019586Y-113417554D01*
X144088865Y-113404139D01*
X144173222Y-113400052D01*
X144219307Y-113400331D01*
G37*
X149080178Y-120694083D02*
X149081631Y-120695443D01*
X149089992Y-120706646D01*
X149095547Y-120723748D01*
X149098840Y-120750918D01*
X149100418Y-120792322D01*
X149100822Y-120852127D01*
X149100822Y-120991489D01*
X149364589Y-120991489D01*
X149440417Y-120991564D01*
X149507083Y-120991972D01*
X149556867Y-120992954D01*
X149592784Y-120994750D01*
X149617850Y-120997601D01*
X149635081Y-121001747D01*
X149647492Y-121007429D01*
X149658100Y-121014886D01*
X149660906Y-121017176D01*
X149683548Y-121048354D01*
X149685112Y-121082734D01*
X149665267Y-121115666D01*
X149657191Y-121122645D01*
X149646593Y-121128117D01*
X149630749Y-121132137D01*
X149606773Y-121134928D01*
X149571774Y-121136712D01*
X149522864Y-121137711D01*
X149457154Y-121138148D01*
X149371756Y-121138244D01*
X149100822Y-121138244D01*
X149100822Y-121284180D01*
X149100821Y-121295280D01*
X149100596Y-121351798D01*
X149099457Y-121390642D01*
X149096657Y-121416035D01*
X149091450Y-121432196D01*
X149083089Y-121443348D01*
X149070826Y-121453711D01*
X149040138Y-121469559D01*
X149006358Y-121466457D01*
X148973822Y-121440813D01*
X148970105Y-121435871D01*
X148965269Y-121425662D01*
X148961506Y-121410236D01*
X148958683Y-121387114D01*
X148956670Y-121353817D01*
X148955333Y-121307863D01*
X148954542Y-121246772D01*
X148954163Y-121168065D01*
X148954067Y-121069260D01*
X148954068Y-121049233D01*
X148954158Y-120955110D01*
X148954498Y-120880595D01*
X148955239Y-120823189D01*
X148956535Y-120780389D01*
X148958537Y-120749696D01*
X148961396Y-120728609D01*
X148965266Y-120714627D01*
X148970298Y-120705250D01*
X148976645Y-120697978D01*
X149009362Y-120679172D01*
X149046939Y-120677725D01*
X149080178Y-120694083D01*
G36*
X149080178Y-120694083D02*
G01*
X149081631Y-120695443D01*
X149089992Y-120706646D01*
X149095547Y-120723748D01*
X149098840Y-120750918D01*
X149100418Y-120792322D01*
X149100822Y-120852127D01*
X149100822Y-120991489D01*
X149364589Y-120991489D01*
X149440417Y-120991564D01*
X149507083Y-120991972D01*
X149556867Y-120992954D01*
X149592784Y-120994750D01*
X149617850Y-120997601D01*
X149635081Y-121001747D01*
X149647492Y-121007429D01*
X149658100Y-121014886D01*
X149660906Y-121017176D01*
X149683548Y-121048354D01*
X149685112Y-121082734D01*
X149665267Y-121115666D01*
X149657191Y-121122645D01*
X149646593Y-121128117D01*
X149630749Y-121132137D01*
X149606773Y-121134928D01*
X149571774Y-121136712D01*
X149522864Y-121137711D01*
X149457154Y-121138148D01*
X149371756Y-121138244D01*
X149100822Y-121138244D01*
X149100822Y-121284180D01*
X149100821Y-121295280D01*
X149100596Y-121351798D01*
X149099457Y-121390642D01*
X149096657Y-121416035D01*
X149091450Y-121432196D01*
X149083089Y-121443348D01*
X149070826Y-121453711D01*
X149040138Y-121469559D01*
X149006358Y-121466457D01*
X148973822Y-121440813D01*
X148970105Y-121435871D01*
X148965269Y-121425662D01*
X148961506Y-121410236D01*
X148958683Y-121387114D01*
X148956670Y-121353817D01*
X148955333Y-121307863D01*
X148954542Y-121246772D01*
X148954163Y-121168065D01*
X148954067Y-121069260D01*
X148954068Y-121049233D01*
X148954158Y-120955110D01*
X148954498Y-120880595D01*
X148955239Y-120823189D01*
X148956535Y-120780389D01*
X148958537Y-120749696D01*
X148961396Y-120728609D01*
X148965266Y-120714627D01*
X148970298Y-120705250D01*
X148976645Y-120697978D01*
X149009362Y-120679172D01*
X149046939Y-120677725D01*
X149080178Y-120694083D01*
G37*
X149362631Y-121701891D02*
X149479000Y-121702375D01*
X149493175Y-121702443D01*
X149554937Y-121703029D01*
X149598620Y-121704352D01*
X149628001Y-121706897D01*
X149646855Y-121711152D01*
X149658959Y-121717604D01*
X149668089Y-121726738D01*
X149685506Y-121760196D01*
X149682604Y-121795144D01*
X149658100Y-121826047D01*
X149644897Y-121835056D01*
X149626361Y-121842508D01*
X149600333Y-121846876D01*
X149561787Y-121848931D01*
X149505700Y-121849444D01*
X149383045Y-121849444D01*
X149383045Y-122346155D01*
X149517871Y-122346155D01*
X149553662Y-122346228D01*
X149599992Y-122346991D01*
X149630526Y-122349167D01*
X149649557Y-122353464D01*
X149661374Y-122360588D01*
X149670271Y-122371245D01*
X149685341Y-122403496D01*
X149682673Y-122438783D01*
X149658100Y-122469514D01*
X149651845Y-122474169D01*
X149641321Y-122480105D01*
X149627391Y-122484636D01*
X149607317Y-122487952D01*
X149578360Y-122490241D01*
X149537780Y-122491692D01*
X149482840Y-122492495D01*
X149410799Y-122492838D01*
X149318920Y-122492911D01*
X149009485Y-122492911D01*
X148981776Y-122465202D01*
X148959533Y-122433823D01*
X148956844Y-122400594D01*
X148976645Y-122368733D01*
X148986415Y-122360447D01*
X149002307Y-122353035D01*
X149026275Y-122348698D01*
X149063148Y-122346662D01*
X149117756Y-122346155D01*
X149236289Y-122346155D01*
X149236289Y-121849444D01*
X149120776Y-121849444D01*
X149069078Y-121849006D01*
X149034554Y-121847042D01*
X149011978Y-121842526D01*
X148996126Y-121834433D01*
X148981776Y-121821735D01*
X148959533Y-121790357D01*
X148956844Y-121757128D01*
X148976645Y-121725266D01*
X148982835Y-121719634D01*
X148991041Y-121714544D01*
X149002817Y-121710457D01*
X149020276Y-121707279D01*
X149045530Y-121704913D01*
X149080690Y-121703262D01*
X149127869Y-121702231D01*
X149189177Y-121701723D01*
X149266727Y-121701641D01*
X149362631Y-121701891D01*
G36*
X149362631Y-121701891D02*
G01*
X149479000Y-121702375D01*
X149493175Y-121702443D01*
X149554937Y-121703029D01*
X149598620Y-121704352D01*
X149628001Y-121706897D01*
X149646855Y-121711152D01*
X149658959Y-121717604D01*
X149668089Y-121726738D01*
X149685506Y-121760196D01*
X149682604Y-121795144D01*
X149658100Y-121826047D01*
X149644897Y-121835056D01*
X149626361Y-121842508D01*
X149600333Y-121846876D01*
X149561787Y-121848931D01*
X149505700Y-121849444D01*
X149383045Y-121849444D01*
X149383045Y-122346155D01*
X149517871Y-122346155D01*
X149553662Y-122346228D01*
X149599992Y-122346991D01*
X149630526Y-122349167D01*
X149649557Y-122353464D01*
X149661374Y-122360588D01*
X149670271Y-122371245D01*
X149685341Y-122403496D01*
X149682673Y-122438783D01*
X149658100Y-122469514D01*
X149651845Y-122474169D01*
X149641321Y-122480105D01*
X149627391Y-122484636D01*
X149607317Y-122487952D01*
X149578360Y-122490241D01*
X149537780Y-122491692D01*
X149482840Y-122492495D01*
X149410799Y-122492838D01*
X149318920Y-122492911D01*
X149009485Y-122492911D01*
X148981776Y-122465202D01*
X148959533Y-122433823D01*
X148956844Y-122400594D01*
X148976645Y-122368733D01*
X148986415Y-122360447D01*
X149002307Y-122353035D01*
X149026275Y-122348698D01*
X149063148Y-122346662D01*
X149117756Y-122346155D01*
X149236289Y-122346155D01*
X149236289Y-121849444D01*
X149120776Y-121849444D01*
X149069078Y-121849006D01*
X149034554Y-121847042D01*
X149011978Y-121842526D01*
X148996126Y-121834433D01*
X148981776Y-121821735D01*
X148959533Y-121790357D01*
X148956844Y-121757128D01*
X148976645Y-121725266D01*
X148982835Y-121719634D01*
X148991041Y-121714544D01*
X149002817Y-121710457D01*
X149020276Y-121707279D01*
X149045530Y-121704913D01*
X149080690Y-121703262D01*
X149127869Y-121702231D01*
X149189177Y-121701723D01*
X149266727Y-121701641D01*
X149362631Y-121701891D01*
G37*
X149380526Y-117017825D02*
X149459311Y-117018050D01*
X149520021Y-117018668D01*
X149541089Y-117019225D01*
X149565396Y-117019867D01*
X149598175Y-117021837D01*
X149621095Y-117024765D01*
X149636897Y-117028842D01*
X149648319Y-117034257D01*
X149658100Y-117041197D01*
X149687845Y-117064594D01*
X149687251Y-117230286D01*
X149686953Y-117265082D01*
X149683522Y-117363565D01*
X149675839Y-117444527D01*
X149663282Y-117511621D01*
X149645227Y-117568504D01*
X149621052Y-117618831D01*
X149619135Y-117622190D01*
X149582417Y-117680002D01*
X149545451Y-117722356D01*
X149501966Y-117755172D01*
X149445689Y-117784372D01*
X149436073Y-117788654D01*
X149372887Y-117811231D01*
X149317509Y-117818203D01*
X149262483Y-117809601D01*
X149200351Y-117785459D01*
X149198658Y-117784663D01*
X149129236Y-117744212D01*
X149072638Y-117693527D01*
X149028070Y-117630802D01*
X148994741Y-117554226D01*
X148971861Y-117461991D01*
X148958636Y-117352288D01*
X148954275Y-117223309D01*
X148954270Y-117219737D01*
X148954372Y-117175844D01*
X149100822Y-117175844D01*
X149101270Y-117263333D01*
X149103746Y-117330253D01*
X149114998Y-117422651D01*
X149134537Y-117501966D01*
X149161511Y-117563940D01*
X149182240Y-117594880D01*
X149212006Y-117623000D01*
X149254434Y-117646340D01*
X149270400Y-117653467D01*
X149302902Y-117665291D01*
X149327333Y-117667721D01*
X149352061Y-117662108D01*
X149367939Y-117656382D01*
X149427847Y-117623452D01*
X149473600Y-117576114D01*
X149506736Y-117512348D01*
X149528790Y-117430139D01*
X149529292Y-117427345D01*
X149535255Y-117381060D01*
X149539483Y-117324664D01*
X149541089Y-117269726D01*
X149541089Y-117175844D01*
X149100822Y-117175844D01*
X148954372Y-117175844D01*
X148954410Y-117159717D01*
X148955446Y-117117786D01*
X148958040Y-117089672D01*
X148962853Y-117071103D01*
X148970544Y-117057806D01*
X148981776Y-117045509D01*
X149009485Y-117017800D01*
X149318920Y-117017800D01*
X149380526Y-117017825D01*
G36*
X149380526Y-117017825D02*
G01*
X149459311Y-117018050D01*
X149520021Y-117018668D01*
X149541089Y-117019225D01*
X149565396Y-117019867D01*
X149598175Y-117021837D01*
X149621095Y-117024765D01*
X149636897Y-117028842D01*
X149648319Y-117034257D01*
X149658100Y-117041197D01*
X149687845Y-117064594D01*
X149687251Y-117230286D01*
X149686953Y-117265082D01*
X149683522Y-117363565D01*
X149675839Y-117444527D01*
X149663282Y-117511621D01*
X149645227Y-117568504D01*
X149621052Y-117618831D01*
X149619135Y-117622190D01*
X149582417Y-117680002D01*
X149545451Y-117722356D01*
X149501966Y-117755172D01*
X149445689Y-117784372D01*
X149436073Y-117788654D01*
X149372887Y-117811231D01*
X149317509Y-117818203D01*
X149262483Y-117809601D01*
X149200351Y-117785459D01*
X149198658Y-117784663D01*
X149129236Y-117744212D01*
X149072638Y-117693527D01*
X149028070Y-117630802D01*
X148994741Y-117554226D01*
X148971861Y-117461991D01*
X148958636Y-117352288D01*
X148954275Y-117223309D01*
X148954270Y-117219737D01*
X148954372Y-117175844D01*
X149100822Y-117175844D01*
X149101270Y-117263333D01*
X149103746Y-117330253D01*
X149114998Y-117422651D01*
X149134537Y-117501966D01*
X149161511Y-117563940D01*
X149182240Y-117594880D01*
X149212006Y-117623000D01*
X149254434Y-117646340D01*
X149270400Y-117653467D01*
X149302902Y-117665291D01*
X149327333Y-117667721D01*
X149352061Y-117662108D01*
X149367939Y-117656382D01*
X149427847Y-117623452D01*
X149473600Y-117576114D01*
X149506736Y-117512348D01*
X149528790Y-117430139D01*
X149529292Y-117427345D01*
X149535255Y-117381060D01*
X149539483Y-117324664D01*
X149541089Y-117269726D01*
X149541089Y-117175844D01*
X149100822Y-117175844D01*
X148954372Y-117175844D01*
X148954410Y-117159717D01*
X148955446Y-117117786D01*
X148958040Y-117089672D01*
X148962853Y-117071103D01*
X148970544Y-117057806D01*
X148981776Y-117045509D01*
X149009485Y-117017800D01*
X149318920Y-117017800D01*
X149380526Y-117017825D01*
G37*
X149320956Y-109928378D02*
X149396617Y-109928417D01*
X149474526Y-109928672D01*
X149534536Y-109929316D01*
X149579264Y-109930520D01*
X149611326Y-109932457D01*
X149633340Y-109935297D01*
X149647924Y-109939212D01*
X149657694Y-109944374D01*
X149665267Y-109950955D01*
X149671501Y-109957923D01*
X149678801Y-109970921D01*
X149683554Y-109990069D01*
X149686292Y-110019472D01*
X149687545Y-110063238D01*
X149687845Y-110125472D01*
X149687469Y-110174418D01*
X149683041Y-110281278D01*
X149672953Y-110370506D01*
X149656365Y-110445304D01*
X149632435Y-110508875D01*
X149600321Y-110564421D01*
X149559182Y-110615146D01*
X149553330Y-110621134D01*
X149504821Y-110658001D01*
X149444013Y-110689101D01*
X149379769Y-110710583D01*
X149320956Y-110718600D01*
X149299739Y-110717321D01*
X149242323Y-110705009D01*
X149182413Y-110682480D01*
X149128363Y-110653250D01*
X149088532Y-110620833D01*
X149071510Y-110601292D01*
X149032322Y-110546580D01*
X149002193Y-110486277D01*
X148980232Y-110417081D01*
X148965550Y-110335689D01*
X148957259Y-110238800D01*
X148955148Y-110151333D01*
X149100808Y-110151333D01*
X149100817Y-110154361D01*
X149102782Y-110205481D01*
X149107507Y-110265584D01*
X149114035Y-110322292D01*
X149123331Y-110372250D01*
X149149600Y-110447002D01*
X149188899Y-110504511D01*
X149241933Y-110546012D01*
X149293200Y-110567229D01*
X149341026Y-110568647D01*
X149391961Y-110550365D01*
X149437878Y-110520695D01*
X149480287Y-110473998D01*
X149510090Y-110412608D01*
X149529226Y-110333462D01*
X149529464Y-110331972D01*
X149535256Y-110283001D01*
X149539396Y-110224307D01*
X149541004Y-110168266D01*
X149541089Y-110075133D01*
X149100822Y-110075133D01*
X149100808Y-110151333D01*
X148955148Y-110151333D01*
X148954467Y-110123111D01*
X148954066Y-110083629D01*
X148953653Y-110037918D01*
X148955457Y-110002117D01*
X148961739Y-109975026D01*
X148974759Y-109955444D01*
X148996778Y-109942170D01*
X149030055Y-109934002D01*
X149076851Y-109929740D01*
X149100822Y-109929143D01*
X149139427Y-109928183D01*
X149220041Y-109928130D01*
X149320956Y-109928378D01*
G36*
X149320956Y-109928378D02*
G01*
X149396617Y-109928417D01*
X149474526Y-109928672D01*
X149534536Y-109929316D01*
X149579264Y-109930520D01*
X149611326Y-109932457D01*
X149633340Y-109935297D01*
X149647924Y-109939212D01*
X149657694Y-109944374D01*
X149665267Y-109950955D01*
X149671501Y-109957923D01*
X149678801Y-109970921D01*
X149683554Y-109990069D01*
X149686292Y-110019472D01*
X149687545Y-110063238D01*
X149687845Y-110125472D01*
X149687469Y-110174418D01*
X149683041Y-110281278D01*
X149672953Y-110370506D01*
X149656365Y-110445304D01*
X149632435Y-110508875D01*
X149600321Y-110564421D01*
X149559182Y-110615146D01*
X149553330Y-110621134D01*
X149504821Y-110658001D01*
X149444013Y-110689101D01*
X149379769Y-110710583D01*
X149320956Y-110718600D01*
X149299739Y-110717321D01*
X149242323Y-110705009D01*
X149182413Y-110682480D01*
X149128363Y-110653250D01*
X149088532Y-110620833D01*
X149071510Y-110601292D01*
X149032322Y-110546580D01*
X149002193Y-110486277D01*
X148980232Y-110417081D01*
X148965550Y-110335689D01*
X148957259Y-110238800D01*
X148955148Y-110151333D01*
X149100808Y-110151333D01*
X149100817Y-110154361D01*
X149102782Y-110205481D01*
X149107507Y-110265584D01*
X149114035Y-110322292D01*
X149123331Y-110372250D01*
X149149600Y-110447002D01*
X149188899Y-110504511D01*
X149241933Y-110546012D01*
X149293200Y-110567229D01*
X149341026Y-110568647D01*
X149391961Y-110550365D01*
X149437878Y-110520695D01*
X149480287Y-110473998D01*
X149510090Y-110412608D01*
X149529226Y-110333462D01*
X149529464Y-110331972D01*
X149535256Y-110283001D01*
X149539396Y-110224307D01*
X149541004Y-110168266D01*
X149541089Y-110075133D01*
X149100822Y-110075133D01*
X149100808Y-110151333D01*
X148955148Y-110151333D01*
X148954467Y-110123111D01*
X148954066Y-110083629D01*
X148953653Y-110037918D01*
X148955457Y-110002117D01*
X148961739Y-109975026D01*
X148974759Y-109955444D01*
X148996778Y-109942170D01*
X149030055Y-109934002D01*
X149076851Y-109929740D01*
X149100822Y-109929143D01*
X149139427Y-109928183D01*
X149220041Y-109928130D01*
X149320956Y-109928378D01*
G37*
X149379486Y-114816489D02*
X149458573Y-114816708D01*
X149519516Y-114817317D01*
X149565062Y-114818508D01*
X149597963Y-114820471D01*
X149620968Y-114823397D01*
X149636826Y-114827477D01*
X149648286Y-114832903D01*
X149658100Y-114839864D01*
X149682493Y-114870292D01*
X149685372Y-114905235D01*
X149666282Y-114942216D01*
X149662807Y-114946400D01*
X149654279Y-114954576D01*
X149642728Y-114960636D01*
X149624896Y-114965019D01*
X149597524Y-114968161D01*
X149557354Y-114970498D01*
X149501128Y-114972469D01*
X149425589Y-114974511D01*
X149206458Y-114980155D01*
X149447099Y-115245444D01*
X149513875Y-115319278D01*
X149571991Y-115384458D01*
X149616949Y-115436652D01*
X149649871Y-115477727D01*
X149671879Y-115509545D01*
X149684094Y-115533974D01*
X149687639Y-115552876D01*
X149683636Y-115568117D01*
X149673207Y-115581561D01*
X149657474Y-115595073D01*
X149648991Y-115601318D01*
X149638413Y-115606950D01*
X149624255Y-115611161D01*
X149603803Y-115614113D01*
X149574342Y-115615968D01*
X149533161Y-115616887D01*
X149477544Y-115617032D01*
X149404779Y-115616565D01*
X149312151Y-115615648D01*
X148997199Y-115612333D01*
X148975633Y-115585682D01*
X148959441Y-115559617D01*
X148956670Y-115526759D01*
X148975623Y-115492228D01*
X148979208Y-115487916D01*
X148987737Y-115479784D01*
X148999329Y-115473755D01*
X149017235Y-115469394D01*
X149044706Y-115466266D01*
X149084994Y-115463937D01*
X149141351Y-115461971D01*
X149217029Y-115459933D01*
X149436878Y-115454289D01*
X149273084Y-115273666D01*
X149194451Y-115186928D01*
X149126058Y-115111157D01*
X149070708Y-115049020D01*
X149027338Y-114998922D01*
X148994881Y-114959265D01*
X148972273Y-114928452D01*
X148958448Y-114904886D01*
X148952343Y-114886970D01*
X148952892Y-114873107D01*
X148959029Y-114861699D01*
X148969691Y-114851150D01*
X148983811Y-114839864D01*
X148989772Y-114835411D01*
X149000268Y-114829412D01*
X149014093Y-114824833D01*
X149033998Y-114821481D01*
X149062732Y-114819167D01*
X149103045Y-114817699D01*
X149157687Y-114816887D01*
X149229407Y-114816540D01*
X149320956Y-114816466D01*
X149379486Y-114816489D01*
G36*
X149379486Y-114816489D02*
G01*
X149458573Y-114816708D01*
X149519516Y-114817317D01*
X149565062Y-114818508D01*
X149597963Y-114820471D01*
X149620968Y-114823397D01*
X149636826Y-114827477D01*
X149648286Y-114832903D01*
X149658100Y-114839864D01*
X149682493Y-114870292D01*
X149685372Y-114905235D01*
X149666282Y-114942216D01*
X149662807Y-114946400D01*
X149654279Y-114954576D01*
X149642728Y-114960636D01*
X149624896Y-114965019D01*
X149597524Y-114968161D01*
X149557354Y-114970498D01*
X149501128Y-114972469D01*
X149425589Y-114974511D01*
X149206458Y-114980155D01*
X149447099Y-115245444D01*
X149513875Y-115319278D01*
X149571991Y-115384458D01*
X149616949Y-115436652D01*
X149649871Y-115477727D01*
X149671879Y-115509545D01*
X149684094Y-115533974D01*
X149687639Y-115552876D01*
X149683636Y-115568117D01*
X149673207Y-115581561D01*
X149657474Y-115595073D01*
X149648991Y-115601318D01*
X149638413Y-115606950D01*
X149624255Y-115611161D01*
X149603803Y-115614113D01*
X149574342Y-115615968D01*
X149533161Y-115616887D01*
X149477544Y-115617032D01*
X149404779Y-115616565D01*
X149312151Y-115615648D01*
X148997199Y-115612333D01*
X148975633Y-115585682D01*
X148959441Y-115559617D01*
X148956670Y-115526759D01*
X148975623Y-115492228D01*
X148979208Y-115487916D01*
X148987737Y-115479784D01*
X148999329Y-115473755D01*
X149017235Y-115469394D01*
X149044706Y-115466266D01*
X149084994Y-115463937D01*
X149141351Y-115461971D01*
X149217029Y-115459933D01*
X149436878Y-115454289D01*
X149273084Y-115273666D01*
X149194451Y-115186928D01*
X149126058Y-115111157D01*
X149070708Y-115049020D01*
X149027338Y-114998922D01*
X148994881Y-114959265D01*
X148972273Y-114928452D01*
X148958448Y-114904886D01*
X148952343Y-114886970D01*
X148952892Y-114873107D01*
X148959029Y-114861699D01*
X148969691Y-114851150D01*
X148983811Y-114839864D01*
X148989772Y-114835411D01*
X149000268Y-114829412D01*
X149014093Y-114824833D01*
X149033998Y-114821481D01*
X149062732Y-114819167D01*
X149103045Y-114817699D01*
X149157687Y-114816887D01*
X149229407Y-114816540D01*
X149320956Y-114816466D01*
X149379486Y-114816489D01*
G37*
X149339259Y-113632702D02*
X149390592Y-113645643D01*
X149447118Y-113668806D01*
X149501035Y-113698698D01*
X149544539Y-113731827D01*
X149554887Y-113742023D01*
X149606662Y-113809108D01*
X149646554Y-113889234D01*
X149670956Y-113975444D01*
X149679068Y-114030408D01*
X149685673Y-114123861D01*
X149683586Y-114213642D01*
X149673340Y-114296131D01*
X149655470Y-114367714D01*
X149630508Y-114424772D01*
X149598988Y-114463689D01*
X149597012Y-114465064D01*
X149571786Y-114472152D01*
X149524535Y-114476391D01*
X149455071Y-114477800D01*
X149392838Y-114476940D01*
X149345456Y-114472220D01*
X149313353Y-114460530D01*
X149293800Y-114438761D01*
X149284070Y-114403802D01*
X149281433Y-114352544D01*
X149283161Y-114281877D01*
X149286173Y-114233257D01*
X149294366Y-114183061D01*
X149308419Y-114150567D01*
X149329654Y-114133108D01*
X149359394Y-114128017D01*
X149363936Y-114128123D01*
X149398730Y-114136825D01*
X149422147Y-114160835D01*
X149435347Y-114202100D01*
X149439489Y-114262569D01*
X149439489Y-114331044D01*
X149477841Y-114331044D01*
X149486976Y-114330994D01*
X149504227Y-114328773D01*
X149514521Y-114319506D01*
X149521459Y-114298125D01*
X149528641Y-114259564D01*
X149529575Y-114254090D01*
X149539478Y-114157140D01*
X149536559Y-114067148D01*
X149521829Y-113986240D01*
X149496299Y-113916541D01*
X149460978Y-113860176D01*
X149416879Y-113819271D01*
X149365012Y-113795949D01*
X149306388Y-113792337D01*
X149277494Y-113797855D01*
X149221604Y-113824539D01*
X149175945Y-113870727D01*
X149141108Y-113935709D01*
X149117690Y-114018771D01*
X149113241Y-114043445D01*
X149102742Y-114132774D01*
X149103971Y-114212581D01*
X149116906Y-114290674D01*
X149123696Y-114325817D01*
X149124713Y-114371255D01*
X149112182Y-114402570D01*
X149085395Y-114422723D01*
X149057148Y-114429107D01*
X149025924Y-114419621D01*
X149012499Y-114410292D01*
X148988967Y-114376057D01*
X148971095Y-114323435D01*
X148959599Y-114254919D01*
X148955192Y-114173000D01*
X148959179Y-114075850D01*
X148975494Y-113969843D01*
X149003545Y-113876031D01*
X149042452Y-113797235D01*
X149091334Y-113736281D01*
X149124195Y-113710211D01*
X149173394Y-113680703D01*
X149227252Y-113655432D01*
X149278419Y-113637782D01*
X149319544Y-113631142D01*
X149339259Y-113632702D01*
G36*
X149339259Y-113632702D02*
G01*
X149390592Y-113645643D01*
X149447118Y-113668806D01*
X149501035Y-113698698D01*
X149544539Y-113731827D01*
X149554887Y-113742023D01*
X149606662Y-113809108D01*
X149646554Y-113889234D01*
X149670956Y-113975444D01*
X149679068Y-114030408D01*
X149685673Y-114123861D01*
X149683586Y-114213642D01*
X149673340Y-114296131D01*
X149655470Y-114367714D01*
X149630508Y-114424772D01*
X149598988Y-114463689D01*
X149597012Y-114465064D01*
X149571786Y-114472152D01*
X149524535Y-114476391D01*
X149455071Y-114477800D01*
X149392838Y-114476940D01*
X149345456Y-114472220D01*
X149313353Y-114460530D01*
X149293800Y-114438761D01*
X149284070Y-114403802D01*
X149281433Y-114352544D01*
X149283161Y-114281877D01*
X149286173Y-114233257D01*
X149294366Y-114183061D01*
X149308419Y-114150567D01*
X149329654Y-114133108D01*
X149359394Y-114128017D01*
X149363936Y-114128123D01*
X149398730Y-114136825D01*
X149422147Y-114160835D01*
X149435347Y-114202100D01*
X149439489Y-114262569D01*
X149439489Y-114331044D01*
X149477841Y-114331044D01*
X149486976Y-114330994D01*
X149504227Y-114328773D01*
X149514521Y-114319506D01*
X149521459Y-114298125D01*
X149528641Y-114259564D01*
X149529575Y-114254090D01*
X149539478Y-114157140D01*
X149536559Y-114067148D01*
X149521829Y-113986240D01*
X149496299Y-113916541D01*
X149460978Y-113860176D01*
X149416879Y-113819271D01*
X149365012Y-113795949D01*
X149306388Y-113792337D01*
X149277494Y-113797855D01*
X149221604Y-113824539D01*
X149175945Y-113870727D01*
X149141108Y-113935709D01*
X149117690Y-114018771D01*
X149113241Y-114043445D01*
X149102742Y-114132774D01*
X149103971Y-114212581D01*
X149116906Y-114290674D01*
X149123696Y-114325817D01*
X149124713Y-114371255D01*
X149112182Y-114402570D01*
X149085395Y-114422723D01*
X149057148Y-114429107D01*
X149025924Y-114419621D01*
X149012499Y-114410292D01*
X148988967Y-114376057D01*
X148971095Y-114323435D01*
X148959599Y-114254919D01*
X148955192Y-114173000D01*
X148959179Y-114075850D01*
X148975494Y-113969843D01*
X149003545Y-113876031D01*
X149042452Y-113797235D01*
X149091334Y-113736281D01*
X149124195Y-113710211D01*
X149173394Y-113680703D01*
X149227252Y-113655432D01*
X149278419Y-113637782D01*
X149319544Y-113631142D01*
X149339259Y-113632702D01*
G37*
X149391911Y-116001829D02*
X149470228Y-116002061D01*
X149530496Y-116002681D01*
X149575393Y-116003874D01*
X149607602Y-116005821D01*
X149629800Y-116008706D01*
X149644669Y-116012712D01*
X149654889Y-116018021D01*
X149663138Y-116024817D01*
X149667795Y-116029332D01*
X149674282Y-116037562D01*
X149679194Y-116048922D01*
X149682749Y-116066190D01*
X149685167Y-116092145D01*
X149686667Y-116129564D01*
X149687467Y-116181227D01*
X149687787Y-116249911D01*
X149687845Y-116338394D01*
X149687838Y-116358069D01*
X149687572Y-116445094D01*
X149686806Y-116512746D01*
X149685392Y-116563701D01*
X149683180Y-116600633D01*
X149680022Y-116626217D01*
X149675769Y-116643129D01*
X149670271Y-116654043D01*
X149660285Y-116664536D01*
X149629168Y-116677797D01*
X149593280Y-116676614D01*
X149561733Y-116660450D01*
X149559457Y-116658261D01*
X149553189Y-116649573D01*
X149548523Y-116636231D01*
X149545227Y-116615248D01*
X149543068Y-116583637D01*
X149541814Y-116538410D01*
X149541231Y-116476580D01*
X149541089Y-116395161D01*
X149541089Y-116148555D01*
X149383045Y-116148555D01*
X149383045Y-116310994D01*
X149382964Y-116346662D01*
X149382167Y-116402432D01*
X149380162Y-116441570D01*
X149376521Y-116468024D01*
X149370812Y-116485741D01*
X149362607Y-116498671D01*
X149359423Y-116502314D01*
X149328448Y-116520722D01*
X149292112Y-116521356D01*
X149258493Y-116503817D01*
X149258424Y-116503755D01*
X149249798Y-116494084D01*
X149243742Y-116480791D01*
X149239811Y-116460083D01*
X149237556Y-116428172D01*
X149236531Y-116381266D01*
X149236289Y-116315576D01*
X149236289Y-116147429D01*
X149171378Y-116150814D01*
X149106467Y-116154200D01*
X149103414Y-116396277D01*
X149103086Y-116421293D01*
X149101606Y-116502913D01*
X149099222Y-116565232D01*
X149095227Y-116610846D01*
X149088913Y-116642348D01*
X149079574Y-116662333D01*
X149066503Y-116673396D01*
X149048992Y-116678131D01*
X149026335Y-116679133D01*
X149023970Y-116679127D01*
X149003939Y-116677973D01*
X148988146Y-116673176D01*
X148976090Y-116662368D01*
X148967267Y-116643183D01*
X148961175Y-116613255D01*
X148957311Y-116570217D01*
X148955174Y-116511701D01*
X148954260Y-116435343D01*
X148954067Y-116338774D01*
X148954067Y-116048594D01*
X148983811Y-116025197D01*
X148990495Y-116020248D01*
X149001066Y-116014404D01*
X149015153Y-116009943D01*
X149035478Y-116006679D01*
X149064765Y-116004426D01*
X149105737Y-116002998D01*
X149161117Y-116002208D01*
X149233628Y-116001871D01*
X149325994Y-116001800D01*
X149391911Y-116001829D01*
G36*
X149391911Y-116001829D02*
G01*
X149470228Y-116002061D01*
X149530496Y-116002681D01*
X149575393Y-116003874D01*
X149607602Y-116005821D01*
X149629800Y-116008706D01*
X149644669Y-116012712D01*
X149654889Y-116018021D01*
X149663138Y-116024817D01*
X149667795Y-116029332D01*
X149674282Y-116037562D01*
X149679194Y-116048922D01*
X149682749Y-116066190D01*
X149685167Y-116092145D01*
X149686667Y-116129564D01*
X149687467Y-116181227D01*
X149687787Y-116249911D01*
X149687845Y-116338394D01*
X149687838Y-116358069D01*
X149687572Y-116445094D01*
X149686806Y-116512746D01*
X149685392Y-116563701D01*
X149683180Y-116600633D01*
X149680022Y-116626217D01*
X149675769Y-116643129D01*
X149670271Y-116654043D01*
X149660285Y-116664536D01*
X149629168Y-116677797D01*
X149593280Y-116676614D01*
X149561733Y-116660450D01*
X149559457Y-116658261D01*
X149553189Y-116649573D01*
X149548523Y-116636231D01*
X149545227Y-116615248D01*
X149543068Y-116583637D01*
X149541814Y-116538410D01*
X149541231Y-116476580D01*
X149541089Y-116395161D01*
X149541089Y-116148555D01*
X149383045Y-116148555D01*
X149383045Y-116310994D01*
X149382964Y-116346662D01*
X149382167Y-116402432D01*
X149380162Y-116441570D01*
X149376521Y-116468024D01*
X149370812Y-116485741D01*
X149362607Y-116498671D01*
X149359423Y-116502314D01*
X149328448Y-116520722D01*
X149292112Y-116521356D01*
X149258493Y-116503817D01*
X149258424Y-116503755D01*
X149249798Y-116494084D01*
X149243742Y-116480791D01*
X149239811Y-116460083D01*
X149237556Y-116428172D01*
X149236531Y-116381266D01*
X149236289Y-116315576D01*
X149236289Y-116147429D01*
X149171378Y-116150814D01*
X149106467Y-116154200D01*
X149103414Y-116396277D01*
X149103086Y-116421293D01*
X149101606Y-116502913D01*
X149099222Y-116565232D01*
X149095227Y-116610846D01*
X149088913Y-116642348D01*
X149079574Y-116662333D01*
X149066503Y-116673396D01*
X149048992Y-116678131D01*
X149026335Y-116679133D01*
X149023970Y-116679127D01*
X149003939Y-116677973D01*
X148988146Y-116673176D01*
X148976090Y-116662368D01*
X148967267Y-116643183D01*
X148961175Y-116613255D01*
X148957311Y-116570217D01*
X148955174Y-116511701D01*
X148954260Y-116435343D01*
X148954067Y-116338774D01*
X148954067Y-116048594D01*
X148983811Y-116025197D01*
X148990495Y-116020248D01*
X149001066Y-116014404D01*
X149015153Y-116009943D01*
X149035478Y-116006679D01*
X149064765Y-116004426D01*
X149105737Y-116002998D01*
X149161117Y-116002208D01*
X149233628Y-116001871D01*
X149325994Y-116001800D01*
X149391911Y-116001829D01*
G37*
X149395713Y-111057303D02*
X149473889Y-111057552D01*
X149534103Y-111058188D01*
X149578982Y-111059385D01*
X149611152Y-111061316D01*
X149633239Y-111064154D01*
X149647870Y-111068073D01*
X149657670Y-111073245D01*
X149665267Y-111079844D01*
X149668444Y-111083178D01*
X149674554Y-111091700D01*
X149679229Y-111103702D01*
X149682659Y-111121913D01*
X149685036Y-111149060D01*
X149686552Y-111187871D01*
X149687398Y-111241076D01*
X149687765Y-111311402D01*
X149687845Y-111401578D01*
X149687833Y-111443686D01*
X149687651Y-111524833D01*
X149687098Y-111587325D01*
X149685982Y-111633891D01*
X149684113Y-111667259D01*
X149681298Y-111690156D01*
X149677346Y-111705312D01*
X149672066Y-111715454D01*
X149665267Y-111723311D01*
X149643667Y-111738037D01*
X149614467Y-111745889D01*
X149590560Y-111740390D01*
X149563667Y-111723311D01*
X149559059Y-111718332D01*
X149552772Y-111708557D01*
X149548146Y-111694441D01*
X149544930Y-111672946D01*
X149542870Y-111641032D01*
X149541712Y-111595658D01*
X149541202Y-111533787D01*
X149541089Y-111452378D01*
X149541089Y-111204022D01*
X149383045Y-111204022D01*
X149383045Y-111365199D01*
X149382899Y-111401017D01*
X149381176Y-111466641D01*
X149376741Y-111513882D01*
X149368637Y-111545617D01*
X149355906Y-111564723D01*
X149337592Y-111574077D01*
X149312738Y-111576555D01*
X149292482Y-111575758D01*
X149270656Y-111570506D01*
X149255304Y-111557712D01*
X149245309Y-111534372D01*
X149239553Y-111497483D01*
X149236919Y-111444041D01*
X149236289Y-111371042D01*
X149236289Y-111202895D01*
X149171378Y-111206281D01*
X149106467Y-111209666D01*
X149103418Y-111457383D01*
X149102539Y-111519974D01*
X149101095Y-111588435D01*
X149099164Y-111639339D01*
X149096514Y-111675592D01*
X149092910Y-111700099D01*
X149088121Y-111715765D01*
X149081913Y-111725494D01*
X149075510Y-111731509D01*
X149043828Y-111744518D01*
X149008142Y-111740957D01*
X148977084Y-111721182D01*
X148974161Y-111717931D01*
X148967810Y-111708951D01*
X148962957Y-111696847D01*
X148959403Y-111678841D01*
X148956946Y-111652153D01*
X148955385Y-111614003D01*
X148954518Y-111561614D01*
X148954146Y-111492206D01*
X148954067Y-111402999D01*
X148954083Y-111348266D01*
X148954275Y-111271169D01*
X148954860Y-111212223D01*
X148956051Y-111168636D01*
X148958064Y-111137617D01*
X148961112Y-111116375D01*
X148965409Y-111102118D01*
X148971172Y-111092055D01*
X148978612Y-111083394D01*
X148980293Y-111081609D01*
X148987832Y-111074365D01*
X148996850Y-111068723D01*
X149009984Y-111064483D01*
X149029872Y-111061444D01*
X149059151Y-111059406D01*
X149100458Y-111058170D01*
X149156431Y-111057535D01*
X149229707Y-111057300D01*
X149322923Y-111057266D01*
X149395713Y-111057303D01*
G36*
X149395713Y-111057303D02*
G01*
X149473889Y-111057552D01*
X149534103Y-111058188D01*
X149578982Y-111059385D01*
X149611152Y-111061316D01*
X149633239Y-111064154D01*
X149647870Y-111068073D01*
X149657670Y-111073245D01*
X149665267Y-111079844D01*
X149668444Y-111083178D01*
X149674554Y-111091700D01*
X149679229Y-111103702D01*
X149682659Y-111121913D01*
X149685036Y-111149060D01*
X149686552Y-111187871D01*
X149687398Y-111241076D01*
X149687765Y-111311402D01*
X149687845Y-111401578D01*
X149687833Y-111443686D01*
X149687651Y-111524833D01*
X149687098Y-111587325D01*
X149685982Y-111633891D01*
X149684113Y-111667259D01*
X149681298Y-111690156D01*
X149677346Y-111705312D01*
X149672066Y-111715454D01*
X149665267Y-111723311D01*
X149643667Y-111738037D01*
X149614467Y-111745889D01*
X149590560Y-111740390D01*
X149563667Y-111723311D01*
X149559059Y-111718332D01*
X149552772Y-111708557D01*
X149548146Y-111694441D01*
X149544930Y-111672946D01*
X149542870Y-111641032D01*
X149541712Y-111595658D01*
X149541202Y-111533787D01*
X149541089Y-111452378D01*
X149541089Y-111204022D01*
X149383045Y-111204022D01*
X149383045Y-111365199D01*
X149382899Y-111401017D01*
X149381176Y-111466641D01*
X149376741Y-111513882D01*
X149368637Y-111545617D01*
X149355906Y-111564723D01*
X149337592Y-111574077D01*
X149312738Y-111576555D01*
X149292482Y-111575758D01*
X149270656Y-111570506D01*
X149255304Y-111557712D01*
X149245309Y-111534372D01*
X149239553Y-111497483D01*
X149236919Y-111444041D01*
X149236289Y-111371042D01*
X149236289Y-111202895D01*
X149171378Y-111206281D01*
X149106467Y-111209666D01*
X149103418Y-111457383D01*
X149102539Y-111519974D01*
X149101095Y-111588435D01*
X149099164Y-111639339D01*
X149096514Y-111675592D01*
X149092910Y-111700099D01*
X149088121Y-111715765D01*
X149081913Y-111725494D01*
X149075510Y-111731509D01*
X149043828Y-111744518D01*
X149008142Y-111740957D01*
X148977084Y-111721182D01*
X148974161Y-111717931D01*
X148967810Y-111708951D01*
X148962957Y-111696847D01*
X148959403Y-111678841D01*
X148956946Y-111652153D01*
X148955385Y-111614003D01*
X148954518Y-111561614D01*
X148954146Y-111492206D01*
X148954067Y-111402999D01*
X148954083Y-111348266D01*
X148954275Y-111271169D01*
X148954860Y-111212223D01*
X148956051Y-111168636D01*
X148958064Y-111137617D01*
X148961112Y-111116375D01*
X148965409Y-111102118D01*
X148971172Y-111092055D01*
X148978612Y-111083394D01*
X148980293Y-111081609D01*
X148987832Y-111074365D01*
X148996850Y-111068723D01*
X149009984Y-111064483D01*
X149029872Y-111061444D01*
X149059151Y-111059406D01*
X149100458Y-111058170D01*
X149156431Y-111057535D01*
X149229707Y-111057300D01*
X149322923Y-111057266D01*
X149395713Y-111057303D01*
G37*
X149036915Y-118909772D02*
X149071481Y-118922636D01*
X149119826Y-118942395D01*
X149178825Y-118967619D01*
X149245355Y-118996881D01*
X149316291Y-119028750D01*
X149388507Y-119061799D01*
X149458880Y-119094599D01*
X149524285Y-119125720D01*
X149581597Y-119153735D01*
X149627692Y-119177214D01*
X149659446Y-119194728D01*
X149673733Y-119204849D01*
X149687102Y-119239257D01*
X149680741Y-119280954D01*
X149676044Y-119286319D01*
X149653893Y-119302148D01*
X149617132Y-119324350D01*
X149569415Y-119350767D01*
X149514393Y-119379240D01*
X149355150Y-119459014D01*
X149501742Y-119532201D01*
X149521032Y-119541897D01*
X149573380Y-119568875D01*
X149618170Y-119592904D01*
X149651154Y-119611668D01*
X149668089Y-119622854D01*
X149669332Y-119624000D01*
X149684619Y-119652121D01*
X149686302Y-119687183D01*
X149673733Y-119718224D01*
X149670884Y-119720650D01*
X149650259Y-119732910D01*
X149612708Y-119752648D01*
X149560880Y-119778552D01*
X149497423Y-119809315D01*
X149424985Y-119843625D01*
X149346216Y-119880175D01*
X149302093Y-119900415D01*
X149221365Y-119937188D01*
X149157687Y-119965645D01*
X149108752Y-119986669D01*
X149072257Y-120001146D01*
X149045895Y-120009961D01*
X149027361Y-120013996D01*
X149014352Y-120014138D01*
X149004561Y-120011270D01*
X148983678Y-119996613D01*
X148963377Y-119970010D01*
X148963035Y-119969255D01*
X148956034Y-119949665D01*
X148955504Y-119932210D01*
X148963478Y-119915298D01*
X148981989Y-119897337D01*
X149013071Y-119876737D01*
X149058756Y-119851905D01*
X149121078Y-119821250D01*
X149202071Y-119783180D01*
X149233454Y-119768546D01*
X149296638Y-119738797D01*
X149351244Y-119712703D01*
X149394290Y-119691708D01*
X149422793Y-119677261D01*
X149433770Y-119670809D01*
X149433189Y-119669450D01*
X149419242Y-119659458D01*
X149389704Y-119642167D01*
X149348087Y-119619570D01*
X149297903Y-119593662D01*
X149266414Y-119577689D01*
X149211061Y-119548739D01*
X149172044Y-119526251D01*
X149146566Y-119508035D01*
X149131831Y-119491904D01*
X149125042Y-119475670D01*
X149123400Y-119457143D01*
X149123875Y-119446640D01*
X149128082Y-119430524D01*
X149138946Y-119415210D01*
X149159219Y-119398612D01*
X149191654Y-119378643D01*
X149239004Y-119353217D01*
X149304022Y-119320248D01*
X149323277Y-119310515D01*
X149369946Y-119286057D01*
X149406109Y-119265822D01*
X149428497Y-119251689D01*
X149433845Y-119245540D01*
X149430573Y-119244173D01*
X149409664Y-119234798D01*
X149372725Y-119217938D01*
X149322874Y-119195021D01*
X149263226Y-119167480D01*
X149196898Y-119136745D01*
X149139677Y-119110030D01*
X149077688Y-119080407D01*
X149031949Y-119057336D01*
X148999908Y-119039357D01*
X148979014Y-119025010D01*
X148966718Y-119012834D01*
X148960466Y-119001368D01*
X148957574Y-118991958D01*
X148957425Y-118966853D01*
X148972768Y-118939710D01*
X148973753Y-118938410D01*
X148996388Y-118916326D01*
X149018613Y-118905277D01*
X149019253Y-118905231D01*
X149036915Y-118909772D01*
G36*
X149036915Y-118909772D02*
G01*
X149071481Y-118922636D01*
X149119826Y-118942395D01*
X149178825Y-118967619D01*
X149245355Y-118996881D01*
X149316291Y-119028750D01*
X149388507Y-119061799D01*
X149458880Y-119094599D01*
X149524285Y-119125720D01*
X149581597Y-119153735D01*
X149627692Y-119177214D01*
X149659446Y-119194728D01*
X149673733Y-119204849D01*
X149687102Y-119239257D01*
X149680741Y-119280954D01*
X149676044Y-119286319D01*
X149653893Y-119302148D01*
X149617132Y-119324350D01*
X149569415Y-119350767D01*
X149514393Y-119379240D01*
X149355150Y-119459014D01*
X149501742Y-119532201D01*
X149521032Y-119541897D01*
X149573380Y-119568875D01*
X149618170Y-119592904D01*
X149651154Y-119611668D01*
X149668089Y-119622854D01*
X149669332Y-119624000D01*
X149684619Y-119652121D01*
X149686302Y-119687183D01*
X149673733Y-119718224D01*
X149670884Y-119720650D01*
X149650259Y-119732910D01*
X149612708Y-119752648D01*
X149560880Y-119778552D01*
X149497423Y-119809315D01*
X149424985Y-119843625D01*
X149346216Y-119880175D01*
X149302093Y-119900415D01*
X149221365Y-119937188D01*
X149157687Y-119965645D01*
X149108752Y-119986669D01*
X149072257Y-120001146D01*
X149045895Y-120009961D01*
X149027361Y-120013996D01*
X149014352Y-120014138D01*
X149004561Y-120011270D01*
X148983678Y-119996613D01*
X148963377Y-119970010D01*
X148963035Y-119969255D01*
X148956034Y-119949665D01*
X148955504Y-119932210D01*
X148963478Y-119915298D01*
X148981989Y-119897337D01*
X149013071Y-119876737D01*
X149058756Y-119851905D01*
X149121078Y-119821250D01*
X149202071Y-119783180D01*
X149233454Y-119768546D01*
X149296638Y-119738797D01*
X149351244Y-119712703D01*
X149394290Y-119691708D01*
X149422793Y-119677261D01*
X149433770Y-119670809D01*
X149433189Y-119669450D01*
X149419242Y-119659458D01*
X149389704Y-119642167D01*
X149348087Y-119619570D01*
X149297903Y-119593662D01*
X149266414Y-119577689D01*
X149211061Y-119548739D01*
X149172044Y-119526251D01*
X149146566Y-119508035D01*
X149131831Y-119491904D01*
X149125042Y-119475670D01*
X149123400Y-119457143D01*
X149123875Y-119446640D01*
X149128082Y-119430524D01*
X149138946Y-119415210D01*
X149159219Y-119398612D01*
X149191654Y-119378643D01*
X149239004Y-119353217D01*
X149304022Y-119320248D01*
X149323277Y-119310515D01*
X149369946Y-119286057D01*
X149406109Y-119265822D01*
X149428497Y-119251689D01*
X149433845Y-119245540D01*
X149430573Y-119244173D01*
X149409664Y-119234798D01*
X149372725Y-119217938D01*
X149322874Y-119195021D01*
X149263226Y-119167480D01*
X149196898Y-119136745D01*
X149139677Y-119110030D01*
X149077688Y-119080407D01*
X149031949Y-119057336D01*
X148999908Y-119039357D01*
X148979014Y-119025010D01*
X148966718Y-119012834D01*
X148960466Y-119001368D01*
X148957574Y-118991958D01*
X148957425Y-118966853D01*
X148972768Y-118939710D01*
X148973753Y-118938410D01*
X148996388Y-118916326D01*
X149018613Y-118905277D01*
X149019253Y-118905231D01*
X149036915Y-118909772D01*
G37*
X149205232Y-112029048D02*
X149230029Y-112034840D01*
X149251699Y-112049647D01*
X149279049Y-112077620D01*
X149286378Y-112085598D01*
X149307281Y-112109308D01*
X149324251Y-112131702D01*
X149338205Y-112155735D01*
X149350056Y-112184363D01*
X149360720Y-112220540D01*
X149371111Y-112267220D01*
X149382146Y-112327359D01*
X149394738Y-112403910D01*
X149409804Y-112499829D01*
X149412838Y-112518192D01*
X149426458Y-112580522D01*
X149442192Y-112625740D01*
X149459263Y-112652024D01*
X149476897Y-112657553D01*
X149481168Y-112654932D01*
X149496233Y-112637000D01*
X149512867Y-112608874D01*
X149518857Y-112596074D01*
X149526050Y-112574776D01*
X149530827Y-112548390D01*
X149533646Y-112512546D01*
X149534964Y-112462872D01*
X149535237Y-112395000D01*
X149535164Y-112377215D01*
X149534053Y-112309594D01*
X149531828Y-112244655D01*
X149528762Y-112189030D01*
X149525127Y-112149349D01*
X149521059Y-112113838D01*
X149520276Y-112084585D01*
X149524876Y-112065685D01*
X149535551Y-112050571D01*
X149539144Y-112046915D01*
X149570918Y-112030573D01*
X149606572Y-112031893D01*
X149637190Y-112050850D01*
X149648796Y-112071220D01*
X149661491Y-112107204D01*
X149671541Y-112149628D01*
X149672140Y-112153078D01*
X149677356Y-112195748D01*
X149681730Y-112253134D01*
X149684818Y-112318151D01*
X149686177Y-112383711D01*
X149686218Y-112399943D01*
X149683741Y-112498256D01*
X149675735Y-112578308D01*
X149661203Y-112643487D01*
X149639149Y-112697183D01*
X149608576Y-112742784D01*
X149568486Y-112783677D01*
X149542259Y-112803798D01*
X149512712Y-112815424D01*
X149472995Y-112818333D01*
X149461026Y-112818192D01*
X149428345Y-112814319D01*
X149401819Y-112801935D01*
X149370971Y-112776770D01*
X149348831Y-112755558D01*
X149326285Y-112729162D01*
X149307917Y-112699445D01*
X149292661Y-112663215D01*
X149279449Y-112617283D01*
X149267214Y-112558456D01*
X149254889Y-112483544D01*
X149241406Y-112389355D01*
X149234396Y-112344043D01*
X149219837Y-112276089D01*
X149203337Y-112226953D01*
X149185439Y-112197386D01*
X149166685Y-112188136D01*
X149147615Y-112199952D01*
X149128771Y-112233584D01*
X149127557Y-112236630D01*
X149115479Y-112282989D01*
X149107279Y-112345639D01*
X149103119Y-112419073D01*
X149103161Y-112497783D01*
X149107569Y-112576261D01*
X149116505Y-112649000D01*
X149117154Y-112652927D01*
X149124861Y-112701743D01*
X149128473Y-112733995D01*
X149127876Y-112754992D01*
X149122954Y-112770046D01*
X149113596Y-112784466D01*
X149112725Y-112785636D01*
X149082351Y-112810153D01*
X149046850Y-112814946D01*
X149012269Y-112799140D01*
X149007813Y-112794594D01*
X148992673Y-112764980D01*
X148979550Y-112717998D01*
X148968750Y-112657694D01*
X148960581Y-112588112D01*
X148955351Y-112513297D01*
X148953367Y-112437294D01*
X148954936Y-112364147D01*
X148960366Y-112297900D01*
X148969964Y-112242600D01*
X148984825Y-112191717D01*
X149017958Y-112120405D01*
X149060640Y-112069248D01*
X149112705Y-112038425D01*
X149173983Y-112028111D01*
X149205232Y-112029048D01*
G36*
X149205232Y-112029048D02*
G01*
X149230029Y-112034840D01*
X149251699Y-112049647D01*
X149279049Y-112077620D01*
X149286378Y-112085598D01*
X149307281Y-112109308D01*
X149324251Y-112131702D01*
X149338205Y-112155735D01*
X149350056Y-112184363D01*
X149360720Y-112220540D01*
X149371111Y-112267220D01*
X149382146Y-112327359D01*
X149394738Y-112403910D01*
X149409804Y-112499829D01*
X149412838Y-112518192D01*
X149426458Y-112580522D01*
X149442192Y-112625740D01*
X149459263Y-112652024D01*
X149476897Y-112657553D01*
X149481168Y-112654932D01*
X149496233Y-112637000D01*
X149512867Y-112608874D01*
X149518857Y-112596074D01*
X149526050Y-112574776D01*
X149530827Y-112548390D01*
X149533646Y-112512546D01*
X149534964Y-112462872D01*
X149535237Y-112395000D01*
X149535164Y-112377215D01*
X149534053Y-112309594D01*
X149531828Y-112244655D01*
X149528762Y-112189030D01*
X149525127Y-112149349D01*
X149521059Y-112113838D01*
X149520276Y-112084585D01*
X149524876Y-112065685D01*
X149535551Y-112050571D01*
X149539144Y-112046915D01*
X149570918Y-112030573D01*
X149606572Y-112031893D01*
X149637190Y-112050850D01*
X149648796Y-112071220D01*
X149661491Y-112107204D01*
X149671541Y-112149628D01*
X149672140Y-112153078D01*
X149677356Y-112195748D01*
X149681730Y-112253134D01*
X149684818Y-112318151D01*
X149686177Y-112383711D01*
X149686218Y-112399943D01*
X149683741Y-112498256D01*
X149675735Y-112578308D01*
X149661203Y-112643487D01*
X149639149Y-112697183D01*
X149608576Y-112742784D01*
X149568486Y-112783677D01*
X149542259Y-112803798D01*
X149512712Y-112815424D01*
X149472995Y-112818333D01*
X149461026Y-112818192D01*
X149428345Y-112814319D01*
X149401819Y-112801935D01*
X149370971Y-112776770D01*
X149348831Y-112755558D01*
X149326285Y-112729162D01*
X149307917Y-112699445D01*
X149292661Y-112663215D01*
X149279449Y-112617283D01*
X149267214Y-112558456D01*
X149254889Y-112483544D01*
X149241406Y-112389355D01*
X149234396Y-112344043D01*
X149219837Y-112276089D01*
X149203337Y-112226953D01*
X149185439Y-112197386D01*
X149166685Y-112188136D01*
X149147615Y-112199952D01*
X149128771Y-112233584D01*
X149127557Y-112236630D01*
X149115479Y-112282989D01*
X149107279Y-112345639D01*
X149103119Y-112419073D01*
X149103161Y-112497783D01*
X149107569Y-112576261D01*
X149116505Y-112649000D01*
X149117154Y-112652927D01*
X149124861Y-112701743D01*
X149128473Y-112733995D01*
X149127876Y-112754992D01*
X149122954Y-112770046D01*
X149113596Y-112784466D01*
X149112725Y-112785636D01*
X149082351Y-112810153D01*
X149046850Y-112814946D01*
X149012269Y-112799140D01*
X149007813Y-112794594D01*
X148992673Y-112764980D01*
X148979550Y-112717998D01*
X148968750Y-112657694D01*
X148960581Y-112588112D01*
X148955351Y-112513297D01*
X148953367Y-112437294D01*
X148954936Y-112364147D01*
X148960366Y-112297900D01*
X148969964Y-112242600D01*
X148984825Y-112191717D01*
X149017958Y-112120405D01*
X149060640Y-112069248D01*
X149112705Y-112038425D01*
X149173983Y-112028111D01*
X149205232Y-112029048D01*
G37*
X146506325Y-114887449D02*
X146707581Y-114904209D01*
X146902128Y-114937708D01*
X147085756Y-114987956D01*
X147203053Y-115031810D01*
X147365951Y-115109652D01*
X147519866Y-115203172D01*
X147661671Y-115310178D01*
X147788239Y-115428481D01*
X147896441Y-115555889D01*
X147949120Y-115633394D01*
X148018750Y-115760275D01*
X148077468Y-115897757D01*
X148122587Y-116039284D01*
X148151422Y-116178298D01*
X148153106Y-116192403D01*
X148156434Y-116235847D01*
X148159275Y-116293277D01*
X148161373Y-116358878D01*
X148162468Y-116426833D01*
X148160140Y-116553622D01*
X148147136Y-116701327D01*
X148122133Y-116839221D01*
X148084318Y-116972986D01*
X148075889Y-116996438D01*
X148056408Y-117044388D01*
X148031473Y-117100860D01*
X148002722Y-117162621D01*
X147971790Y-117226437D01*
X147940315Y-117289074D01*
X147909934Y-117347297D01*
X147882283Y-117397873D01*
X147858999Y-117437567D01*
X147841718Y-117463146D01*
X147832079Y-117471375D01*
X147828984Y-117469924D01*
X147809079Y-117458750D01*
X147773420Y-117437866D01*
X147724459Y-117408735D01*
X147664646Y-117372819D01*
X147596433Y-117331580D01*
X147522271Y-117286483D01*
X147225008Y-117105215D01*
X147269539Y-117058685D01*
X147347865Y-116967277D01*
X147422439Y-116853666D01*
X147476474Y-116735878D01*
X147509290Y-116615441D01*
X147520211Y-116493883D01*
X147518868Y-116452415D01*
X147500612Y-116334920D01*
X147461617Y-116224911D01*
X147402670Y-116123570D01*
X147324557Y-116032079D01*
X147228064Y-115951620D01*
X147113978Y-115883373D01*
X147079724Y-115867092D01*
X146956240Y-115821018D01*
X146817918Y-115785894D01*
X146668561Y-115761803D01*
X146511973Y-115748827D01*
X146351956Y-115747051D01*
X146192314Y-115756557D01*
X146036850Y-115777428D01*
X145889366Y-115809748D01*
X145753667Y-115853601D01*
X145667076Y-115891018D01*
X145553688Y-115955815D01*
X145460070Y-116031228D01*
X145385959Y-116117582D01*
X145331094Y-116215205D01*
X145295212Y-116324423D01*
X145278051Y-116445561D01*
X145276880Y-116514962D01*
X145291141Y-116637832D01*
X145326241Y-116753336D01*
X145381682Y-116860047D01*
X145456964Y-116956536D01*
X145471440Y-116972280D01*
X145497962Y-117002850D01*
X145515138Y-117025191D01*
X145519787Y-117035309D01*
X145517597Y-117037294D01*
X145498721Y-117051759D01*
X145465397Y-117075600D01*
X145420380Y-117106971D01*
X145366425Y-117144026D01*
X145306285Y-117184917D01*
X145242718Y-117227798D01*
X145178476Y-117270822D01*
X145116315Y-117312143D01*
X145058991Y-117349914D01*
X145009257Y-117382288D01*
X144969868Y-117407418D01*
X144943580Y-117423458D01*
X144933147Y-117428561D01*
X144928941Y-117423950D01*
X144923933Y-117404733D01*
X144921386Y-117395162D01*
X144910249Y-117367191D01*
X144891802Y-117325552D01*
X144867725Y-117274005D01*
X144839699Y-117216310D01*
X144834154Y-117205043D01*
X144754889Y-117027313D01*
X144695385Y-116857510D01*
X144655245Y-116693570D01*
X144634071Y-116533429D01*
X144631466Y-116375023D01*
X144647033Y-116216289D01*
X144664523Y-116120732D01*
X144709564Y-115956442D01*
X144772656Y-115802411D01*
X144854915Y-115656491D01*
X144957457Y-115516534D01*
X145081399Y-115380392D01*
X145126661Y-115336527D01*
X145258865Y-115224242D01*
X145396832Y-115131028D01*
X145544750Y-115054281D01*
X145706803Y-114991397D01*
X145718391Y-114987580D01*
X145904392Y-114937493D01*
X146100521Y-114904101D01*
X146302568Y-114887416D01*
X146506325Y-114887449D01*
G36*
X146506325Y-114887449D02*
G01*
X146707581Y-114904209D01*
X146902128Y-114937708D01*
X147085756Y-114987956D01*
X147203053Y-115031810D01*
X147365951Y-115109652D01*
X147519866Y-115203172D01*
X147661671Y-115310178D01*
X147788239Y-115428481D01*
X147896441Y-115555889D01*
X147949120Y-115633394D01*
X148018750Y-115760275D01*
X148077468Y-115897757D01*
X148122587Y-116039284D01*
X148151422Y-116178298D01*
X148153106Y-116192403D01*
X148156434Y-116235847D01*
X148159275Y-116293277D01*
X148161373Y-116358878D01*
X148162468Y-116426833D01*
X148160140Y-116553622D01*
X148147136Y-116701327D01*
X148122133Y-116839221D01*
X148084318Y-116972986D01*
X148075889Y-116996438D01*
X148056408Y-117044388D01*
X148031473Y-117100860D01*
X148002722Y-117162621D01*
X147971790Y-117226437D01*
X147940315Y-117289074D01*
X147909934Y-117347297D01*
X147882283Y-117397873D01*
X147858999Y-117437567D01*
X147841718Y-117463146D01*
X147832079Y-117471375D01*
X147828984Y-117469924D01*
X147809079Y-117458750D01*
X147773420Y-117437866D01*
X147724459Y-117408735D01*
X147664646Y-117372819D01*
X147596433Y-117331580D01*
X147522271Y-117286483D01*
X147225008Y-117105215D01*
X147269539Y-117058685D01*
X147347865Y-116967277D01*
X147422439Y-116853666D01*
X147476474Y-116735878D01*
X147509290Y-116615441D01*
X147520211Y-116493883D01*
X147518868Y-116452415D01*
X147500612Y-116334920D01*
X147461617Y-116224911D01*
X147402670Y-116123570D01*
X147324557Y-116032079D01*
X147228064Y-115951620D01*
X147113978Y-115883373D01*
X147079724Y-115867092D01*
X146956240Y-115821018D01*
X146817918Y-115785894D01*
X146668561Y-115761803D01*
X146511973Y-115748827D01*
X146351956Y-115747051D01*
X146192314Y-115756557D01*
X146036850Y-115777428D01*
X145889366Y-115809748D01*
X145753667Y-115853601D01*
X145667076Y-115891018D01*
X145553688Y-115955815D01*
X145460070Y-116031228D01*
X145385959Y-116117582D01*
X145331094Y-116215205D01*
X145295212Y-116324423D01*
X145278051Y-116445561D01*
X145276880Y-116514962D01*
X145291141Y-116637832D01*
X145326241Y-116753336D01*
X145381682Y-116860047D01*
X145456964Y-116956536D01*
X145471440Y-116972280D01*
X145497962Y-117002850D01*
X145515138Y-117025191D01*
X145519787Y-117035309D01*
X145517597Y-117037294D01*
X145498721Y-117051759D01*
X145465397Y-117075600D01*
X145420380Y-117106971D01*
X145366425Y-117144026D01*
X145306285Y-117184917D01*
X145242718Y-117227798D01*
X145178476Y-117270822D01*
X145116315Y-117312143D01*
X145058991Y-117349914D01*
X145009257Y-117382288D01*
X144969868Y-117407418D01*
X144943580Y-117423458D01*
X144933147Y-117428561D01*
X144928941Y-117423950D01*
X144923933Y-117404733D01*
X144921386Y-117395162D01*
X144910249Y-117367191D01*
X144891802Y-117325552D01*
X144867725Y-117274005D01*
X144839699Y-117216310D01*
X144834154Y-117205043D01*
X144754889Y-117027313D01*
X144695385Y-116857510D01*
X144655245Y-116693570D01*
X144634071Y-116533429D01*
X144631466Y-116375023D01*
X144647033Y-116216289D01*
X144664523Y-116120732D01*
X144709564Y-115956442D01*
X144772656Y-115802411D01*
X144854915Y-115656491D01*
X144957457Y-115516534D01*
X145081399Y-115380392D01*
X145126661Y-115336527D01*
X145258865Y-115224242D01*
X145396832Y-115131028D01*
X145544750Y-115054281D01*
X145706803Y-114991397D01*
X145718391Y-114987580D01*
X145904392Y-114937493D01*
X146100521Y-114904101D01*
X146302568Y-114887416D01*
X146506325Y-114887449D01*
G37*
X147005158Y-120019732D02*
X147156594Y-120028311D01*
X147293283Y-120047167D01*
X147419276Y-120077163D01*
X147538625Y-120119164D01*
X147655381Y-120174031D01*
X147766179Y-120240833D01*
X147879739Y-120331637D01*
X147975211Y-120435292D01*
X148052073Y-120551113D01*
X148109797Y-120678414D01*
X148147858Y-120816511D01*
X148153666Y-120854207D01*
X148159396Y-120933248D01*
X148159583Y-121021371D01*
X148154539Y-121110764D01*
X148144578Y-121193616D01*
X148130012Y-121262113D01*
X148120364Y-121292965D01*
X148090123Y-121370270D01*
X148052617Y-121447321D01*
X148011614Y-121516800D01*
X147970879Y-121571385D01*
X147951505Y-121594084D01*
X147933662Y-121616799D01*
X147926778Y-121628221D01*
X147928424Y-121629463D01*
X147946205Y-121632272D01*
X147979370Y-121634224D01*
X148022733Y-121634955D01*
X148118689Y-121634955D01*
X148118689Y-122493104D01*
X148057974Y-122458839D01*
X148048868Y-122453645D01*
X148034249Y-122445285D01*
X148020173Y-122437712D01*
X148005540Y-122430888D01*
X147989249Y-122424773D01*
X147970198Y-122419327D01*
X147947286Y-122414513D01*
X147919413Y-122410292D01*
X147885478Y-122406623D01*
X147844379Y-122403469D01*
X147795015Y-122400789D01*
X147736286Y-122398546D01*
X147667090Y-122396701D01*
X147586326Y-122395213D01*
X147492894Y-122394045D01*
X147385692Y-122393156D01*
X147263620Y-122392509D01*
X147125576Y-122392064D01*
X146970459Y-122391782D01*
X146797168Y-122391625D01*
X146604603Y-122391552D01*
X146391662Y-122391526D01*
X146157245Y-122391507D01*
X144472378Y-122391311D01*
X144472378Y-121485983D01*
X144509067Y-121510415D01*
X144518647Y-121516682D01*
X144564981Y-121542792D01*
X144612102Y-121560531D01*
X144667251Y-121572092D01*
X144737667Y-121579669D01*
X144744650Y-121580161D01*
X144782641Y-121581938D01*
X144836576Y-121583556D01*
X144903703Y-121585001D01*
X144981271Y-121586260D01*
X145066528Y-121587320D01*
X145156724Y-121588171D01*
X145249107Y-121588797D01*
X145340925Y-121589188D01*
X145429427Y-121589330D01*
X145511862Y-121589210D01*
X145585479Y-121588817D01*
X145647526Y-121588138D01*
X145695251Y-121587159D01*
X145725904Y-121585868D01*
X145736733Y-121584253D01*
X145732333Y-121576043D01*
X145717362Y-121554353D01*
X145695448Y-121524986D01*
X145661236Y-121476121D01*
X145614714Y-121387875D01*
X145581046Y-121289084D01*
X145578231Y-121274557D01*
X146132465Y-121274557D01*
X146144389Y-121359681D01*
X146171040Y-121443867D01*
X146211962Y-121522392D01*
X146255530Y-121589800D01*
X147405721Y-121589800D01*
X147452089Y-121519244D01*
X147475791Y-121478583D01*
X147501639Y-121424454D01*
X147519829Y-121375311D01*
X147535551Y-121311835D01*
X147546541Y-121215669D01*
X147538365Y-121131100D01*
X147510805Y-121057781D01*
X147463642Y-120995363D01*
X147396658Y-120943498D01*
X147309633Y-120901840D01*
X147202350Y-120870038D01*
X147190009Y-120867455D01*
X147128772Y-120859000D01*
X147051692Y-120853337D01*
X146964002Y-120850424D01*
X146870934Y-120850217D01*
X146777720Y-120852670D01*
X146689594Y-120857739D01*
X146611788Y-120865381D01*
X146549533Y-120875552D01*
X146543666Y-120876833D01*
X146433121Y-120905874D01*
X146342575Y-120940390D01*
X146269953Y-120981544D01*
X146213181Y-121030501D01*
X146170184Y-121088426D01*
X146154615Y-121120380D01*
X146135722Y-121193216D01*
X146132465Y-121274557D01*
X145578231Y-121274557D01*
X145559231Y-121176490D01*
X145548265Y-121046836D01*
X145547219Y-120954330D01*
X145557014Y-120832989D01*
X145581174Y-120722901D01*
X145620785Y-120619611D01*
X145676932Y-120518662D01*
X145707883Y-120473497D01*
X145799115Y-120368089D01*
X145908106Y-120276462D01*
X146034726Y-120198668D01*
X146178845Y-120134759D01*
X146340332Y-120084786D01*
X146519059Y-120048802D01*
X146714895Y-120026857D01*
X146870934Y-120021100D01*
X146927711Y-120019006D01*
X147005158Y-120019732D01*
G36*
X147005158Y-120019732D02*
G01*
X147156594Y-120028311D01*
X147293283Y-120047167D01*
X147419276Y-120077163D01*
X147538625Y-120119164D01*
X147655381Y-120174031D01*
X147766179Y-120240833D01*
X147879739Y-120331637D01*
X147975211Y-120435292D01*
X148052073Y-120551113D01*
X148109797Y-120678414D01*
X148147858Y-120816511D01*
X148153666Y-120854207D01*
X148159396Y-120933248D01*
X148159583Y-121021371D01*
X148154539Y-121110764D01*
X148144578Y-121193616D01*
X148130012Y-121262113D01*
X148120364Y-121292965D01*
X148090123Y-121370270D01*
X148052617Y-121447321D01*
X148011614Y-121516800D01*
X147970879Y-121571385D01*
X147951505Y-121594084D01*
X147933662Y-121616799D01*
X147926778Y-121628221D01*
X147928424Y-121629463D01*
X147946205Y-121632272D01*
X147979370Y-121634224D01*
X148022733Y-121634955D01*
X148118689Y-121634955D01*
X148118689Y-122493104D01*
X148057974Y-122458839D01*
X148048868Y-122453645D01*
X148034249Y-122445285D01*
X148020173Y-122437712D01*
X148005540Y-122430888D01*
X147989249Y-122424773D01*
X147970198Y-122419327D01*
X147947286Y-122414513D01*
X147919413Y-122410292D01*
X147885478Y-122406623D01*
X147844379Y-122403469D01*
X147795015Y-122400789D01*
X147736286Y-122398546D01*
X147667090Y-122396701D01*
X147586326Y-122395213D01*
X147492894Y-122394045D01*
X147385692Y-122393156D01*
X147263620Y-122392509D01*
X147125576Y-122392064D01*
X146970459Y-122391782D01*
X146797168Y-122391625D01*
X146604603Y-122391552D01*
X146391662Y-122391526D01*
X146157245Y-122391507D01*
X144472378Y-122391311D01*
X144472378Y-121485983D01*
X144509067Y-121510415D01*
X144518647Y-121516682D01*
X144564981Y-121542792D01*
X144612102Y-121560531D01*
X144667251Y-121572092D01*
X144737667Y-121579669D01*
X144744650Y-121580161D01*
X144782641Y-121581938D01*
X144836576Y-121583556D01*
X144903703Y-121585001D01*
X144981271Y-121586260D01*
X145066528Y-121587320D01*
X145156724Y-121588171D01*
X145249107Y-121588797D01*
X145340925Y-121589188D01*
X145429427Y-121589330D01*
X145511862Y-121589210D01*
X145585479Y-121588817D01*
X145647526Y-121588138D01*
X145695251Y-121587159D01*
X145725904Y-121585868D01*
X145736733Y-121584253D01*
X145732333Y-121576043D01*
X145717362Y-121554353D01*
X145695448Y-121524986D01*
X145661236Y-121476121D01*
X145614714Y-121387875D01*
X145581046Y-121289084D01*
X145578231Y-121274557D01*
X146132465Y-121274557D01*
X146144389Y-121359681D01*
X146171040Y-121443867D01*
X146211962Y-121522392D01*
X146255530Y-121589800D01*
X147405721Y-121589800D01*
X147452089Y-121519244D01*
X147475791Y-121478583D01*
X147501639Y-121424454D01*
X147519829Y-121375311D01*
X147535551Y-121311835D01*
X147546541Y-121215669D01*
X147538365Y-121131100D01*
X147510805Y-121057781D01*
X147463642Y-120995363D01*
X147396658Y-120943498D01*
X147309633Y-120901840D01*
X147202350Y-120870038D01*
X147190009Y-120867455D01*
X147128772Y-120859000D01*
X147051692Y-120853337D01*
X146964002Y-120850424D01*
X146870934Y-120850217D01*
X146777720Y-120852670D01*
X146689594Y-120857739D01*
X146611788Y-120865381D01*
X146549533Y-120875552D01*
X146543666Y-120876833D01*
X146433121Y-120905874D01*
X146342575Y-120940390D01*
X146269953Y-120981544D01*
X146213181Y-121030501D01*
X146170184Y-121088426D01*
X146154615Y-121120380D01*
X146135722Y-121193216D01*
X146132465Y-121274557D01*
X145578231Y-121274557D01*
X145559231Y-121176490D01*
X145548265Y-121046836D01*
X145547219Y-120954330D01*
X145557014Y-120832989D01*
X145581174Y-120722901D01*
X145620785Y-120619611D01*
X145676932Y-120518662D01*
X145707883Y-120473497D01*
X145799115Y-120368089D01*
X145908106Y-120276462D01*
X146034726Y-120198668D01*
X146178845Y-120134759D01*
X146340332Y-120084786D01*
X146519059Y-120048802D01*
X146714895Y-120026857D01*
X146870934Y-120021100D01*
X146927711Y-120019006D01*
X147005158Y-120019732D01*
G37*
X147362363Y-117477739D02*
X147437202Y-117481368D01*
X147499401Y-117488978D01*
X147555984Y-117501312D01*
X147682076Y-117545687D01*
X147796679Y-117608600D01*
X147897568Y-117688762D01*
X147983924Y-117785260D01*
X148054932Y-117897178D01*
X148109776Y-118023603D01*
X148147638Y-118163622D01*
X148153351Y-118199851D01*
X148159313Y-118278845D01*
X148159646Y-118367159D01*
X148154659Y-118456925D01*
X148144666Y-118540278D01*
X148129978Y-118609349D01*
X148099749Y-118695813D01*
X148045057Y-118805714D01*
X147977543Y-118903044D01*
X147926556Y-118965133D01*
X148022622Y-118968395D01*
X148118689Y-118971657D01*
X148118689Y-119394550D01*
X148118686Y-119405457D01*
X148118380Y-119499944D01*
X148117616Y-119586669D01*
X148116451Y-119663163D01*
X148114942Y-119726957D01*
X148113147Y-119775582D01*
X148111121Y-119806567D01*
X148108922Y-119817444D01*
X148108463Y-119817422D01*
X148092910Y-119810386D01*
X148070071Y-119794566D01*
X148064638Y-119790266D01*
X148050606Y-119779223D01*
X148037186Y-119769689D01*
X148022722Y-119761539D01*
X148005556Y-119754648D01*
X147984034Y-119748889D01*
X147956498Y-119744138D01*
X147921292Y-119740269D01*
X147876760Y-119737156D01*
X147821246Y-119734675D01*
X147753093Y-119732700D01*
X147670645Y-119731106D01*
X147572246Y-119729766D01*
X147456239Y-119728556D01*
X147320968Y-119727351D01*
X147164778Y-119726025D01*
X147022012Y-119724772D01*
X146876942Y-119723349D01*
X146751027Y-119721824D01*
X146642436Y-119720067D01*
X146549334Y-119717949D01*
X146469891Y-119715340D01*
X146402273Y-119712110D01*
X146344649Y-119708131D01*
X146295185Y-119703272D01*
X146252050Y-119697403D01*
X146213410Y-119690396D01*
X146177434Y-119682120D01*
X146142289Y-119672446D01*
X146106142Y-119661244D01*
X146067161Y-119648384D01*
X146024091Y-119632910D01*
X145931871Y-119590006D01*
X145852099Y-119536265D01*
X145777965Y-119467424D01*
X145714405Y-119389815D01*
X145652725Y-119285239D01*
X145605202Y-119165756D01*
X145571567Y-119030492D01*
X145551552Y-118878574D01*
X145544889Y-118709128D01*
X145545287Y-118651110D01*
X145547335Y-118585602D01*
X145551704Y-118524307D01*
X145559035Y-118462903D01*
X145569969Y-118397068D01*
X145585147Y-118322480D01*
X145605209Y-118234816D01*
X145630797Y-118129755D01*
X145637820Y-118101194D01*
X145655776Y-118025946D01*
X145671820Y-117955612D01*
X145685028Y-117894433D01*
X145694474Y-117846646D01*
X145699231Y-117816489D01*
X145702910Y-117788217D01*
X145708187Y-117761940D01*
X145712942Y-117751941D01*
X145721781Y-117755048D01*
X145749072Y-117765806D01*
X145791906Y-117783136D01*
X145847425Y-117805874D01*
X145912772Y-117832853D01*
X145985089Y-117862910D01*
X146000879Y-117869507D01*
X146091484Y-117908093D01*
X146161217Y-117939232D01*
X146210405Y-117963083D01*
X146239374Y-117979802D01*
X146248452Y-117989546D01*
X146246405Y-117997234D01*
X146236760Y-118023585D01*
X146221190Y-118062018D01*
X146201815Y-118107178D01*
X146163814Y-118201707D01*
X146122780Y-118338520D01*
X146097612Y-118479711D01*
X146093611Y-118517686D01*
X146091447Y-118620941D01*
X146104622Y-118708048D01*
X146133756Y-118779871D01*
X146179466Y-118837269D01*
X146242372Y-118881104D01*
X146323092Y-118912238D01*
X146422245Y-118931530D01*
X146481224Y-118938950D01*
X146474445Y-118777064D01*
X146474110Y-118751106D01*
X146996842Y-118751106D01*
X146996857Y-118759993D01*
X146997655Y-118815340D01*
X146999488Y-118862264D01*
X147002111Y-118896047D01*
X147005274Y-118911972D01*
X147011741Y-118916057D01*
X147033875Y-118920428D01*
X147072988Y-118923396D01*
X147130939Y-118925086D01*
X147209586Y-118925622D01*
X147405462Y-118925622D01*
X147461973Y-118880952D01*
X147477212Y-118868215D01*
X147519844Y-118821396D01*
X147555672Y-118760745D01*
X147560850Y-118750103D01*
X147577745Y-118711324D01*
X147587909Y-118676308D01*
X147593325Y-118636278D01*
X147595978Y-118582459D01*
X147596383Y-118564352D01*
X147593540Y-118488989D01*
X147581620Y-118428257D01*
X147559037Y-118376548D01*
X147524211Y-118328254D01*
X147519798Y-118323197D01*
X147464160Y-118274728D01*
X147400333Y-118246541D01*
X147325282Y-118237248D01*
X147253693Y-118244480D01*
X147190645Y-118269204D01*
X147132758Y-118313751D01*
X147085808Y-118368681D01*
X147045961Y-118441106D01*
X147018263Y-118527660D01*
X147002096Y-118630330D01*
X146996842Y-118751106D01*
X146474110Y-118751106D01*
X146472813Y-118650505D01*
X146479194Y-118499049D01*
X146493777Y-118350604D01*
X146515882Y-118214422D01*
X146530821Y-118149755D01*
X146573741Y-118017510D01*
X146630340Y-117895238D01*
X146699017Y-117785315D01*
X146778170Y-117690117D01*
X146866196Y-117612020D01*
X146961493Y-117553401D01*
X147013864Y-117529405D01*
X147084590Y-117503768D01*
X147155812Y-117487522D01*
X147234712Y-117479178D01*
X147325282Y-117477310D01*
X147328467Y-117477245D01*
X147362363Y-117477739D01*
G36*
X147362363Y-117477739D02*
G01*
X147437202Y-117481368D01*
X147499401Y-117488978D01*
X147555984Y-117501312D01*
X147682076Y-117545687D01*
X147796679Y-117608600D01*
X147897568Y-117688762D01*
X147983924Y-117785260D01*
X148054932Y-117897178D01*
X148109776Y-118023603D01*
X148147638Y-118163622D01*
X148153351Y-118199851D01*
X148159313Y-118278845D01*
X148159646Y-118367159D01*
X148154659Y-118456925D01*
X148144666Y-118540278D01*
X148129978Y-118609349D01*
X148099749Y-118695813D01*
X148045057Y-118805714D01*
X147977543Y-118903044D01*
X147926556Y-118965133D01*
X148022622Y-118968395D01*
X148118689Y-118971657D01*
X148118689Y-119394550D01*
X148118686Y-119405457D01*
X148118380Y-119499944D01*
X148117616Y-119586669D01*
X148116451Y-119663163D01*
X148114942Y-119726957D01*
X148113147Y-119775582D01*
X148111121Y-119806567D01*
X148108922Y-119817444D01*
X148108463Y-119817422D01*
X148092910Y-119810386D01*
X148070071Y-119794566D01*
X148064638Y-119790266D01*
X148050606Y-119779223D01*
X148037186Y-119769689D01*
X148022722Y-119761539D01*
X148005556Y-119754648D01*
X147984034Y-119748889D01*
X147956498Y-119744138D01*
X147921292Y-119740269D01*
X147876760Y-119737156D01*
X147821246Y-119734675D01*
X147753093Y-119732700D01*
X147670645Y-119731106D01*
X147572246Y-119729766D01*
X147456239Y-119728556D01*
X147320968Y-119727351D01*
X147164778Y-119726025D01*
X147022012Y-119724772D01*
X146876942Y-119723349D01*
X146751027Y-119721824D01*
X146642436Y-119720067D01*
X146549334Y-119717949D01*
X146469891Y-119715340D01*
X146402273Y-119712110D01*
X146344649Y-119708131D01*
X146295185Y-119703272D01*
X146252050Y-119697403D01*
X146213410Y-119690396D01*
X146177434Y-119682120D01*
X146142289Y-119672446D01*
X146106142Y-119661244D01*
X146067161Y-119648384D01*
X146024091Y-119632910D01*
X145931871Y-119590006D01*
X145852099Y-119536265D01*
X145777965Y-119467424D01*
X145714405Y-119389815D01*
X145652725Y-119285239D01*
X145605202Y-119165756D01*
X145571567Y-119030492D01*
X145551552Y-118878574D01*
X145544889Y-118709128D01*
X145545287Y-118651110D01*
X145547335Y-118585602D01*
X145551704Y-118524307D01*
X145559035Y-118462903D01*
X145569969Y-118397068D01*
X145585147Y-118322480D01*
X145605209Y-118234816D01*
X145630797Y-118129755D01*
X145637820Y-118101194D01*
X145655776Y-118025946D01*
X145671820Y-117955612D01*
X145685028Y-117894433D01*
X145694474Y-117846646D01*
X145699231Y-117816489D01*
X145702910Y-117788217D01*
X145708187Y-117761940D01*
X145712942Y-117751941D01*
X145721781Y-117755048D01*
X145749072Y-117765806D01*
X145791906Y-117783136D01*
X145847425Y-117805874D01*
X145912772Y-117832853D01*
X145985089Y-117862910D01*
X146000879Y-117869507D01*
X146091484Y-117908093D01*
X146161217Y-117939232D01*
X146210405Y-117963083D01*
X146239374Y-117979802D01*
X146248452Y-117989546D01*
X146246405Y-117997234D01*
X146236760Y-118023585D01*
X146221190Y-118062018D01*
X146201815Y-118107178D01*
X146163814Y-118201707D01*
X146122780Y-118338520D01*
X146097612Y-118479711D01*
X146093611Y-118517686D01*
X146091447Y-118620941D01*
X146104622Y-118708048D01*
X146133756Y-118779871D01*
X146179466Y-118837269D01*
X146242372Y-118881104D01*
X146323092Y-118912238D01*
X146422245Y-118931530D01*
X146481224Y-118938950D01*
X146474445Y-118777064D01*
X146474110Y-118751106D01*
X146996842Y-118751106D01*
X146996857Y-118759993D01*
X146997655Y-118815340D01*
X146999488Y-118862264D01*
X147002111Y-118896047D01*
X147005274Y-118911972D01*
X147011741Y-118916057D01*
X147033875Y-118920428D01*
X147072988Y-118923396D01*
X147130939Y-118925086D01*
X147209586Y-118925622D01*
X147405462Y-118925622D01*
X147461973Y-118880952D01*
X147477212Y-118868215D01*
X147519844Y-118821396D01*
X147555672Y-118760745D01*
X147560850Y-118750103D01*
X147577745Y-118711324D01*
X147587909Y-118676308D01*
X147593325Y-118636278D01*
X147595978Y-118582459D01*
X147596383Y-118564352D01*
X147593540Y-118488989D01*
X147581620Y-118428257D01*
X147559037Y-118376548D01*
X147524211Y-118328254D01*
X147519798Y-118323197D01*
X147464160Y-118274728D01*
X147400333Y-118246541D01*
X147325282Y-118237248D01*
X147253693Y-118244480D01*
X147190645Y-118269204D01*
X147132758Y-118313751D01*
X147085808Y-118368681D01*
X147045961Y-118441106D01*
X147018263Y-118527660D01*
X147002096Y-118630330D01*
X146996842Y-118751106D01*
X146474110Y-118751106D01*
X146472813Y-118650505D01*
X146479194Y-118499049D01*
X146493777Y-118350604D01*
X146515882Y-118214422D01*
X146530821Y-118149755D01*
X146573741Y-118017510D01*
X146630340Y-117895238D01*
X146699017Y-117785315D01*
X146778170Y-117690117D01*
X146866196Y-117612020D01*
X146961493Y-117553401D01*
X147013864Y-117529405D01*
X147084590Y-117503768D01*
X147155812Y-117487522D01*
X147234712Y-117479178D01*
X147325282Y-117477310D01*
X147328467Y-117477245D01*
X147362363Y-117477739D01*
G37*
X147306295Y-109928313D02*
X147486535Y-109928407D01*
X147649015Y-109928605D01*
X147794670Y-109928937D01*
X147924434Y-109929431D01*
X148039243Y-109930117D01*
X148140030Y-109931024D01*
X148227730Y-109932183D01*
X148303279Y-109933622D01*
X148367611Y-109935371D01*
X148421661Y-109937460D01*
X148466363Y-109939917D01*
X148502652Y-109942773D01*
X148531463Y-109946057D01*
X148553731Y-109949798D01*
X148570390Y-109954026D01*
X148582375Y-109958771D01*
X148590621Y-109964061D01*
X148596062Y-109969927D01*
X148599634Y-109976398D01*
X148602270Y-109983503D01*
X148604906Y-109991272D01*
X148608477Y-109999734D01*
X148610145Y-110004092D01*
X148612111Y-110012605D01*
X148613911Y-110025306D01*
X148615555Y-110043115D01*
X148617047Y-110066951D01*
X148618397Y-110097734D01*
X148619611Y-110136383D01*
X148620697Y-110183818D01*
X148621661Y-110240957D01*
X148622511Y-110308721D01*
X148623253Y-110388029D01*
X148623897Y-110479801D01*
X148624447Y-110584956D01*
X148624913Y-110704413D01*
X148625300Y-110839092D01*
X148625616Y-110989912D01*
X148625869Y-111157794D01*
X148626066Y-111343655D01*
X148626213Y-111548417D01*
X148626318Y-111772998D01*
X148626389Y-112018318D01*
X148626432Y-112285296D01*
X148626437Y-112323679D01*
X148626480Y-112589078D01*
X148626525Y-112832950D01*
X148626548Y-113056217D01*
X148626524Y-113259804D01*
X148626430Y-113444633D01*
X148626243Y-113611627D01*
X148625939Y-113761710D01*
X148625494Y-113895804D01*
X148624885Y-114014834D01*
X148624089Y-114119721D01*
X148623080Y-114211390D01*
X148621837Y-114290763D01*
X148620335Y-114358763D01*
X148618551Y-114416314D01*
X148616461Y-114464338D01*
X148614042Y-114503760D01*
X148611270Y-114535501D01*
X148608121Y-114560486D01*
X148604572Y-114579636D01*
X148600598Y-114593877D01*
X148596178Y-114604129D01*
X148591286Y-114611318D01*
X148585900Y-114616365D01*
X148579996Y-114620195D01*
X148573549Y-114623729D01*
X148566537Y-114627892D01*
X148564687Y-114628975D01*
X148559180Y-114631187D01*
X148550868Y-114633214D01*
X148538809Y-114635062D01*
X148522063Y-114636739D01*
X148499687Y-114638255D01*
X148470740Y-114639617D01*
X148434280Y-114640833D01*
X148389367Y-114641911D01*
X148335057Y-114642860D01*
X148270410Y-114643688D01*
X148194484Y-114644403D01*
X148106338Y-114645013D01*
X148005029Y-114645526D01*
X147889617Y-114645950D01*
X147759160Y-114646294D01*
X147612716Y-114646566D01*
X147449344Y-114646773D01*
X147268101Y-114646924D01*
X147068048Y-114647028D01*
X146848241Y-114647092D01*
X146607739Y-114647124D01*
X146345602Y-114647133D01*
X144154031Y-114647133D01*
X144115649Y-114608751D01*
X144091911Y-114581645D01*
X144080111Y-114554747D01*
X144077267Y-114518440D01*
X144077267Y-114466511D01*
X144165206Y-114466511D01*
X144215102Y-114464573D01*
X144325523Y-114445801D01*
X144426987Y-114408783D01*
X144518152Y-114355631D01*
X144597673Y-114288454D01*
X144664205Y-114209362D01*
X144716406Y-114120466D01*
X144752930Y-114023875D01*
X144772434Y-113921700D01*
X144773561Y-113817147D01*
X145589978Y-113817147D01*
X145589978Y-114262805D01*
X146766845Y-114265880D01*
X147943711Y-114268955D01*
X148002622Y-114295593D01*
X148027183Y-114307515D01*
X148057434Y-114324754D01*
X148074560Y-114337926D01*
X148082591Y-114345924D01*
X148097493Y-114353622D01*
X148098765Y-114349740D01*
X148100791Y-114326480D01*
X148102626Y-114284126D01*
X148104227Y-114224868D01*
X148105549Y-114150893D01*
X148106548Y-114064390D01*
X148107180Y-113967548D01*
X148107400Y-113862555D01*
X148107349Y-113793644D01*
X148107091Y-113695393D01*
X148106637Y-113605970D01*
X148106010Y-113527667D01*
X148105235Y-113462777D01*
X148104335Y-113413589D01*
X148103334Y-113382396D01*
X148102257Y-113371489D01*
X148099037Y-113372678D01*
X148081452Y-113382824D01*
X148055158Y-113399960D01*
X148042691Y-113408460D01*
X148028622Y-113417671D01*
X148014351Y-113425767D01*
X147998479Y-113432815D01*
X147979609Y-113438883D01*
X147956341Y-113444039D01*
X147927278Y-113448349D01*
X147891021Y-113451881D01*
X147846170Y-113454703D01*
X147791328Y-113456882D01*
X147725097Y-113458486D01*
X147646077Y-113459581D01*
X147552871Y-113460235D01*
X147444079Y-113460516D01*
X147318303Y-113460491D01*
X147174145Y-113460228D01*
X147010207Y-113459794D01*
X146825089Y-113459255D01*
X146646232Y-113458721D01*
X146487374Y-113458195D01*
X146348316Y-113457650D01*
X146227665Y-113457055D01*
X146124028Y-113456381D01*
X146036011Y-113455597D01*
X145962223Y-113454674D01*
X145901269Y-113453581D01*
X145851757Y-113452288D01*
X145812293Y-113450765D01*
X145781484Y-113448981D01*
X145757938Y-113446908D01*
X145740260Y-113444514D01*
X145727059Y-113441770D01*
X145716940Y-113438644D01*
X145708511Y-113435108D01*
X145700375Y-113431209D01*
X145663544Y-113411562D01*
X145633391Y-113392775D01*
X145631908Y-113391728D01*
X145609659Y-113377398D01*
X145596702Y-113371489D01*
X145596249Y-113372496D01*
X145594803Y-113389695D01*
X145593480Y-113426344D01*
X145592316Y-113480038D01*
X145591347Y-113548370D01*
X145590611Y-113628936D01*
X145590142Y-113719330D01*
X145589978Y-113817147D01*
X144773561Y-113817147D01*
X144773573Y-113816050D01*
X144755005Y-113709036D01*
X144715384Y-113602768D01*
X144657516Y-113505781D01*
X144582684Y-113420707D01*
X144494615Y-113351985D01*
X144395616Y-113301082D01*
X144287993Y-113269465D01*
X144174054Y-113258600D01*
X144077267Y-113258600D01*
X144077267Y-111638247D01*
X144077280Y-111427103D01*
X144077313Y-111292686D01*
X144686867Y-111292686D01*
X144749966Y-111254689D01*
X144775005Y-111240007D01*
X144802586Y-111225469D01*
X144830700Y-111213373D01*
X144861551Y-111203468D01*
X144897344Y-111195506D01*
X144940283Y-111189239D01*
X144992574Y-111184418D01*
X145056419Y-111180794D01*
X145134025Y-111178119D01*
X145227594Y-111176143D01*
X145339333Y-111174618D01*
X145471445Y-111173296D01*
X145591434Y-111172387D01*
X145708063Y-111171980D01*
X145803531Y-111172233D01*
X145877556Y-111173143D01*
X145929855Y-111174707D01*
X145960149Y-111176921D01*
X145968156Y-111179780D01*
X145964858Y-111182839D01*
X145943408Y-111200994D01*
X145906889Y-111230725D01*
X145857442Y-111270361D01*
X145797207Y-111318229D01*
X145728327Y-111372657D01*
X145652943Y-111431973D01*
X145573196Y-111494505D01*
X145491228Y-111558579D01*
X145409180Y-111622525D01*
X145329194Y-111684669D01*
X145253411Y-111743339D01*
X145183973Y-111796863D01*
X145123021Y-111843570D01*
X145072696Y-111881786D01*
X145035140Y-111909839D01*
X145012495Y-111926057D01*
X144940212Y-111971365D01*
X144860463Y-112011339D01*
X144792188Y-112032870D01*
X144734844Y-112036173D01*
X144686867Y-112030884D01*
X144687117Y-113162644D01*
X144717722Y-113123133D01*
X144725089Y-113113752D01*
X144779438Y-113050817D01*
X144847259Y-112982003D01*
X144930516Y-112905404D01*
X145031178Y-112819112D01*
X145051847Y-112801948D01*
X145101409Y-112761167D01*
X145162326Y-112711412D01*
X145232898Y-112654045D01*
X145311424Y-112590431D01*
X145396204Y-112521931D01*
X145485537Y-112449910D01*
X145577722Y-112375730D01*
X145596702Y-112360483D01*
X145671060Y-112300754D01*
X145763848Y-112226347D01*
X145854388Y-112153869D01*
X145940978Y-112084686D01*
X146021918Y-112020159D01*
X146095506Y-111961653D01*
X146160044Y-111910530D01*
X146213829Y-111868153D01*
X146255162Y-111835885D01*
X146282342Y-111815090D01*
X146293668Y-111807131D01*
X146297771Y-111808889D01*
X146318334Y-111821770D01*
X146354561Y-111846115D01*
X146404824Y-111880753D01*
X146467492Y-111924514D01*
X146540936Y-111976225D01*
X146623527Y-112034716D01*
X146713636Y-112098816D01*
X146809631Y-112167354D01*
X146909885Y-112239157D01*
X147012768Y-112313056D01*
X147116650Y-112387879D01*
X147219901Y-112462455D01*
X147320892Y-112535613D01*
X147417994Y-112606181D01*
X147509577Y-112672989D01*
X147594011Y-112734865D01*
X147669667Y-112790639D01*
X147734916Y-112839138D01*
X147788128Y-112879193D01*
X147827673Y-112909631D01*
X147853026Y-112930056D01*
X147907295Y-112976101D01*
X147963775Y-113026388D01*
X148013669Y-113073185D01*
X148107400Y-113164349D01*
X148107400Y-112009910D01*
X148031200Y-112010544D01*
X147989160Y-112009426D01*
X147953334Y-112003696D01*
X147915772Y-111991110D01*
X147867577Y-111969432D01*
X147860897Y-111966211D01*
X147811359Y-111940812D01*
X147763369Y-111914004D01*
X147726466Y-111891083D01*
X147719834Y-111886515D01*
X147688593Y-111864484D01*
X147643654Y-111832307D01*
X147587147Y-111791543D01*
X147521204Y-111743755D01*
X147447957Y-111690502D01*
X147369536Y-111633345D01*
X147288072Y-111573845D01*
X147205698Y-111513563D01*
X147124544Y-111454060D01*
X147046742Y-111396895D01*
X146974423Y-111343630D01*
X146909718Y-111295826D01*
X146854759Y-111255043D01*
X146811676Y-111222842D01*
X146782602Y-111200784D01*
X146769667Y-111190429D01*
X146765351Y-111185956D01*
X146763312Y-111181764D01*
X146765926Y-111178357D01*
X146774986Y-111175675D01*
X146792285Y-111173659D01*
X146819614Y-111172252D01*
X146858765Y-111171395D01*
X146911533Y-111171030D01*
X146979707Y-111171097D01*
X147065082Y-111171540D01*
X147169449Y-111172298D01*
X147294600Y-111173315D01*
X147339300Y-111173692D01*
X147460395Y-111174831D01*
X147561688Y-111176028D01*
X147645262Y-111177364D01*
X147713204Y-111178923D01*
X147767599Y-111180785D01*
X147810532Y-111183034D01*
X147844089Y-111185752D01*
X147870355Y-111189021D01*
X147891416Y-111192922D01*
X147909357Y-111197539D01*
X147935770Y-111205808D01*
X147997772Y-111229417D01*
X148050573Y-111255315D01*
X148087645Y-111280465D01*
X148089075Y-111281661D01*
X148093424Y-111283832D01*
X148097026Y-111281672D01*
X148099951Y-111273356D01*
X148102269Y-111257060D01*
X148104051Y-111230959D01*
X148105367Y-111193229D01*
X148106286Y-111142044D01*
X148106878Y-111075580D01*
X148107215Y-110992013D01*
X148107365Y-110889517D01*
X148107400Y-110766268D01*
X148107400Y-110234704D01*
X148049783Y-110273477D01*
X148040893Y-110279568D01*
X148026069Y-110290024D01*
X148012422Y-110299421D01*
X147998765Y-110307817D01*
X147983911Y-110315267D01*
X147966670Y-110321827D01*
X147945855Y-110327554D01*
X147920280Y-110332505D01*
X147888755Y-110336734D01*
X147850093Y-110340299D01*
X147803107Y-110343256D01*
X147746608Y-110345660D01*
X147679409Y-110347569D01*
X147600322Y-110349038D01*
X147508160Y-110350124D01*
X147401734Y-110350882D01*
X147279857Y-110351370D01*
X147141341Y-110351642D01*
X146984999Y-110351757D01*
X146809642Y-110351769D01*
X146614082Y-110351735D01*
X146397133Y-110351711D01*
X146274513Y-110351720D01*
X146069447Y-110351757D01*
X145885116Y-110351773D01*
X145720334Y-110351712D01*
X145573916Y-110351516D01*
X145444674Y-110351130D01*
X145331422Y-110350495D01*
X145232975Y-110349556D01*
X145148144Y-110348255D01*
X145075744Y-110346536D01*
X145014589Y-110344341D01*
X144963492Y-110341615D01*
X144921267Y-110338299D01*
X144886727Y-110334338D01*
X144858686Y-110329675D01*
X144835958Y-110324253D01*
X144817356Y-110318014D01*
X144801693Y-110310903D01*
X144787784Y-110302862D01*
X144774441Y-110293834D01*
X144760479Y-110283764D01*
X144744711Y-110272593D01*
X144686867Y-110232803D01*
X144686867Y-111292686D01*
X144077313Y-111292686D01*
X144077330Y-111222980D01*
X144077430Y-111039314D01*
X144077592Y-110875009D01*
X144077829Y-110728971D01*
X144078153Y-110600106D01*
X144078575Y-110487317D01*
X144079109Y-110389512D01*
X144079767Y-110305596D01*
X144080561Y-110234473D01*
X144081504Y-110175050D01*
X144082608Y-110126232D01*
X144083884Y-110086923D01*
X144085347Y-110056031D01*
X144087007Y-110032459D01*
X144088878Y-110015114D01*
X144090972Y-110002901D01*
X144093300Y-109994725D01*
X144095876Y-109989492D01*
X144099445Y-109983496D01*
X144102978Y-109976721D01*
X144106488Y-109970522D01*
X144110918Y-109964874D01*
X144117208Y-109959753D01*
X144126301Y-109955131D01*
X144139139Y-109950985D01*
X144156662Y-109947287D01*
X144179813Y-109944013D01*
X144209534Y-109941137D01*
X144246765Y-109938633D01*
X144292449Y-109936476D01*
X144347527Y-109934640D01*
X144412941Y-109933100D01*
X144489633Y-109931830D01*
X144578544Y-109930805D01*
X144680617Y-109929999D01*
X144686867Y-109929966D01*
X144796792Y-109929386D01*
X144928011Y-109928941D01*
X145075216Y-109928638D01*
X145239349Y-109928452D01*
X145421352Y-109928358D01*
X145622165Y-109928329D01*
X145842732Y-109928339D01*
X146083992Y-109928364D01*
X146346889Y-109928378D01*
X146389040Y-109928378D01*
X146649668Y-109928354D01*
X146888796Y-109928315D01*
X147107360Y-109928292D01*
X147306295Y-109928313D01*
G36*
X147306295Y-109928313D02*
G01*
X147486535Y-109928407D01*
X147649015Y-109928605D01*
X147794670Y-109928937D01*
X147924434Y-109929431D01*
X148039243Y-109930117D01*
X148140030Y-109931024D01*
X148227730Y-109932183D01*
X148303279Y-109933622D01*
X148367611Y-109935371D01*
X148421661Y-109937460D01*
X148466363Y-109939917D01*
X148502652Y-109942773D01*
X148531463Y-109946057D01*
X148553731Y-109949798D01*
X148570390Y-109954026D01*
X148582375Y-109958771D01*
X148590621Y-109964061D01*
X148596062Y-109969927D01*
X148599634Y-109976398D01*
X148602270Y-109983503D01*
X148604906Y-109991272D01*
X148608477Y-109999734D01*
X148610145Y-110004092D01*
X148612111Y-110012605D01*
X148613911Y-110025306D01*
X148615555Y-110043115D01*
X148617047Y-110066951D01*
X148618397Y-110097734D01*
X148619611Y-110136383D01*
X148620697Y-110183818D01*
X148621661Y-110240957D01*
X148622511Y-110308721D01*
X148623253Y-110388029D01*
X148623897Y-110479801D01*
X148624447Y-110584956D01*
X148624913Y-110704413D01*
X148625300Y-110839092D01*
X148625616Y-110989912D01*
X148625869Y-111157794D01*
X148626066Y-111343655D01*
X148626213Y-111548417D01*
X148626318Y-111772998D01*
X148626389Y-112018318D01*
X148626432Y-112285296D01*
X148626437Y-112323679D01*
X148626480Y-112589078D01*
X148626525Y-112832950D01*
X148626548Y-113056217D01*
X148626524Y-113259804D01*
X148626430Y-113444633D01*
X148626243Y-113611627D01*
X148625939Y-113761710D01*
X148625494Y-113895804D01*
X148624885Y-114014834D01*
X148624089Y-114119721D01*
X148623080Y-114211390D01*
X148621837Y-114290763D01*
X148620335Y-114358763D01*
X148618551Y-114416314D01*
X148616461Y-114464338D01*
X148614042Y-114503760D01*
X148611270Y-114535501D01*
X148608121Y-114560486D01*
X148604572Y-114579636D01*
X148600598Y-114593877D01*
X148596178Y-114604129D01*
X148591286Y-114611318D01*
X148585900Y-114616365D01*
X148579996Y-114620195D01*
X148573549Y-114623729D01*
X148566537Y-114627892D01*
X148564687Y-114628975D01*
X148559180Y-114631187D01*
X148550868Y-114633214D01*
X148538809Y-114635062D01*
X148522063Y-114636739D01*
X148499687Y-114638255D01*
X148470740Y-114639617D01*
X148434280Y-114640833D01*
X148389367Y-114641911D01*
X148335057Y-114642860D01*
X148270410Y-114643688D01*
X148194484Y-114644403D01*
X148106338Y-114645013D01*
X148005029Y-114645526D01*
X147889617Y-114645950D01*
X147759160Y-114646294D01*
X147612716Y-114646566D01*
X147449344Y-114646773D01*
X147268101Y-114646924D01*
X147068048Y-114647028D01*
X146848241Y-114647092D01*
X146607739Y-114647124D01*
X146345602Y-114647133D01*
X144154031Y-114647133D01*
X144115649Y-114608751D01*
X144091911Y-114581645D01*
X144080111Y-114554747D01*
X144077267Y-114518440D01*
X144077267Y-114466511D01*
X144165206Y-114466511D01*
X144215102Y-114464573D01*
X144325523Y-114445801D01*
X144426987Y-114408783D01*
X144518152Y-114355631D01*
X144597673Y-114288454D01*
X144664205Y-114209362D01*
X144716406Y-114120466D01*
X144752930Y-114023875D01*
X144772434Y-113921700D01*
X144773561Y-113817147D01*
X145589978Y-113817147D01*
X145589978Y-114262805D01*
X146766845Y-114265880D01*
X147943711Y-114268955D01*
X148002622Y-114295593D01*
X148027183Y-114307515D01*
X148057434Y-114324754D01*
X148074560Y-114337926D01*
X148082591Y-114345924D01*
X148097493Y-114353622D01*
X148098765Y-114349740D01*
X148100791Y-114326480D01*
X148102626Y-114284126D01*
X148104227Y-114224868D01*
X148105549Y-114150893D01*
X148106548Y-114064390D01*
X148107180Y-113967548D01*
X148107400Y-113862555D01*
X148107349Y-113793644D01*
X148107091Y-113695393D01*
X148106637Y-113605970D01*
X148106010Y-113527667D01*
X148105235Y-113462777D01*
X148104335Y-113413589D01*
X148103334Y-113382396D01*
X148102257Y-113371489D01*
X148099037Y-113372678D01*
X148081452Y-113382824D01*
X148055158Y-113399960D01*
X148042691Y-113408460D01*
X148028622Y-113417671D01*
X148014351Y-113425767D01*
X147998479Y-113432815D01*
X147979609Y-113438883D01*
X147956341Y-113444039D01*
X147927278Y-113448349D01*
X147891021Y-113451881D01*
X147846170Y-113454703D01*
X147791328Y-113456882D01*
X147725097Y-113458486D01*
X147646077Y-113459581D01*
X147552871Y-113460235D01*
X147444079Y-113460516D01*
X147318303Y-113460491D01*
X147174145Y-113460228D01*
X147010207Y-113459794D01*
X146825089Y-113459255D01*
X146646232Y-113458721D01*
X146487374Y-113458195D01*
X146348316Y-113457650D01*
X146227665Y-113457055D01*
X146124028Y-113456381D01*
X146036011Y-113455597D01*
X145962223Y-113454674D01*
X145901269Y-113453581D01*
X145851757Y-113452288D01*
X145812293Y-113450765D01*
X145781484Y-113448981D01*
X145757938Y-113446908D01*
X145740260Y-113444514D01*
X145727059Y-113441770D01*
X145716940Y-113438644D01*
X145708511Y-113435108D01*
X145700375Y-113431209D01*
X145663544Y-113411562D01*
X145633391Y-113392775D01*
X145631908Y-113391728D01*
X145609659Y-113377398D01*
X145596702Y-113371489D01*
X145596249Y-113372496D01*
X145594803Y-113389695D01*
X145593480Y-113426344D01*
X145592316Y-113480038D01*
X145591347Y-113548370D01*
X145590611Y-113628936D01*
X145590142Y-113719330D01*
X145589978Y-113817147D01*
X144773561Y-113817147D01*
X144773573Y-113816050D01*
X144755005Y-113709036D01*
X144715384Y-113602768D01*
X144657516Y-113505781D01*
X144582684Y-113420707D01*
X144494615Y-113351985D01*
X144395616Y-113301082D01*
X144287993Y-113269465D01*
X144174054Y-113258600D01*
X144077267Y-113258600D01*
X144077267Y-111638247D01*
X144077280Y-111427103D01*
X144077313Y-111292686D01*
X144686867Y-111292686D01*
X144749966Y-111254689D01*
X144775005Y-111240007D01*
X144802586Y-111225469D01*
X144830700Y-111213373D01*
X144861551Y-111203468D01*
X144897344Y-111195506D01*
X144940283Y-111189239D01*
X144992574Y-111184418D01*
X145056419Y-111180794D01*
X145134025Y-111178119D01*
X145227594Y-111176143D01*
X145339333Y-111174618D01*
X145471445Y-111173296D01*
X145591434Y-111172387D01*
X145708063Y-111171980D01*
X145803531Y-111172233D01*
X145877556Y-111173143D01*
X145929855Y-111174707D01*
X145960149Y-111176921D01*
X145968156Y-111179780D01*
X145964858Y-111182839D01*
X145943408Y-111200994D01*
X145906889Y-111230725D01*
X145857442Y-111270361D01*
X145797207Y-111318229D01*
X145728327Y-111372657D01*
X145652943Y-111431973D01*
X145573196Y-111494505D01*
X145491228Y-111558579D01*
X145409180Y-111622525D01*
X145329194Y-111684669D01*
X145253411Y-111743339D01*
X145183973Y-111796863D01*
X145123021Y-111843570D01*
X145072696Y-111881786D01*
X145035140Y-111909839D01*
X145012495Y-111926057D01*
X144940212Y-111971365D01*
X144860463Y-112011339D01*
X144792188Y-112032870D01*
X144734844Y-112036173D01*
X144686867Y-112030884D01*
X144687117Y-113162644D01*
X144717722Y-113123133D01*
X144725089Y-113113752D01*
X144779438Y-113050817D01*
X144847259Y-112982003D01*
X144930516Y-112905404D01*
X145031178Y-112819112D01*
X145051847Y-112801948D01*
X145101409Y-112761167D01*
X145162326Y-112711412D01*
X145232898Y-112654045D01*
X145311424Y-112590431D01*
X145396204Y-112521931D01*
X145485537Y-112449910D01*
X145577722Y-112375730D01*
X145596702Y-112360483D01*
X145671060Y-112300754D01*
X145763848Y-112226347D01*
X145854388Y-112153869D01*
X145940978Y-112084686D01*
X146021918Y-112020159D01*
X146095506Y-111961653D01*
X146160044Y-111910530D01*
X146213829Y-111868153D01*
X146255162Y-111835885D01*
X146282342Y-111815090D01*
X146293668Y-111807131D01*
X146297771Y-111808889D01*
X146318334Y-111821770D01*
X146354561Y-111846115D01*
X146404824Y-111880753D01*
X146467492Y-111924514D01*
X146540936Y-111976225D01*
X146623527Y-112034716D01*
X146713636Y-112098816D01*
X146809631Y-112167354D01*
X146909885Y-112239157D01*
X147012768Y-112313056D01*
X147116650Y-112387879D01*
X147219901Y-112462455D01*
X147320892Y-112535613D01*
X147417994Y-112606181D01*
X147509577Y-112672989D01*
X147594011Y-112734865D01*
X147669667Y-112790639D01*
X147734916Y-112839138D01*
X147788128Y-112879193D01*
X147827673Y-112909631D01*
X147853026Y-112930056D01*
X147907295Y-112976101D01*
X147963775Y-113026388D01*
X148013669Y-113073185D01*
X148107400Y-113164349D01*
X148107400Y-112009910D01*
X148031200Y-112010544D01*
X147989160Y-112009426D01*
X147953334Y-112003696D01*
X147915772Y-111991110D01*
X147867577Y-111969432D01*
X147860897Y-111966211D01*
X147811359Y-111940812D01*
X147763369Y-111914004D01*
X147726466Y-111891083D01*
X147719834Y-111886515D01*
X147688593Y-111864484D01*
X147643654Y-111832307D01*
X147587147Y-111791543D01*
X147521204Y-111743755D01*
X147447957Y-111690502D01*
X147369536Y-111633345D01*
X147288072Y-111573845D01*
X147205698Y-111513563D01*
X147124544Y-111454060D01*
X147046742Y-111396895D01*
X146974423Y-111343630D01*
X146909718Y-111295826D01*
X146854759Y-111255043D01*
X146811676Y-111222842D01*
X146782602Y-111200784D01*
X146769667Y-111190429D01*
X146765351Y-111185956D01*
X146763312Y-111181764D01*
X146765926Y-111178357D01*
X146774986Y-111175675D01*
X146792285Y-111173659D01*
X146819614Y-111172252D01*
X146858765Y-111171395D01*
X146911533Y-111171030D01*
X146979707Y-111171097D01*
X147065082Y-111171540D01*
X147169449Y-111172298D01*
X147294600Y-111173315D01*
X147339300Y-111173692D01*
X147460395Y-111174831D01*
X147561688Y-111176028D01*
X147645262Y-111177364D01*
X147713204Y-111178923D01*
X147767599Y-111180785D01*
X147810532Y-111183034D01*
X147844089Y-111185752D01*
X147870355Y-111189021D01*
X147891416Y-111192922D01*
X147909357Y-111197539D01*
X147935770Y-111205808D01*
X147997772Y-111229417D01*
X148050573Y-111255315D01*
X148087645Y-111280465D01*
X148089075Y-111281661D01*
X148093424Y-111283832D01*
X148097026Y-111281672D01*
X148099951Y-111273356D01*
X148102269Y-111257060D01*
X148104051Y-111230959D01*
X148105367Y-111193229D01*
X148106286Y-111142044D01*
X148106878Y-111075580D01*
X148107215Y-110992013D01*
X148107365Y-110889517D01*
X148107400Y-110766268D01*
X148107400Y-110234704D01*
X148049783Y-110273477D01*
X148040893Y-110279568D01*
X148026069Y-110290024D01*
X148012422Y-110299421D01*
X147998765Y-110307817D01*
X147983911Y-110315267D01*
X147966670Y-110321827D01*
X147945855Y-110327554D01*
X147920280Y-110332505D01*
X147888755Y-110336734D01*
X147850093Y-110340299D01*
X147803107Y-110343256D01*
X147746608Y-110345660D01*
X147679409Y-110347569D01*
X147600322Y-110349038D01*
X147508160Y-110350124D01*
X147401734Y-110350882D01*
X147279857Y-110351370D01*
X147141341Y-110351642D01*
X146984999Y-110351757D01*
X146809642Y-110351769D01*
X146614082Y-110351735D01*
X146397133Y-110351711D01*
X146274513Y-110351720D01*
X146069447Y-110351757D01*
X145885116Y-110351773D01*
X145720334Y-110351712D01*
X145573916Y-110351516D01*
X145444674Y-110351130D01*
X145331422Y-110350495D01*
X145232975Y-110349556D01*
X145148144Y-110348255D01*
X145075744Y-110346536D01*
X145014589Y-110344341D01*
X144963492Y-110341615D01*
X144921267Y-110338299D01*
X144886727Y-110334338D01*
X144858686Y-110329675D01*
X144835958Y-110324253D01*
X144817356Y-110318014D01*
X144801693Y-110310903D01*
X144787784Y-110302862D01*
X144774441Y-110293834D01*
X144760479Y-110283764D01*
X144744711Y-110272593D01*
X144686867Y-110232803D01*
X144686867Y-111292686D01*
X144077313Y-111292686D01*
X144077330Y-111222980D01*
X144077430Y-111039314D01*
X144077592Y-110875009D01*
X144077829Y-110728971D01*
X144078153Y-110600106D01*
X144078575Y-110487317D01*
X144079109Y-110389512D01*
X144079767Y-110305596D01*
X144080561Y-110234473D01*
X144081504Y-110175050D01*
X144082608Y-110126232D01*
X144083884Y-110086923D01*
X144085347Y-110056031D01*
X144087007Y-110032459D01*
X144088878Y-110015114D01*
X144090972Y-110002901D01*
X144093300Y-109994725D01*
X144095876Y-109989492D01*
X144099445Y-109983496D01*
X144102978Y-109976721D01*
X144106488Y-109970522D01*
X144110918Y-109964874D01*
X144117208Y-109959753D01*
X144126301Y-109955131D01*
X144139139Y-109950985D01*
X144156662Y-109947287D01*
X144179813Y-109944013D01*
X144209534Y-109941137D01*
X144246765Y-109938633D01*
X144292449Y-109936476D01*
X144347527Y-109934640D01*
X144412941Y-109933100D01*
X144489633Y-109931830D01*
X144578544Y-109930805D01*
X144680617Y-109929999D01*
X144686867Y-109929966D01*
X144796792Y-109929386D01*
X144928011Y-109928941D01*
X145075216Y-109928638D01*
X145239349Y-109928452D01*
X145421352Y-109928358D01*
X145622165Y-109928329D01*
X145842732Y-109928339D01*
X146083992Y-109928364D01*
X146346889Y-109928378D01*
X146389040Y-109928378D01*
X146649668Y-109928354D01*
X146888796Y-109928315D01*
X147107360Y-109928292D01*
X147306295Y-109928313D01*
G37*
%TD*%
M02*
